<svg xmlns="http://www.w3.org/2000/svg" xmlns:xlink="http://www.w3.org/1999/xlink" width="166.681" height="124.034" viewBox="0 0 166.681 124.034"><defs><linearGradient id="a" x1="0.5" x2="0.5" y2="1" gradientUnits="objectBoundingBox"><stop offset="0" stop-color="#a28454"/><stop offset="1" stop-color="#c9b27d"/></linearGradient><filter id="b" x="16.904" y="19.469" width="132.118" height="92.453" filterUnits="userSpaceOnUse"><feOffset input="SourceAlpha"/><feGaussianBlur stdDeviation="7.5" result="c"/><feFlood flood-opacity="0.161"/><feComposite operator="in" in2="c"/><feComposite in="SourceGraphic"/></filter><filter id="g" x="0" y="0" width="166.681" height="124.034" filterUnits="userSpaceOnUse"><feOffset input="SourceAlpha"/><feGaussianBlur stdDeviation="7.5" result="h"/><feFlood flood-opacity="0.161"/><feComposite operator="in" in2="h"/><feComposite in="SourceGraphic"/></filter></defs><g transform="translate(22.491 22.495)"><g transform="matrix(1, 0, 0, 1, -22.49, -22.49)" filter="url(#b)"><path d="M104,26.49c-.33-4.14-5.13-5.58-8-2.72-1.92,1.92-2.64,5-3.71,7.41s-2.39,6-4.67,7.35c-3.82,2.28-3.8-4.78-3.93-6.81-.26-4.07.27-8.13.32-12.2,0-.12-2.29,0-2.3.3A100.059,100.059,0,0,1,80.15,32a8.84,8.84,0,0,0-6.29,2.51A13.66,13.66,0,0,0,70.18,42h0c-.72,1.61-1.54,6.27-3.32,7.9-1.22-.5-.94-8.67-1.65-10.1s-2.07-1.31-3.44-.66c-2.1,1-3.59,5.76-4.33,7.76A27.481,27.481,0,0,0,56,51.88c-.05.24-.08.49-.12.74-.06-2.84-.31-5.68-.3-8.5,0-.15-2.43-.07-2.47.32-.44,4-.93,8.32-2.83,11.88-.59,1.09-2.48,3.91-3.33,3.39-.36-.22-.36-.92-.44-1.3-.53-2.54,0-5.34,0-7.9H46.2c-.4-1.87-3-2.48-5.3-2-3.46.78-5.47,4.54-6.33,8.08-2.73,3.51-5.7,7.15-9.71,9.18-1.51.77-4.28,1.57-5.25-.33a5.27,5.27,0,0,1-.17-3.1,6.93,6.93,0,0,1,1.89-3.7c1-.73,1.93,0,1.37,1.21.07-.14,1.3.07,1.5-.19,2-2.72-1.2-3.79-4.1-1.73A8.52,8.52,0,0,0,17,62.32c-.5,2.19,1.23,3.92,3.26,4.44s4.76-.26,6.66-1.18a22.93,22.93,0,0,0,7.15-5.79C33.94,63.42,37,64.28,40,63c1.85-.81,2.93-2.86,3.93-4.52a2.75,2.75,0,0,0,1,2c.94.64,2.93.3,3.9-.2,2.18-1.14,3.66-4.42,4.58-6.53v-.09q.1,1.69.24,3.36c0,.14,2.06,0,2.15-.28.26-.78,2.77-7,3.41-8.52s1.16-2.77,1.77-4.15c.34-.77,1.18-2.22,1.77-3.21a21,21,0,0,1,.34,2.86c.24,1.62.39,3.29.73,4.9s.73,3.53,2.37,3.37c3-.29,4.34-3.4,5.4-6.05a2.92,2.92,0,0,0,1.91.82c4.14.05,5.77-3.78,7.24-7.33a35.36,35.36,0,0,0,1.56-4.58,9.77,9.77,0,0,0,.63,3.1c1.11,2.64,4.27,1.84,6,.45,3.93-3.09,6.19-7.61,8-12.17.33-.85,1-3.27,2.11-3.45s1.88,1.79,2.12,2.47a6.61,6.61,0,0,1,.31,3.24c-.33,1.75-2,1.3-1.11-.22a15.856,15.856,0,0,0-2.27.3c-1.34,1.89.6,3.08,2.6,2.84C103.73,31,104.17,28.76,104,26.49ZM43.48,55.3a21.24,21.24,0,0,1-2,4.21c-.59,1-1.33,2.71-2.52,3.12-1.94.67-2.23-1.65-2.15-3a17.79,17.79,0,0,1,3.32-9.07c1-1.36,2-2,3.32-.54a5.67,5.67,0,0,1,.73,1c.27.45,0,1.31-.11,1.79a18.231,18.231,0,0,1-.5,2.19ZM77.17,42.7c-.81,1.41-2.64,4-3.87,1.68a5.91,5.91,0,0,1,0-4.58c.88-2.59,3.66-6.33,6.72-6.94v.22C79.41,36.4,78.86,39.73,77.17,42.7Z" transform="translate(22.49 22.49)" fill="url(#a)"/></g><path d="M20.89,58.43c-.23,0-.56.09-.74.09C20.38,58.52,20.72,58.43,20.89,58.43Z" fill="url(#a)"/><path d="M13.14,18.48Z" fill="url(#a)"/><g transform="matrix(1, 0, 0, 1, -22.49, -22.49)" filter="url(#g)"><path d="M118.76,21.49c1.19-5,4.34-10.28,2.18-15.49-1.53-3.69-5.4-4.88-9-5.64-4.17-.88-8.55,0-12.55,1.29-4.91,1.63-9.49,4.3-14,6.72a101,101,0,0,0-13.72,9.1c-9.4,7.15-18.44,14.12-29.38,18.81-1.64.7-3.3,1.39-5,2a62.669,62.669,0,0,0-1.19-6.63,27.59,27.59,0,0,0-2.13-7.5c-.63-2.14-4.16-2.86-6-3-4.14-.36-8.73.45-11.62-3.23-.21-.27-1-.21-1.76,0h0a4.11,4.11,0,0,0-.86.28h0l-.14.07h0l-.38.23c.22,3.5.69,7.42,1.17,11a36.29,36.29,0,0,0-9.54,2.78C-2.71,35.83.33,44.15,2.4,50.41c1.46,4.43,1,7.79-.36,12.15C1.25,65,.57,68,1.87,70.14H1.7c6.81,8.32,18.18,10.06,28.22,8.25,11.5-2.08,22.45-6.81,32.67-12.36,11.39-6.19,22-13.63,32.85-20.72l2.36-1.53a10.9,10.9,0,0,0,.74,6.08,2.68,2.68,0,0,0,.87,2c2.85,3,9.14,2,12.43.52a.09.09,0,0,0,.07-.06c.11,0,.19-.07.19-.11a37,37,0,0,0,.14-5.27c0-.8.06-1.76,0-2.63,3.1-.94,6.42-2.09,8.56-4.69a2.75,2.75,0,0,0,.75-2.13c.08,0,.12,0,.13-.08.15-2.64-1.36-5.37-2.41-7.69a12.46,12.46,0,0,1-.51-8.23ZM16.17,43.64A110.852,110.852,0,0,0,14.4,31.2l1.8-.38a109.7,109.7,0,0,0,1.93,12.77C17.49,43.63,16.83,43.64,16.17,43.64Zm2.24-.06a113.922,113.922,0,0,0-1.87-12.83l1.72-.37A117.819,117.819,0,0,0,20,43.44Zm1.9-.18a119.246,119.246,0,0,0-1.72-13.08l1.77-.38c.37,3.95,1.09,9.22,1.79,13.17-.56.11-1.15.21-1.84.29Zm2.11-.35c-.32-4-1.1-9.1-1.74-13.17l1.63-.34c.38,4.06,1,9.14,1.73,13.13L22.66,43Zm1.89-.45a111.76,111.76,0,0,0-1.7-13.12l1.66-.35c.4,3.89,1.18,9.06,1.72,13Zm1.93-.51a112.432,112.432,0,0,0-1.65-13l1.63-.34a108.627,108.627,0,0,0,1.66,12.9Zm1.9-.55a108.419,108.419,0,0,0-1.61-12.88l.41-.08c.26-.06.58-.11.94-.16a110.168,110.168,0,0,0,1.71,12.67C29.11,41.25,28.62,41.4,28.14,41.54ZM29.85,41a109.918,109.918,0,0,0-1.62-12.65c.45-.07,1-.15,1.47-.26a105.109,105.109,0,0,0,1.69,12.39Zm1.8-.61A103.1,103.1,0,0,0,30,28a13.829,13.829,0,0,0,1.34-.36c.43,3.72,1.16,8.51,1.81,12.2Zm2-.7a118.181,118.181,0,0,0-1.88-12.17,6,6,0,0,0,.88-.42c.21,1.81.66,3.63,1,5.38A62.059,62.059,0,0,0,35,39.2ZM15.88,20.5a13.6,13.6,0,0,0,5.43,1.26c2.29.14,5.17-.26,7.29.77,2.67,1.31,2.6,3.31-.61,4.32a78,78,0,0,1-11.13,2.2C16.49,26.23,16.19,23.34,15.88,20.5ZM14.05,31.27a105.272,105.272,0,0,0,1.82,12.36,12.486,12.486,0,0,1-1.93-.1c-.29-3.62-1.12-8.21-1.72-11.86l1-.23ZM9.78,42.69A70.92,70.92,0,0,0,8.53,32.8q.721-.311,1.47-.55a76.551,76.551,0,0,0,1.64,11,13.91,13.91,0,0,1-1.86-.56Zm-.32-.11a10,10,0,0,1-1.89-.92c0-2.16-.64-5.84-.83-7.95A10.27,10.27,0,0,1,8.17,33a70.221,70.221,0,0,0,1.29,9.58Zm.9-10.43c.52-.15,1-.29,1.56-.41A87.818,87.818,0,0,0,13.65,43.5c-.6-.07-1.19-.15-1.76-.26v-.06a74.7,74.7,0,0,0-1.53-11.03ZM6.36,34c.09,1.28.24,3.09.36,4.18a18.55,18.55,0,0,0,.43,3.24,5.86,5.86,0,0,1-2.33-6A7.62,7.62,0,0,1,6.36,34ZM41.65,73.68c-6.51,2.38-13.92,4.91-20.93,4-6-.74-11.2-3.54-15.82-7.25-.81-3.48-.31-6,.9-9.63,1.54-4.57.88-8.2-.75-12.65-.9-2.47-2-5.2-1.93-7.9,1.49,2.5,5,4.38,7.46,4.9a34.53,34.53,0,0,0,14.69-.59c11.06-2.5,21.6-8,31.36-13.75S74.49,17.3,84,11.31A115.51,115.51,0,0,1,98.85,3.42c5.1-2.24,11-3.37,15.91-.07,5.61,3.72,2.42,11.41.85,16.33-.91,2.87-1.62,6-.76,8.94a23,23,0,0,0,3,5.72,9.22,9.22,0,0,0-2.72-.55,14.83,14.83,0,0,0-2.42.18.2.2,0,0,0-.13,0c-3.61.61-6.8,2.5-10,4.39C82.36,50.32,63.89,65.55,41.65,73.68Zm61.52-28.14c-.58.28-1.16.59-1.71.92v-5l1.36-.87a35.462,35.462,0,0,0,.35,4.95Zm0-5.19L105,39.2a30.14,30.14,0,0,0,.22,5.48c-.59.22-1.21.48-1.83.77a24.829,24.829,0,0,0-.17-5.1Zm2.15-1.41,1.56-1a42.7,42.7,0,0,0,.56,6c-.52.15-1.2.38-1.95.66a31,31,0,0,0-.12-5.66Zm2.45,4.85c-.23-1.85-.44-4.14-.57-6.07.42-.27.85-.53,1.28-.78.13,2.09.34,4.59.67,6.51l-1.11.27Zm1.08-7.06c.55-.3,1.1-.59,1.66-.84.23,2.11.55,5,.82,7.08l-1.87.41a55.34,55.34,0,0,0-.56-6.65Zm2-1a14.071,14.071,0,0,1,1.36-.52l.28-.08a72.63,72.63,0,0,0,.84,7.3c-.55.17-1.11.31-1.67.45a41.321,41.321,0,0,0-.79-7.13Zm2-.68a6.33,6.33,0,0,1,1.84,0,37.16,37.16,0,0,0,.55,6.63,13.091,13.091,0,0,1-1.59.61c-.22-2.09-.53-4.94-.75-7.22Zm2.26.12a6,6,0,0,1,1.49.54c.11,1.62.2,3.28.45,4.86a6.76,6.76,0,0,1-1.45,1,37.06,37.06,0,0,0-.44-6.38ZM101.09,41.7v5a8.05,8.05,0,0,0-.92.67c-.06-.37-.12-.72-.15-1-.11-1.25,0-2.56-.2-3.8Zm.9,9.8c-1.07-1.17-.6-2.49.39-3.64,1.5-1.74,4.68-2.22,7.17-2.77.06.73.19,1.5.23,2.16a37.652,37.652,0,0,0,.48,5c-2.26.75-6.63,1.04-8.26-.75Zm15.42-11.2h0a15.44,15.44,0,0,0-.28-4.28c1.4.98,2,2.49.28,4.28Z" transform="translate(22.49 22.49)" fill="url(#a)"/></g></g></svg>