<svg width="798" height="520" viewBox="0 0 798 520" fill="none" xmlns="http://www.w3.org/2000/svg">
<g clip-path="url(#clip0_122_17)">
<path fill-rule="evenodd" clip-rule="evenodd" d="M-1 0C265.64 0 532.359 0 799 0C799 12.999 799 501.301 799 514.3C797.021 514.049 795.81 512.79 793.5 513.3C791.427 513.758 789.102 516.636 785.5 515.3C784.137 514.794 784.555 513.758 782.5 513.3C777.611 519.721 764.713 518.743 756 516.8C750.679 515.613 748.204 519.495 744 518.3C741.856 517.691 741.23 514.966 739 515.8C736.152 516.536 736.046 518.154 732 518.3C731.62 517.831 727.857 514.431 727.5 514.3C724.916 513.352 720.938 515.288 719 513.8C718.235 513.213 717.018 510.621 716.5 509.8C713.162 511.796 703.635 514.509 697.5 512.8C695.221 512.165 693.973 508.784 690.5 509.8C690 510.3 689.5 510.8 689 511.3C685.334 511.3 681.666 511.3 678 511.3C675.646 511.989 671.109 513.712 669 514.3C666.5 513.967 664 513.633 661.5 513.3C657.461 514.64 657.715 518.181 650.5 518.3C648.303 515.291 646.427 516.874 642 515.8C641.762 515.742 641.018 514.716 640.5 514.8C639.23 515.006 638.467 516.904 636 516.3C633.544 515.699 631.979 512.866 630 512.3C627.542 511.597 624.047 513.47 621.5 511.8C620.217 510.958 618.95 508.452 617.5 507.8C615.834 507.633 614.166 507.467 612.5 507.3C611.834 506.633 611.166 505.967 610.5 505.3C608.392 504.726 608.076 506.448 607 506.8C604.5 506.8 602 506.8 599.5 506.8C598.287 507.172 597.176 508.738 595 508.3C592.523 507.802 591.648 505.49 590 504.8C587.5 504.967 585 505.133 582.5 505.3C581.847 505.139 579.955 503.904 579.5 503.8C577.004 503.23 573.029 505.254 571.5 505.8C569.167 505.8 566.833 505.8 564.5 505.8C561.116 506.801 556.419 506.886 553 507.8C550 507.967 547 508.133 544 508.3C541.924 509.11 538.666 511.228 536.5 511.8C531.913 513.011 522.442 507.277 519 507.8C510.449 509.1 503.805 513.492 496 514.8C491.428 515.566 487.295 512.091 482 513.8C479.205 514.702 478.311 516.217 474 516.3C473.918 516.19 459.672 507.351 459.5 507.3C456.924 506.533 449.85 508.433 446 507.8C444.256 507.513 444.834 505.769 442.5 506.3C442 506.8 441.5 507.3 441 507.8C437 507.8 433 507.8 429 507.8C428.5 508.467 428 509.133 427.5 509.8C424.857 511.422 420.627 510.554 418 509.8C415.334 509.8 412.666 509.8 410 509.8C407.152 508.898 396.328 505.088 394 508.8C392.825 510.327 393.081 512.218 392.5 513.3C391.91 513.701 391.659 513.687 390.5 513.8C388.3 511.678 382.601 515.588 380.5 514.8C379.029 514.248 378.953 512.909 376 512.8C376 513.133 376 513.467 376 513.8C376.376 514.336 376.301 514.273 376.5 515.3C375.476 515.656 374.163 515.797 372.5 515.8C371.927 515.072 371.499 514.7 371 513.8C367.337 516.691 354.6 521.178 347 518.8C345.379 518.293 345.316 516.146 342.5 516.8C342.167 517.133 341.833 517.467 341.5 517.8C337.334 517.633 333.166 517.467 329 517.3C327.495 517.909 323.433 520.775 320 519.8C319.5 519.3 319 518.8 318.5 518.3C316 518.133 313.5 517.967 311 517.8C310.5 517.3 310 516.8 309.5 516.3C306.814 515.254 304.318 516.284 302 515.3C300.358 514.603 299.379 512.821 297.5 512.3C293.334 512.133 289.166 511.967 285 511.8C284.049 511.517 283.137 510.065 282.5 509.8C279.667 509.8 276.833 509.8 274 509.8C272.456 511.763 267.424 515.029 265 515.8C260 515.633 255 515.467 250 515.3C249.667 515.8 249.333 516.3 249 516.8C243.146 519.45 234.539 513.506 231 511.8C228.459 510.575 227.34 513.346 225 512.8C221.661 512.022 217.59 509.132 213.5 508.8C209.859 513.878 204.933 509.047 200 508.3C195.103 507.558 191.704 513.07 186 510.8C183.368 509.752 179.596 506.39 174.5 507.8C171.346 508.673 168.228 511.916 165 512.8C162.085 513.598 159.123 511.786 157 511.3C151.353 510.007 148.567 513.947 144 512.8C141.958 512.287 140.72 510.482 139 509.8C136.414 508.775 134.393 509.077 132 507.8C131.333 507.133 130.667 506.467 130 505.8C126 505.8 122 505.8 118 505.8C117.212 505.534 116.289 504.065 115.5 503.8C113.212 503.031 99.708 503.082 98 503.8C96.717 504.339 94.279 506.319 92.5 506.8C89.894 507.505 88.987 505.96 86.5 505.8C85.515 507.386 84.223 508.484 83 509.8C77.458 509.853 72.294 509.182 68 508.8C66.945 510.518 66.311 511.206 63.5 511.3C62.487 510.24 62.029 509.975 60 509.8C59.014 511.224 58.494 511.307 56 511.3C54.007 509.333 52.357 510.79 49 509.8C47.147 509.254 41.788 504.804 39 505.8C38.346 506.033 36.982 507.661 36 507.8C33.471 508.158 32.179 504.233 29 505.8C25.112 507.716 22.286 511.453 17 511.8C10.278 505.82 4.213 512.842 -1 513.8C-1 500.968 -1 12.832 -1 0Z" fill="#F5E5D1"/>
</g>
<defs>
<clipPath id="clip0_122_17">
<rect width="798" height="520" fill="white"/>
</clipPath>
</defs>
</svg>
