<svg width="798" height="520" viewBox="0 0 798 520" fill="none" xmlns="http://www.w3.org/2000/svg">
<g clip-path="url(#clip0_122_19)">
<path fill-rule="evenodd" clip-rule="evenodd" d="M799 520C532.36 520.001 265.641 520.001 -0.99996 520.001C-0.99996 507.002 -1 18.6995 -1 5.70051C0.978995 5.95151 2.19 7.21051 4.5 6.70051C6.573 6.24251 8.89799 3.36451 12.5 4.70051C13.863 5.20651 13.445 6.24251 15.5 6.70051C20.389 0.279513 33.287 1.25751 42 3.20051C47.321 4.38751 49.796 0.50551 54 1.70051C56.144 2.30951 56.77 5.03451 59 4.20051C61.848 3.4645 61.954 1.8465 66 1.7005C66.38 2.1695 70.143 5.5695 70.5 5.7005C73.084 6.6485 77.062 4.7125 79 6.2005C79.765 6.7875 80.982 9.3795 81.5 10.2005C84.838 8.2045 94.365 5.4915 100.5 7.2005C102.779 7.8355 104.027 11.2165 107.5 10.2005C108 9.7005 108.5 9.2005 109 8.7005C112.666 8.7005 116.334 8.7005 120 8.7005C122.354 8.0115 126.891 6.2885 129 5.7005C131.5 6.0335 134 6.3675 136.5 6.7005C140.539 5.3605 140.285 1.8195 147.5 1.7005C149.697 4.7095 151.573 3.1265 156 4.2005C156.238 4.2585 156.982 5.2845 157.5 5.2005C158.77 4.9945 159.533 3.0965 162 3.7005C164.456 4.3015 166.021 7.1345 168 7.7005C170.458 8.4035 173.953 6.5305 176.5 8.20049C177.783 9.04249 179.05 11.5485 180.5 12.2005C182.166 12.3675 183.834 12.5335 185.5 12.7005C186.166 13.3675 186.834 14.0335 187.5 14.7005C189.608 15.2745 189.924 13.5525 191 13.2005C193.5 13.2005 196 13.2005 198.5 13.2005C199.713 12.8285 200.824 11.2625 203 11.7005C205.477 12.1985 206.352 14.5105 208 15.2005C210.5 15.0335 213 14.8675 215.5 14.7005C216.153 14.8615 218.045 16.0965 218.5 16.2005C220.996 16.7705 224.971 14.7465 226.5 14.2005C228.833 14.2005 231.167 14.2005 233.5 14.2004C236.884 13.1994 241.581 13.1144 245 12.2004C248 12.0334 251 11.8674 254 11.7004C256.076 10.8904 259.334 8.77249 261.5 8.20049C266.087 6.98949 275.558 12.7234 279 12.2004C287.551 10.9004 294.195 6.50848 302 5.20048C306.572 4.43448 310.705 7.90948 316 6.20048C318.795 5.29848 319.689 3.78348 324 3.70048C324.082 3.81048 338.328 12.6494 338.5 12.7004C341.076 13.4674 348.15 11.5674 352 12.2004C353.744 12.4874 353.166 14.2314 355.5 13.7004C356 13.2004 356.5 12.7004 357 12.2004C361 12.2004 365 12.2004 369 12.2004C369.5 11.5334 370 10.8674 370.5 10.2004C373.143 8.57848 377.373 9.44648 380 10.2004C382.666 10.2004 385.334 10.2004 388 10.2004C390.848 11.1024 401.672 14.9124 404 11.2004C405.175 9.67347 404.919 7.78247 405.5 6.70047C406.09 6.29947 406.341 6.31347 407.5 6.20047C409.7 8.32247 415.399 4.41247 417.5 5.20047C418.971 5.75247 419.047 7.09147 422 7.20047C422 6.86747 422 6.53347 422 6.20047C421.624 5.66447 421.699 5.72747 421.5 4.70047C422.524 4.34447 423.837 4.20347 425.5 4.20047C426.073 4.92847 426.501 5.30047 427 6.20047C430.663 3.30947 443.4 -1.17753 451 1.20047C452.621 1.70747 452.684 3.85447 455.5 3.20047C455.833 2.86747 456.167 2.53347 456.5 2.20047C460.666 2.36747 464.834 2.53347 469 2.70047C470.505 2.09147 474.567 -0.774527 478 0.200473C478.5 0.700473 479 1.20047 479.5 1.70047C482 1.86747 484.5 2.03347 487 2.20047C487.5 2.70047 488 3.20047 488.5 3.70047C491.186 4.74647 493.682 3.71647 496 4.70047C497.642 5.39747 498.621 7.17947 500.5 7.70047C504.666 7.86747 508.834 8.03347 513 8.20047C513.951 8.48347 514.863 9.93547 515.5 10.2004C518.333 10.2004 521.167 10.2004 524 10.2004C525.544 8.23746 530.576 4.97146 533 4.20046C538 4.36746 543 4.53346 548 4.70046C548.333 4.20046 548.667 3.70046 549 3.20046C554.854 0.550466 563.461 6.49446 567 8.20046C569.541 9.42546 570.66 6.65446 573 7.20046C576.339 7.97846 580.41 10.8684 584.5 11.2004C588.141 6.12246 593.067 10.9534 598 11.7004C602.897 12.4424 606.296 6.93046 612 9.20046C614.632 10.2484 618.404 13.6104 623.5 12.2004C626.654 11.3274 629.772 8.08446 633 7.20046C635.915 6.40245 638.877 8.21445 641 8.70045C646.647 9.99345 649.433 6.05345 654 7.20045C656.042 7.71345 657.28 9.51845 659 10.2004C661.586 11.2254 663.607 10.9234 666 12.2004C666.667 12.8674 667.333 13.5334 668 14.2004C672 14.2004 676 14.2004 680 14.2004C680.788 14.4664 681.711 15.9354 682.5 16.2004C684.788 16.9694 698.292 16.9184 700 16.2004C701.283 15.6614 703.721 13.6814 705.5 13.2004C708.106 12.4954 709.013 14.0404 711.5 14.2004C712.485 12.6144 713.777 11.5164 715 10.2004C720.542 10.1474 725.706 10.8184 730 11.2004C731.055 9.48245 731.689 8.79445 734.5 8.70045C735.513 9.76045 735.971 10.0254 738 10.2004C738.986 8.77645 739.506 8.69345 742 8.70045C743.993 10.6674 745.643 9.21045 749 10.2004C750.853 10.7464 756.212 15.1964 759 14.2004C759.654 13.9674 761.018 12.3394 762 12.2004C764.529 11.8424 765.821 15.7674 769 14.2004C772.888 12.2844 775.714 8.54744 781 8.20044C787.722 14.1804 793.787 7.15844 799 6.20044C799 19.0324 799 507.168 799 520Z" fill="#F5E5D1"/>
</g>
<defs>
<clipPath id="clip0_122_19">
<rect width="798" height="520" fill="white"/>
</clipPath>
</defs>
</svg>
