<svg xmlns="http://www.w3.org/2000/svg" xmlns:xlink="http://www.w3.org/1999/xlink" viewBox="0 0 140.96 56.25"><defs><style>.cls-1{fill:url(#Degradado_sin_nombre_12);}</style><radialGradient id="Degradado_sin_nombre_12" cx="70.48" cy="28.12" r="53.66" gradientUnits="userSpaceOnUse"><stop offset="0" stop-color="#c9b27d" stop-opacity="0.8"/><stop offset="1" stop-color="#a08252"/><stop offset="1" stop-color="#745531"/></radialGradient></defs><g id="Layer_2" data-name="Layer 2"><g id="OBJECTS"><path class="cls-1" d="M124.34,26.85l.13.12c0,.1,0,.19,0,.29l-.3.16q-.27.1-.54.24l-.32.14c-.36.18-.73.35-1.07.56s-.79.47-1.21.67a8.64,8.64,0,0,1-1.4.5,23,23,0,0,1-2.91.74,11.8,11.8,0,0,1-3.19-.26c-.51-.09-1-.24-1.5-.38.28.17.56.35.84.51a4.87,4.87,0,0,0,1.59.38,12.85,12.85,0,0,1,3.27.87c.55.22,1.1.44,1.64.69a11.88,11.88,0,0,1,2.76,1.79,8.77,8.77,0,0,1,1.39,1.4,6.75,6.75,0,0,1,.93,1.37l.05.09c0,.08.07.15.1.23a18.1,18.1,0,0,1,3.56,1.17l.09.06a12.06,12.06,0,0,1,2.73,1.6.87.87,0,0,1,.28.5.54.54,0,0,1-.47.14,13.91,13.91,0,0,1-2.22-.85l-1.78-.86a12.47,12.47,0,0,1-1.14-.61l0,0c.2.17.41.31.6.5s.49.38.7.62.69.59,1,.93a17.23,17.23,0,0,1,1.25,1.31,1.58,1.58,0,0,0,.37.36,22.77,22.77,0,0,1,2.8,1,9.62,9.62,0,0,1,3.24,2.17,1.27,1.27,0,0,1,.25.49.88.88,0,0,0-.05.15,1.23,1.23,0,0,1-.82-.14c-.81-.4-1.6-.83-2.39-1.28L132.1,44c-.4-.22-.8-.45-1.19-.69l-.2-.11c.3.29.55.63.83.93.49.6,1,1.18,1.48,1.78a1.41,1.41,0,0,0,.39.34,21.51,21.51,0,0,1,2.88,1.63,18.93,18.93,0,0,1,1.86,1.37,17,17,0,0,1,1.27,1.28.81.81,0,0,1,.2.55.6.6,0,0,1-.49,0c-.47-.27-.91-.59-1.36-.89-.73-.52-1.48-1-2.22-1.51a3,3,0,0,0-.62-.38,5.23,5.23,0,0,0,.64.69,8.31,8.31,0,0,1,.68.65c.21.21.46.37.66.58L138.7,52a12.22,12.22,0,0,1,2.26,4.2l-.11.1a.66.66,0,0,1-.28,0A15.74,15.74,0,0,1,139.44,55c-.85-1-1.57-2.1-2.35-3.15s-1.52-2.12-2.29-3.17l-.14-.16c.14.35.36.66.49,1l.06.1a8.57,8.57,0,0,1,.69,2.15l-.11.11c-.39-.06-.57-.48-.77-.78-.77-1.39-1.33-2.89-2-4.32a.93.93,0,0,1-.05-.1,8.43,8.43,0,0,0-.93-1.44c-.25-.24-.45-.53-.7-.78a2.45,2.45,0,0,0-.58-.62,8.76,8.76,0,0,1,1.34,3.39.55.55,0,0,1-.4,0c-.25-.4-.53-.78-.77-1.18-.62-1-1.14-2-1.73-3.05-.12-.22-.26-.43-.38-.64l-.24-.37c-.35-.54-.72-1.06-1.12-1.57l0,0a12.18,12.18,0,0,1,1,2.33l-.24.13a1.06,1.06,0,0,1-.47-.3c-.88-1.09-1.69-2.22-2.57-3.31-.2-.21-.31-.53-.61-.62s-.71-.27-1-.43L123,38c-.5-.28-1-.56-1.46-.87s-1.07-.66-1.6-1-1.12-.82-1.71-1.19c-1-.71-2.08-1.4-3.15-2,.27.38.56.76.81,1.16a2.88,2.88,0,0,0,.52.58h.18c.23.13.42.33.66.44a25.71,25.71,0,0,1,4.32,2.83,18.74,18.74,0,0,1,2.14,1.94,2.38,2.38,0,0,1,.66,1.2l-.14.14a1.37,1.37,0,0,1-.49-.09A12.56,12.56,0,0,1,122,39.88c-.66-.57-1.34-1.12-2-1.71-.27-.18-.47-.44-.74-.63s-.31-.3-.47-.44c-.41-.3-.75-.69-1.17-1,.88,1,1.69,2.13,2.49,3.24.16.23.33.46.48.71l0-.17a5,5,0,0,0,.31.66c.24.35.48.71.7,1.08l.35.15A13.44,13.44,0,0,1,123.86,43c.76.53,1.47,1.12,2.17,1.72a13.41,13.41,0,0,1,2.21,2.49,1.15,1.15,0,0,1,.14.55.72.72,0,0,1-.48,0,13.74,13.74,0,0,1-2-1.69c-.48-.4-.86-.91-1.37-1.28-.65-.64-1.39-1.18-2.06-1.79.38.65.75,1.31,1.09,2a3.41,3.41,0,0,0,.43.57c.29.13.36.46.57.68a28.84,28.84,0,0,1,3.5,5.55,8.54,8.54,0,0,1,.88,2.59.64.64,0,0,1-.09.47c-.18.12-.37,0-.54-.08a28.19,28.19,0,0,1-2-3.37,2.71,2.71,0,0,0-.23-.41c0,.15.07.3.11.45a8.64,8.64,0,0,1,.42,2,2.05,2.05,0,0,1-.23,1.08.55.55,0,0,1-.41.22c-.24,0-.43-.19-.56-.37A6.35,6.35,0,0,1,125,53a24.32,24.32,0,0,1-.72-3.26,24.32,24.32,0,0,0-.93-4.47,9.83,9.83,0,0,0-.69-1.28,12.74,12.74,0,0,1,.63,3,1.73,1.73,0,0,1-.16.78.41.41,0,0,1-.49.19c-.3-.1-.36-.44-.45-.7-.25-.91-.45-1.84-.7-2.76a24.29,24.29,0,0,1-.7-3.37.66.66,0,0,0-.13-.36c-.57-.82-1.13-1.65-1.76-2.44.17.38.38.75.56,1.12a13.37,13.37,0,0,1,.53,1.37,3.06,3.06,0,0,1,.19,1.55.42.42,0,0,1-.72.08,6,6,0,0,1-.59-1.28,15.67,15.67,0,0,0-.83-2.09c-.05-.11-.09-.22-.14-.32s-.24-.49-.35-.74-.36-.73-.54-1.09-.52-1-.8-1.54c-.13-.25-.28-.5-.41-.75l-.28-.14.07-.09c-.38-.37-.74-.76-1.13-1.11-.26-.18-.46-.43-.71-.6a12.14,12.14,0,0,1,2,3,9.24,9.24,0,0,1,.56,1.52c0,.15.09.37-.09.45s-.54-.07-.75-.22a3.1,3.1,0,0,1-.58-.62,11.59,11.59,0,0,1-1.1-1.82c0,.26,0,.52.06.78a16.9,16.9,0,0,1-.22,2.13,4.32,4.32,0,0,1-1.22,2.34c-.8.8-1.59,1.61-2.45,2.35-.32.25-.68.45-1,.68-.14.12-.32,0-.48,0a12.74,12.74,0,0,0-.24-1.83,37.41,37.41,0,0,1-.82-4.69,5.17,5.17,0,0,1,.2-1.29,8,8,0,0,1,1.06-1.83,11.06,11.06,0,0,0,.71-1.62,3.48,3.48,0,0,0,.24-1,4,4,0,0,0-.17-1c0-.23-.27-.3-.41-.44a1.84,1.84,0,0,1-.17,1.52,6.46,6.46,0,0,1-.74.83c-.4.51-.74,1.06-1.11,1.59a16.37,16.37,0,0,1-1.1,1.39c-.34.31-.59.71-.94,1a4.19,4.19,0,0,1-1.27.86,2.81,2.81,0,0,1-1.79,0A10.82,10.82,0,0,1,99,35.55c-.55-.32-1.1-.65-1.64-1a3.17,3.17,0,0,1-.39-.34.76.76,0,0,1,.35-.36,6.91,6.91,0,0,0,.79,0,.94.94,0,0,0,.49-.31l-.23,0a8.07,8.07,0,0,1-1.51-.42c-.67-.25-1.33-.54-2-.82l-.1,0-.33-.14-.09-.06c-.37-.14-.71-.34-1.07-.48L93,31.45l-.64-.29a11.64,11.64,0,0,1,1.14,1.08l1.94,1.94c.13.12.2.3.36.38a28.21,28.21,0,0,1,3,1.55A16.62,16.62,0,0,1,101,37.74l1.33,1.32a.82.82,0,0,1,.26.56.58.58,0,0,1-.53,0c-.8-.58-1.62-1.12-2.46-1.63l-.43-.27c-.51-.33-1-.64-1.52-1a3,3,0,0,0,.41.59c.62.81,1.21,1.64,1.78,2.49a2.79,2.79,0,0,0,.43.59,1.82,1.82,0,0,0,.54.27l.48.22a18,18,0,0,1,3.1,2,9.12,9.12,0,0,1,2,2.16c0,.17.19.45,0,.53a1.44,1.44,0,0,1-.82-.33c-1.35-.9-2.62-1.91-3.88-2.94a1.45,1.45,0,0,0-.52-.4c.12.19.23.39.33.59a.7.7,0,0,0,0-.14,3.1,3.1,0,0,1,.23.6c.31.61.63,1.21.9,1.83a.88.88,0,0,0,.28.38c.86.6,1.69,1.26,2.51,1.92.26.26.57.46.82.73a14.18,14.18,0,0,1,1.41,1.59,2.74,2.74,0,0,1,.65,1.25l-.14.14a2.78,2.78,0,0,1-1.25-.5,6.85,6.85,0,0,1-1.32-1,2.15,2.15,0,0,1,.14.26,32.78,32.78,0,0,1,1.62,2.89c.2.45.39.91.56,1.37a3.65,3.65,0,0,1,.27,1.26l-.13.12a.72.72,0,0,1-.55-.13,4.67,4.67,0,0,1-.67-.93,14.32,14.32,0,0,1-.65-1.3c-.18-.36-.34-.74-.52-1.11l-.14-.32c-.37-.76-.75-1.52-1.15-2.27.09.54.11,1.1.15,1.65a6.52,6.52,0,0,1-.09,1.17c0,.18-.17.27-.31.34s-.33-.09-.4-.25a8.71,8.71,0,0,1-.51-1.37c-.13-.53-.35-1-.48-1.55-.32-1-.59-2-.82-3.07-.14-.76-.25-1.53-.33-2.3a1.81,1.81,0,0,0-.29-.57c.07.39.22.76.26,1.16a5.28,5.28,0,0,1-.08,1.94,1.72,1.72,0,0,1-.45,1c-.2,0-.45,0-.54-.22a5.41,5.41,0,0,1-.17-1.14c-.1-1.15-.3-2.28-.51-3.42a18,18,0,0,0-.44-1.9c-.17-.31-.15-.7-.36-1-.76-1.13-1.58-2.21-2.44-3.27l0,0c.1.18.18.36.27.55a18.55,18.55,0,0,1,1.06,2.95,3.2,3.2,0,0,1,0,1.76c0,.2-.28.12-.43.14a1.15,1.15,0,0,1-.37-.5c-.22-.52-.41-1.06-.62-1.58a30.71,30.71,0,0,1-1.1-3.23c-.12-.51-.26-1-.4-1.51,0-.18-.22-.28-.32-.42a.81.81,0,0,1,.07-.22,15.69,15.69,0,0,0-1.37-1.46,5.22,5.22,0,0,0-.93-.83,17.9,17.9,0,0,1,1.55,2.85,4,4,0,0,1,.36,1.83c0,.16-.06.37-.24.42s-.27,0-.4-.06l-.5-.82c-.07-.13-.15-.26-.23-.39l-.27-.44-.39-.68c-.36-.64-.72-1.27-1-1.92a1,1,0,0,0-.47-.58,5.87,5.87,0,0,1-.94-.62,12.07,12.07,0,0,1-1.43-1.34,3.77,3.77,0,0,1-.51,1.44c-.21.4-.51.74-.74,1.13l-.38-.2c0-.28,0-.57,0-.86a3.28,3.28,0,0,1-1.09,1.16,18.85,18.85,0,0,1-1.91.81c-.17.09-.32-.09-.45-.18.07-.3.11-.62.18-.93l-.31-.27a4.31,4.31,0,0,0,.15-.86,4.76,4.76,0,0,1,.07-.66l-.1,0a5.48,5.48,0,0,1-3.48,1.52,19.86,19.86,0,0,1,2.86,1.29,1.52,1.52,0,0,1,.61.62c.09.19-.09.36-.23.46a2,2,0,0,1-1.16.13,21,21,0,0,1-3.1-.86c-1.22-.35-2.42-.79-3.6-1.24,0,.14,0,.28,0,.42.47.43,1,.78,1.47,1.2.26.17.45.46.77.53,1,.19,2,.49,3,.76,1.15.33,2.28.7,3.39,1.12A17.7,17.7,0,0,1,86.41,38a2.86,2.86,0,0,1,1,.85,1.09,1.09,0,0,0,0,.18c-.32.22-.72.08-1.08.06a12.49,12.49,0,0,1-3.26-.59,24.34,24.34,0,0,1-2.44-1.11l-.52-.26c.23.25.42.54.67.77s.25.39.46.48a15,15,0,0,1,3,1.94c.29.25.6.48.87.76a6.25,6.25,0,0,1,1.13,1.11,9.73,9.73,0,0,1,1.2,1.64A5.52,5.52,0,0,1,88,44.93a.73.73,0,0,1-.44.17c-.49-.35-.92-.78-1.39-1.16-.27-.25-.51-.53-.79-.77A12.83,12.83,0,0,1,84.19,42a16.67,16.67,0,0,0-1.43-1.36,10.27,10.27,0,0,1-1-1.07c-.24-.3-.56-.52-.77-.83a1.71,1.71,0,0,0-.48-.4,6.85,6.85,0,0,0-1.2-.88c.24.45.56.85.81,1.29a14.37,14.37,0,0,1,1.55,3A6.07,6.07,0,0,1,82,43.56c0,.21,0,.48-.21.61a.88.88,0,0,1-.39.08,1.78,1.78,0,0,1-.63-.8c-.31-.73-.6-1.47-.92-2.19a.33.33,0,0,0-.06-.1c0-.11-.09-.22-.14-.33-.17-.32-.3-.67-.48-1L79,39.51c-.37-.76-.66-1.55-1-2.32-.14-.28-.26-.57-.39-.86a2.68,2.68,0,0,0-1-1.08c-.24-.23-.51-.42-.75-.65a8.42,8.42,0,0,1-.77-.69.78.78,0,0,0,.09.21A10.1,10.1,0,0,1,77,37.27,10.22,10.22,0,0,1,77.55,39a2.46,2.46,0,0,1-.13,1.67.49.49,0,0,1-.73,0,6.32,6.32,0,0,1-.65-1,34.18,34.18,0,0,1-1.65-3.18c-.1,0-.23,0-.28-.16A15.09,15.09,0,0,0,73,34.75a12.53,12.53,0,0,0-1-1.16,8.31,8.31,0,0,0-.93-.86A10.26,10.26,0,0,0,70.2,32c.28.49.53,1,.78,1.48a21.8,21.8,0,0,1,1.26,3.32,3.43,3.43,0,0,1,.11.46c0,.13-.08.25-.14.36A1.57,1.57,0,0,1,71.6,37c-.36-.52-.68-1.06-1-1.59-.7-1.16-1.4-2.32-2.07-3.5-.53-1-1.1-1.89-1.59-2.87-.15-.24-.39-.42-.56-.64a4.41,4.41,0,0,0-.78-.4l-.29.43a23.16,23.16,0,0,1,2.18,3.65l.06.09a9.71,9.71,0,0,1,.59,1.72,1.47,1.47,0,0,1,0,.59c-.07.09-.09.23-.21.24a.85.85,0,0,1-.71-.32,5.06,5.06,0,0,1-.85-1.14c-.73-1.27-1.35-2.61-2.1-3.88a.88.88,0,0,1-.51.35,1.44,1.44,0,0,1-.41-.15,7.59,7.59,0,0,1-1.09-.67,17,17,0,0,1,1.55,2.41,4,4,0,0,1,.36,1,.58.58,0,0,1-.14.43c-.44-.11-.66-.53-.93-.86-.9-1.17-1.83-2.33-2.79-3.45a10.33,10.33,0,0,0-.7-.77,23,23,0,0,0-1.75-1.81,7.21,7.21,0,0,1-.77.3c.22.27.54.44.77.69a8,8,0,0,1,1.52,2.09A5.79,5.79,0,0,1,59.73,30a.87.87,0,0,1,0,.55c0,.16-.24.06-.36.06-1.05-.81-2.06-1.69-3.06-2.56-.24-.17-.42-.41-.66-.58s-.5-.5-.79-.7-.36-.33-.54-.49a21.88,21.88,0,0,0-1.77-1.41,13.63,13.63,0,0,0-2.1-1.12,2.46,2.46,0,0,1-.56-.34,2.26,2.26,0,0,0-.81-.3,6.92,6.92,0,0,0-1.28-.26c-.67,0-1.34-.1-2-.08a3.43,3.43,0,0,1-.64,0s0,.06,0,.09A10.35,10.35,0,0,1,49,24.29,34.81,34.81,0,0,1,52.79,27,14.59,14.59,0,0,1,54,28.09a.69.69,0,0,1-.15.31,3,3,0,0,1-.67-.19,15.7,15.7,0,0,1-3.06-1.55,21.39,21.39,0,0,0,.9,2.1c.08.19.13.39.23.58s.44.15.65.24a10.33,10.33,0,0,0,1.6.61,14.41,14.41,0,0,1,2,.55c.8.31,1.67.4,2.46.75.35.18.63.47,1,.63a4.61,4.61,0,0,1,1.32.9,8.83,8.83,0,0,0,1,1,7.34,7.34,0,0,1,1.2,1.57,2.29,2.29,0,0,1,.62-.22,12,12,0,0,1,1.2-.17,4.25,4.25,0,0,1,2.1.49,1.64,1.64,0,0,0,.62.09,8.11,8.11,0,0,1,3.08.86c.66.31,1.32.64,2,1a18.08,18.08,0,0,1,2.56,1.79,2,2,0,0,1,.7.81l-.19.19c-.39-.26-.7-.6-1.1-.83a3,3,0,0,0-1.08-.41,7.52,7.52,0,0,1,1.59,2.53,4.82,4.82,0,0,1,.32,1.55c0,.13-.09.35-.24.28s-.29-.19-.44-.27A12.73,12.73,0,0,1,72.44,42c.15.66.25,1.33.38,2A6.74,6.74,0,0,1,73,45l-.18.19c-.26-.1-.35-.38-.55-.55a1,1,0,0,0-.74-.21,2.84,2.84,0,0,1-1.37-.28l-.09-.06-.15-.05v0a4.88,4.88,0,0,1,.67,2.77,1.05,1.05,0,0,1-.13.49.65.65,0,0,1-.19,0,16.4,16.4,0,0,1-1.67-1.2c-.34-.32-.66-.66-1-1a4.34,4.34,0,0,1-.24.72,2.83,2.83,0,0,1-.55.81c-.25.22-.39.55-.7.71-.25-.14-.34-.41-.49-.62-.36-.43-.74-.83-1.08-1.28A7.64,7.64,0,0,1,64,47.92a3.23,3.23,0,0,1,.27.44l-.22.21-.34,0a2.44,2.44,0,0,1-.1.24,6,6,0,0,1-.46.82l-.25-.1a3.43,3.43,0,0,1-.31-.56c-.12-.27-.24-.53-.35-.79a24.59,24.59,0,0,1-3-1.15l-1.11-.53a1,1,0,0,1-.9,0,4.09,4.09,0,0,0,1.2.81,14.18,14.18,0,0,1,2.64,1.93c.47.49,1,1,1.43,1.45.27.36.65.71.66,1.19,0,.15-.14.2-.26.21s-.46-.17-.66-.3c-.85-.7-1.78-1.31-2.61-2l-1.75-1.75c-.17-.16-.29-.37-.46-.54a7.12,7.12,0,0,1-.66-.69,2.83,2.83,0,0,1-.52-.39l0,.15c.29.48.53,1,.78,1.48l.44.88a6,6,0,0,1,.59,1.79A3.31,3.31,0,0,1,58,52c-.07.2-.14.49-.41.51s-.33-.14-.41-.29c-.78-1.47-1.09-3.14-1.81-4.64,0-.11-.1-.22-.14-.33-.34-.81-.74-1.6-1-2.43a.62.62,0,0,0-.17-.27c-.52-.42-1.07-.79-1.6-1.19l.24.41a9.81,9.81,0,0,1,1.09,2.76c.11.48.19,1,.28,1.47A3.23,3.23,0,0,1,54,49a.44.44,0,0,1-.62,0,8,8,0,0,1-.9-1.26c-.07-.13-.15-.26-.23-.39l-.08-.13-.12-.2c-.43-.72-.84-1.46-1.21-2.21,0-.11-.1-.22-.14-.33a2.1,2.1,0,0,1-.13-.26c-.21-.48-.44-1-.62-1.44s-.33-1-.49-1.48a20.36,20.36,0,0,1-2-1.18,5.89,5.89,0,0,0-.55.44c.25.39.51.77.75,1.16a5.41,5.41,0,0,1,.69,1.53,1.3,1.3,0,0,1,0,.78c-.21.09-.48.22-.68,0a7.45,7.45,0,0,1-.78-1.12c-.82-1.33-1.88-2.5-2.72-3.82a2,2,0,0,1-.11-.2c-.23-.37-.44-.77-.65-1.16-.11-.24-.4-.32-.6-.48l-.29,0-.1.09-.09-.1a1.22,1.22,0,0,1,.33-.14L42.4,37c-.23-.14-.45-.29-.69-.42l-.13-.11a3.68,3.68,0,0,1-.31.38,22.76,22.76,0,0,1,3.06,4.46,4.57,4.57,0,0,1,.48,1.2.54.54,0,0,1-.18.48c-.56-.13-.87-.67-1.18-1.1-.89-1.37-1.79-2.74-2.7-4.09a12.58,12.58,0,0,1-1,1.69,7.27,7.27,0,0,1-.61.74,7.85,7.85,0,0,1-.79.84c-.32.22-.57.6-1,.63-.13-.09-.29-.15-.35-.3a8.41,8.41,0,0,1-.26-2.69c-.18-.3-.46-.52-.67-.81s-.36-.37-.51-.58-.49-.48-.69-.75a10.77,10.77,0,0,0-.87-.92c-.16-.17-.37-.3-.54-.46a8.56,8.56,0,0,0-1.1-.89A27.31,27.31,0,0,0,30,32.9l-.75-.42a3.37,3.37,0,0,0-1-.25,13.69,13.69,0,0,0-1.55-.2,15.81,15.81,0,0,1,3.29,1.51,13.14,13.14,0,0,1,2.57,2,12.23,12.23,0,0,1,2.31,3.17l.09.23c0,.1-.07.19-.1.29a1.14,1.14,0,0,1-.35-.13,31.4,31.4,0,0,1-3.24-2.27c-1.45-1.12-2.83-2.34-4.37-3.35-.66-.38-1.29-.8-1.95-1.18l-.32,0a4,4,0,0,0-.81-.32,1.69,1.69,0,0,0-.74,0c-.25,0-.49,0-.74.05a2.63,2.63,0,0,0-.68.08c.41.19.88.24,1.3.42s.78.3,1.16.47a14.71,14.71,0,0,1,3.12,1.92,10.2,10.2,0,0,1,1.56,1.52c.26.33.64.66.61,1.12l-.26.18c.6,1,1.34,1.87,1.93,2.86a11.09,11.09,0,0,1,1,3.15,6.52,6.52,0,0,1,.3,1.7.84.84,0,0,1-.61.21,1.38,1.38,0,0,0-.31-.63l-.71-.7A21.08,21.08,0,0,1,29,42.57c-1-.83-2-1.58-3-2.4a15.41,15.41,0,0,1-1.76-1.94,16.62,16.62,0,0,1-1.19-2.14.8.8,0,0,0-.08-.16,2.87,2.87,0,0,0-.43-.62l-.74-.73a8.81,8.81,0,0,0-.94-.66l-.49-.28c-.23-.09-.46-.18-.7-.25a7.45,7.45,0,0,1,1.56,1.46,5.16,5.16,0,0,1,1,1.43,4.88,4.88,0,0,1,.32,1.56c0,.93.3,1.83.34,2.76A4.85,4.85,0,0,1,21.45,44c-.53.45-1.07.89-1.61,1.33s-.83.84-1.25,1.24a14.44,14.44,0,0,1-1.71,1.32,1.83,1.83,0,0,1-.95.23l-.07-.08a6.56,6.56,0,0,1,0-.76c.1-.36.4-.62.51-1a3.09,3.09,0,0,0,.1-1.09,3.74,3.74,0,0,0-.25-1.44,9.37,9.37,0,0,1-.45-1.48,4.3,4.3,0,0,1,.42-2.44c.24-.56.5-1.11.79-1.64a9.48,9.48,0,0,0,.9-2L18.17,35A1.31,1.31,0,0,0,18,34c-.14-.25-.22-.53-.38-.77a1.21,1.21,0,0,0-.4-.34,2.9,2.9,0,0,0-1.33.25c-.47.23-.92.51-1.37.77v-.13a9.3,9.3,0,0,1-1,.84c-.72.54-1.42,1.1-2.09,1.71-.47.33-.8.81-1.25,1.15s-.55.56-.85.8a8.8,8.8,0,0,0-1,.94,8.33,8.33,0,0,0-.82.86c-.17.23-.41.41-.58.65L4.72,43.5c-.86,1.09-1.66,2.22-2.47,3.34a10.06,10.06,0,0,1-.67.94.57.57,0,0,1-.38.14L.81,47.7l-.4-.4c-.13-.22-.34-.39-.39-.65a.61.61,0,0,1,0-.42c.25-.37.58-.66.82-1,.75-1.09,1.39-2.26,2.18-3.33.32-.45.69-.86,1-1.29l1.51-1.52c.23-.24.52-.4.74-.65s.56-.47.81-.74c.85-.74,1.74-1.44,2.63-2.12,1.18-.93,2.35-1.86,3.61-2.68.6-.4,1.24-.73,1.84-1.13l0-.1a13,13,0,0,1,1.72-1c.61-.28,1.23-.52,1.84-.8l.1,0,.64-.3c1-.51,2.05-1,3.1-1.49a30.69,30.69,0,0,1,4.41-1.9,5.21,5.21,0,0,1,.56-.77,6,6,0,0,1,.7-.63,8,8,0,0,1-1.68-1,10.52,10.52,0,0,1-1.55-1.43,2.18,2.18,0,0,1-.66-1.46,7.14,7.14,0,0,1,1-.57,8.17,8.17,0,0,1,3.07-1.25,6,6,0,0,1,1,0,.6.6,0,0,1,.05-.63,17.34,17.34,0,0,1,2.87.29,5.64,5.64,0,0,1,.2-2.48,2.12,2.12,0,0,0,0-.87l.09-.1a3.13,3.13,0,0,1,1.56.7c.63.48,1.25,1,1.85,1.48a3,3,0,0,1,.68.81l.2-.2a12.85,12.85,0,0,0-2.28-3.23c-.26-.34-.62-.58-.91-.89A16.58,16.58,0,0,0,31.36,12l-.78-.46a6.68,6.68,0,0,1-1.08-.82,4.54,4.54,0,0,1-.66-.73c-.13-.21-.24-.42-.35-.63s-.19-.42-.31-.62a5.24,5.24,0,0,0-.94-.88,3.39,3.39,0,0,1,.11-.43l.06-.06c.31-.09.64-.12,1-.18,1-.15,2-.27,3-.41a8.13,8.13,0,0,1,3.26,0,11.78,11.78,0,0,1,2,.79,5.21,5.21,0,0,1,1.55,1.08,4.21,4.21,0,0,1,.74.94,1.28,1.28,0,0,1,.11.2l.12.19c.33.57.63,1.16,1,1.73.09.15.18.29.26.45l.09.13a5.6,5.6,0,0,1,.87,2.06,3.24,3.24,0,0,1-.51,1.91c-.45.84-1,1.63-1.48,2.46l-.09.13c.15,0,.31-.07.47-.09a7.3,7.3,0,0,1,.75-.83,16.37,16.37,0,0,0,1.1-1.39,13.18,13.18,0,0,0,1.77-3.2c.38-1.14.72-2.3,1.19-3.42a14,14,0,0,1,3.22-4.82,15.36,15.36,0,0,1,3.19-2.29l1.75-1c.46-.26.9-.55,1.34-.85l.21.1c0,.1.08.2.11.29-.18.13-.37.25-.54.38a1.35,1.35,0,0,0-.4,1c0,.74.25,1.47.22,2.21a11,11,0,0,1-.27,1.52,9.71,9.71,0,0,1-.73,2.21,8.64,8.64,0,0,1-.93,1.39,10.92,10.92,0,0,1-.77.89,7.8,7.8,0,0,1-.52,2.33c.61,0,1.22,0,1.83.08.15-.82.29-1.63.52-2.43a22.36,22.36,0,0,1,2.8-6.41c.18-.24.34-.49.54-.71a.43.43,0,0,1,.54-.07,1.36,1.36,0,0,1-.1.77c-.21.65-.43,1.3-.64,1.94-.63,1.78-1.38,3.5-2.17,5.2-.21.53-.51,1-.72,1.54.5-.45,1.06-.83,1.57-1.26.14-.2.24-.41.37-.61s.27-.44.37-.67c.45-1.07.9-2.13,1.37-3.18.05-.11.1-.22.14-.33a.88.88,0,0,0,.06-.1c0-.11.09-.21.14-.32a24.21,24.21,0,0,1,1.89-3.37,2.16,2.16,0,0,1,.56-.64c.16-.11.33,0,.46.09a7.77,7.77,0,0,1-.66,1.82c-.46,1-1,1.94-1.51,2.88-.71,1.26-1.55,2.45-2.3,3.69a1.6,1.6,0,0,0,.38-.26c.95-.77,1.91-1.51,2.89-2.24a2.23,2.23,0,0,0,.5-.42c.15-.22.31-.45.45-.68s.09-.22.13-.33.09-.18.14-.26c.35-.77.77-1.5,1.19-2.23A35,35,0,0,1,64,.46,1.27,1.27,0,0,1,64.44,0c.09,0,.2,0,.27.11a1.07,1.07,0,0,1-.06.47A8.35,8.35,0,0,1,64,1.94a26.06,26.06,0,0,1-2,3.18c-.62.85-1.26,1.68-1.87,2.55.81-.58,1.61-1.17,2.42-1.74.25-.15.38-.42.57-.62s.5-.53.73-.82c.35-.45.84-.77,1.22-1.19s.65-.54.93-.86A14,14,0,0,1,69,.33,2.46,2.46,0,0,1,70.57.1a.91.91,0,0,1-.07.43,4.84,4.84,0,0,1-.77.86c-1.58,1.36-3.4,2.38-5,3.66-.34.28-.66.58-1,.85.6-.28,1.2-.6,1.81-.86a18.41,18.41,0,0,1,6.14-1.48A2.68,2.68,0,0,1,73,3.68c.15.08.08.26.06.39a1.63,1.63,0,0,1-.91.74,8.49,8.49,0,0,1-1.85.46,9.86,9.86,0,0,1,1.42,1.24,3.82,3.82,0,0,1,.79,1,2.84,2.84,0,0,1,.21,1.6,14.6,14.6,0,0,1-.19,1.48,6.35,6.35,0,0,1-.41,1.61l.32-.2a18.28,18.28,0,0,1,3-1.73c.81-.37,1.62-.74,2.45-1.07a23.16,23.16,0,0,0,2.67-1.12A2.09,2.09,0,0,1,80.92,8a1.82,1.82,0,0,1,.14.39,1,1,0,0,1-.12.48A10.8,10.8,0,0,1,80,10.16a4.63,4.63,0,0,0-.74,1.34c-.1.05-.2.1-.23.21-.17.41-.29.85-.44,1.28a6.21,6.21,0,0,1-.29.86,5.21,5.21,0,0,1-1,1.36A7.91,7.91,0,0,1,74,16.92a18.2,18.2,0,0,1-2.85.46,5.54,5.54,0,0,1,.77.58,9.46,9.46,0,0,0,.8.75c1.15.61,2.32,1.19,3.49,1.75l.33.14c.33.15.67.28,1,.42a1.17,1.17,0,0,1-.1-.26,5.08,5.08,0,0,1,.79-.59,15.93,15.93,0,0,1-1.14-1.79A3.43,3.43,0,0,1,76.63,17a.59.59,0,0,1,.54-.58c.5-.07,1-.09,1.51-.15a16.17,16.17,0,0,1,1.7-.11,5.3,5.3,0,0,1,2.65.61,3.8,3.8,0,0,1,.94.66,10.4,10.4,0,0,1,.94-2.41,14.71,14.71,0,0,1,.88-1.34l-.09,0a3,3,0,0,1,.84-.65,3.59,3.59,0,0,1,.54-2.22,2.62,2.62,0,0,1,.18-.56c.13-.31.14-.65.24-1a2,2,0,0,0,.17-.62,1.78,1.78,0,0,0-.27-.85,1.67,1.67,0,0,1,0-.59,2.62,2.62,0,0,1,.28-.3,2.07,2.07,0,0,0,.5,0,.9.9,0,0,0,.6.44l-.08.08c.29.32.75.48,1,.88a3.71,3.71,0,0,0,.85,1,3.49,3.49,0,0,1,.81.52,8.28,8.28,0,0,0,.84.71,5.32,5.32,0,0,0,.55.61,6.13,6.13,0,0,1,.89,1.36,4.13,4.13,0,0,1,.3,1.16,8.43,8.43,0,0,1,0,1.59,15.62,15.62,0,0,1-.59,2.45,5,5,0,0,0-.26,2.2,1.63,1.63,0,0,0,.82-.07c.11,0,.24-.11.36-.05a.82.82,0,0,1,.06.41,5.59,5.59,0,0,1-.68,1.88c-.28.59-.59,1.17-.9,1.74a5.15,5.15,0,0,1-.53.61A8.77,8.77,0,0,1,94,26.25a7.2,7.2,0,0,0,2.07-.14A17.92,17.92,0,0,0,98,25.75a4.6,4.6,0,0,0,1.28-.52,11.92,11.92,0,0,1-1.11-.91,4.21,4.21,0,0,1-1.06-1.91,2.39,2.39,0,0,0-.52-.81,8,8,0,0,1-1.06-2.23,21.26,21.26,0,0,1-1-5.23,6.27,6.27,0,0,1,.06-1.37c0-.17.22-.15.36-.15a2.59,2.59,0,0,1,0,.62,3.55,3.55,0,0,0,.46,1.84,7.61,7.61,0,0,1,.4-1.76A5.31,5.31,0,0,1,97.37,11c.08-.08.3-.16.34,0a13.21,13.21,0,0,1,.22,2.66c.52-.7,1.12-1.34,1.62-2.07a2,2,0,0,1,.28-.3l.24,0a.66.66,0,0,1,0,.31,1,1,0,0,0,0,.86c.17.28.43.49.59.78a3.59,3.59,0,0,1,.39,1,5,5,0,0,1,1.69-2.35.94.94,0,0,1,.46-.22.5.5,0,0,1,.18.4c.07.46.1.93.13,1.4a15,15,0,0,1-.08,1.77,3.9,3.9,0,0,1,1.24-.39c.29-.06.58,0,.87,0a1.3,1.3,0,0,1,.55.06c0,.07,0,.15,0,.22A3.91,3.91,0,0,0,106,16c0,.23-.09.46-.1.7a5.39,5.39,0,0,1-.12.68A7.62,7.62,0,0,1,108,16.17a7.85,7.85,0,0,1,1.79-.46c.15.31-.06.61-.17.89a9.22,9.22,0,0,1-1,1.79c-.3.4-.69.72-1,1.09a1.63,1.63,0,0,1,.66,0,2.53,2.53,0,0,1,1.15.82,6.42,6.42,0,0,0,1.46,1.34c.16.12.41.26.37.5s-.15.26-.26.34l-1,.65a23.67,23.67,0,0,1-3.54,1.91,6.36,6.36,0,0,1-1.51.55,11.62,11.62,0,0,1-1.31.13l-.28-.12a1.79,1.79,0,0,1-.82.28c-.27.05-.55,0-.82,0a3.12,3.12,0,0,1-1.28-.22,10.07,10.07,0,0,1-1.12.71l-.24.08c.64,0,1.27-.06,1.9-.09a8.15,8.15,0,0,1,1.71,0,17.13,17.13,0,0,1,4.35.92c.6.22,1.22.41,1.83.62a11.18,11.18,0,0,1,1.87.92,1.27,1.27,0,0,0,1,0A21,21,0,0,0,116,27.39a15.44,15.44,0,0,1,2.68-1.07,7.77,7.77,0,0,1,3-.19A14.93,14.93,0,0,1,124.34,26.85Zm-3.81-.42a6.46,6.46,0,0,0-1.08.06,11.21,11.21,0,0,0-1.88.54l-.1.07-.17,0-.28.12-.09.05-.49.22-.09.06-.49.21-.09.06-.16.07-.34.14-.09.07-.18,0a.31.31,0,0,1-.09.07l-.17.06-.39.16a17.07,17.07,0,0,1-2.43.75l.21.09c.46-.11.92-.19,1.37-.3l.73-.2a22.06,22.06,0,0,1,4.32-.94.76.76,0,0,1,.45.05c-2.21.27-4.28,1.25-6.51,1.48a12.41,12.41,0,0,0,2,.4,7.76,7.76,0,0,0,2.76,0c.59-.12,1.16-.3,1.74-.46a15.17,15.17,0,0,0,1.77-.56l.09-.06.53-.26.35-.2.19-.11a4.74,4.74,0,0,1,.54-.31c.44-.26.93-.45,1.38-.71A8.73,8.73,0,0,0,120.53,26.43ZM107.2,16.88a3.78,3.78,0,0,0-1.57,1,7.18,7.18,0,0,1-.5,1.57,9.78,9.78,0,0,1-.52,1v0a4.23,4.23,0,0,1,.85-.84,12.09,12.09,0,0,1,1.45-1.11,1.16,1.16,0,0,1,.5-.24c-.26.22-.57.39-.82.62l-.83.72a13.63,13.63,0,0,0-1.25,1.15v0a20.22,20.22,0,0,1,2.4-1.14.65.65,0,0,0,.3-.18c.36-.45.73-.9,1-1.39a11.74,11.74,0,0,0,1-1.84A11.92,11.92,0,0,0,107.2,16.88ZM103,12.31a5.23,5.23,0,0,0-1.8,2.67c0,.21,0,.42.08.62a7,7,0,0,1,.06,1,3.47,3.47,0,0,1,0,.72l.18-.26a4.75,4.75,0,0,1,.17-1c0-.12,0-.24.06-.35a5.62,5.62,0,0,1,.53-1.67l.06,0a3.49,3.49,0,0,0-.26.77c-.18.68-.35,1.37-.49,2.07a6.07,6.07,0,0,1,1.7-1.61,1.18,1.18,0,0,0,0-.56,11.68,11.68,0,0,1-.15-1.31A9.06,9.06,0,0,0,103,12.31Zm26.58,27-.19-.11-.2-.12-.35-.19-.15-.08-.16-.08-.15-.08-.16-.08L128,38.5l-.09-.06-.34-.14-.09,0-.28-.12-.17-.06a11.86,11.86,0,0,0-1.61-.57l.19.14.55.3.09.05c.19.1.37.21.57.3l.09.05.16.08c.43.22.86.44,1.3.64l.1.06c.16.07.32.15.49.21l.09.06.28.11a10.67,10.67,0,0,0,1.11.44A6.76,6.76,0,0,0,129.6,39.33Zm-25-23.93a4.84,4.84,0,0,0-2.65,1.94,7.29,7.29,0,0,0-1,2,7.92,7.92,0,0,0-.46,2,2,2,0,0,0-.08.49,7.1,7.1,0,0,1,2.15-2.53.2.2,0,0,1,.24,0,2.2,2.2,0,0,1,.17,1c-.07.29-.06.6-.15.9a7.46,7.46,0,0,1-.51,1.51,6.23,6.23,0,0,0,1-1.16c.39-.68.87-1.31,1.2-2a10.15,10.15,0,0,0,.63-1.61c0-.1,0-.2.07-.3a8.58,8.58,0,0,0,.18-.85c.07-.21,0-.45.1-.66a6.06,6.06,0,0,1,.15-.74A3.18,3.18,0,0,0,104.56,15.4Zm29,28.64c-.17-.12-.35-.22-.52-.32l-.41-.22-.1-.06-.21-.09-.1-.06-.16-.08-.33-.13-.09-.06-.28-.11-.27-.13-.17-.05-.23-.12,0,0-.08-.09,0,0c.19.1.36.21.53.32l.2.12.2.11.13.09.2.11.24.15.2.11.29.17.6.34.3.17.35.19c.19.09.37.2.56.3l.16.07.09.06.23.1A6.13,6.13,0,0,0,133.59,44ZM109.14,20.52a1.81,1.81,0,0,0-1.17-.69,2.84,2.84,0,0,0-1.24.34,3.41,3.41,0,0,0-.74.31,12.61,12.61,0,0,0-2.22,1.22c-.38.41-.75.84-1.17,1.22a5.34,5.34,0,0,1,1.42-.69,1.86,1.86,0,0,1,.84-.14c.14.34-.15.66-.1,1a8.2,8.2,0,0,0,2.47-1.41c0,.19-.23.27-.35.39a5.65,5.65,0,0,1-2.19,1.16,2.66,2.66,0,0,0-.1.38l-.18.56a3.86,3.86,0,0,0,1.24-.29,10.51,10.51,0,0,0,1.92-.83l0,.12a4.73,4.73,0,0,1-.71.45,6.54,6.54,0,0,1-1.52.64,3.3,3.3,0,0,1-.94,0,3.25,3.25,0,0,1-.54,1,5.47,5.47,0,0,0,1-.19,2.2,2.2,0,0,0,.94-.19,27.21,27.21,0,0,0,3.52-1.71c.56-.33,1.08-.71,1.62-1.05A8,8,0,0,1,109.14,20.52Zm28.62,29c-.43-.36-.89-.69-1.35-1s-.77-.53-1.16-.78l-.43-.27c-.33-.21-.67-.39-1-.61l0,0A7.49,7.49,0,0,0,135.23,48c1.14.8,2.3,1.57,3.44,2.37C138.44,50,138,49.78,137.76,49.47ZM120.59,33.21l-.43-.27-.2-.12-.35-.19-.62-.32-.21-.1-.37-.17a19.78,19.78,0,0,0-3-1.11c-.6-.15-1.21-.2-1.81-.33,0,0,.11.1.16.16l.19,0,.08.07.18.05.27.12.28.12.09.05.34.14.09,0,.16.08.15.08.22.1.09.05.51.27a18.33,18.33,0,0,1,2.78,1.92,9,9,0,0,1,.85.79c.23.21.37.5.62.7l0,0c-.29-.28-.56-.59-.87-.85a3.57,3.57,0,0,1-.55-.48c-.39-.25-.74-.56-1.14-.81l-.23-.15c-.17-.1-.32-.21-.49-.3l-.13-.1-.26-.14-.13-.09-.19-.08c.57.62,1.19,1.2,1.77,1.8.16.18.38.29.55.46a26.27,26.27,0,0,0,3.15,2.17l.73.44.4.22.57.28.69.29a6.55,6.55,0,0,1-.28-.78l-.07-.08c0-.07,0-.13,0-.19L124,37a4.09,4.09,0,0,0-.23-.47,7.69,7.69,0,0,0-.89-1.25l-1.16-1.16C121.34,33.78,121,33.48,120.59,33.21Zm-21-21c-.55.67-1.14,1.32-1.63,2A5.41,5.41,0,0,0,97,17a6.88,6.88,0,0,0-.09,1.43,14.55,14.55,0,0,0,.15,1.62c0,.08,0,.17,0,.25a5,5,0,0,0,.18-.66,8.6,8.6,0,0,1,.25-1l.24,0a2.48,2.48,0,0,1,.46.34,7.34,7.34,0,0,1,.69.56c.18.09.28.27.42.41-.08-.87-.18-1.74-.19-2.61a2.7,2.7,0,0,1,0-.85,4.24,4.24,0,0,1,0,.71c0,.15,0,.29.06.44s0,.32,0,.49c.08.63.17,1.27.26,1.91a2.9,2.9,0,0,0,.15.71A3.33,3.33,0,0,1,100,21.9a1.91,1.91,0,0,0,.06-.58,2.82,2.82,0,0,1,0-.82c.13-.59.32-1.16.49-1.74a10.51,10.51,0,0,0,.27-1.21c0-.33.07-.65.05-1s0-.42,0-.63a9.24,9.24,0,0,0-.11-.92,4,4,0,0,0-.37-1.52C100.17,13.07,99.74,12.76,99.64,12.26Zm31,31.42c0,.06,0,.1.05.11S130.71,43.69,130.63,43.68Zm-5.49-5.32a1.53,1.53,0,0,0,.38.6c.46.6.91,1.21,1.36,1.82a7.73,7.73,0,0,0,.66.85.75.75,0,0,1-.09-.15,4.82,4.82,0,0,0-.27-.5c-.1-.2-.22-.39-.34-.58l-.16-.23a8.68,8.68,0,0,0-.85-1.07A4.39,4.39,0,0,0,125.14,38.36ZM130,43.47l0,0,.12.19.05.1c.09.19.2.37.3.56l.08.16,0,.09.22.41a.93.93,0,0,1,.05.1l.34.6.12.2.12.13A9.66,9.66,0,0,0,130,43.47Zm6.48,6.77A8.43,8.43,0,0,0,137,51c1.06,1.37,2,2.87,3.13,4.16a9.78,9.78,0,0,0-1.71-3c-.19-.2-.39-.39-.56-.6A15.42,15.42,0,0,0,136.46,50.24Zm-39-38.63A7.9,7.9,0,0,0,96,14.29c-.13.37-.19.77-.29,1.16a5.49,5.49,0,0,1,.65,1.44c0,.06,0,.12,0,.18,0-.39-.06-.79,0-1.19a7.62,7.62,0,0,1,0-1.35c0-.29,0-.64.29-.81a1.58,1.58,0,0,0-.08.61c0,.25,0,.49,0,.74s0,.39,0,.59,0,.48,0,.72a7.22,7.22,0,0,1,0,.93c0-.3.07-.61.1-.92a6,6,0,0,1,1-2.46.62.62,0,0,0,.09-.27,5.12,5.12,0,0,1-.18-.7C97.57,12.51,97.48,12.06,97.44,11.61Zm36.7,36.74.06.14.14.33a2.33,2.33,0,0,1,.11.28l.07.09c0,.06,0,.12,0,.18l.08.09a1.16,1.16,0,0,0,0,.18l.06.09c0,.09.07.19.12.28s.09.21.14.32.13.29.19.43l.06.1c.08.16.18.31.27.46-.08-.34-.24-.66-.35-1l-.12-.27c0-.1-.08-.19-.11-.28l-.06-.09-.09-.22c-.06-.1-.11-.21-.16-.31l-.06-.09c-.09-.19-.2-.37-.3-.55A.7.7,0,0,0,134.14,48.35ZM104.32,21c.07,0,.15-.09.1-.16S104.2,20.93,104.32,21Zm11.51,11.8-.35-.19-.16-.08-.09-.06-.16-.07a2.73,2.73,0,0,0-.55-.25c.19.14.39.25.59.37.58.37,1.17.73,1.74,1.13A2.64,2.64,0,0,0,115.83,32.76Zm6.16,6A32.1,32.1,0,0,0,118.23,36l0,0c.16.14.34.24.49.39a2.73,2.73,0,0,0,.47.43c.27.18.45.46.71.64s.46.46.73.64.39.4.63.56.39.39.63.53a18.59,18.59,0,0,0,2,1.62l0,0a5.75,5.75,0,0,0-.77-.94A13.24,13.24,0,0,0,122,38.76Zm-19.5-18.9a7.24,7.24,0,0,0-2.22,3.32,1.07,1.07,0,0,0-.11.46c0,.08,0,.16,0,.24L100,24c-.13-.1-.31-.21-.31-.4-.06-.64,0-1.28-.09-1.91a3.86,3.86,0,0,0-.42-1.28c-.3-.57-.9-.88-1.36-1.3a2.7,2.7,0,0,1-.07.41,2.61,2.61,0,0,1-.11.5c0,.3-.12.57-.12.87a2.83,2.83,0,0,0,0,.65,3.9,3.9,0,0,0,.73,2.13,11.07,11.07,0,0,0,1.14,1.23c.16.07.35.1.52.16.36.1.7.24,1.06.34a5.09,5.09,0,0,0,1.35,0,1.53,1.53,0,0,0,1-.37,4,4,0,0,0,.92-1.63c.11-.31.17-.64.31-.94a8.16,8.16,0,0,0-3,1.91.88.88,0,0,1-.33-.36c.18-.45.4-.88.6-1.32A6.46,6.46,0,0,0,102.49,19.86ZM113,30.74c-.13-.1-.27-.19-.41-.28l-1-.61-.29-.17c-.38-.21-.76-.43-1.13-.66l-.25-.13-.1-.06-.15-.08-.22-.1-.09,0c-.65-.3-1.33-.48-2-.72a15.78,15.78,0,0,0-4.5-1,9.44,9.44,0,0,0-1.68-.06,10.27,10.27,0,0,0-1.1.12,10,10,0,0,0,1.88.22,6.72,6.72,0,0,1,1.41.12c.67.11,1.35.19,2,.32.49.1,1,.29,1.44.42s1,.25,1.49.46l.31.16c.53.34,1,.75,1.57,1.06l.16.08c.3.1.6.23.91.33l.37.17.51.27c.31.17.62.32.93.47l.33.14.43.17A6.6,6.6,0,0,0,113,30.74Zm1.33,1.71-.3-.16-.25-.16c.13.25.42.34.59.55s.46.36.66.58l0,0a1.79,1.79,0,0,1-.25-.42A1.68,1.68,0,0,0,114.28,32.45Zm-22.94-22c-.36-.26-.62-.64-1-.9s-.41-.42-.66-.58a3.08,3.08,0,0,1-.43-.38,17.72,17.72,0,0,0-1.45-1.14,5.06,5.06,0,0,0,.09,1.1,3.36,3.36,0,0,1-.33,1.87l-.17.38a4.69,4.69,0,0,0-.48,2.11.53.53,0,0,1,.31.19c.23.29.48.57.74.84a7.76,7.76,0,0,1,1.74,2.81c.06.24.1.49.15.74.19-.11.44-.23.63-.07a16.89,16.89,0,0,1,.3,2.84l.2,0a5.08,5.08,0,0,0,.13-.78A11.48,11.48,0,0,0,91,16.13a21.25,21.25,0,0,0-1-3.7c-.11-.25-.23-.49-.36-.73a.76.76,0,0,0-.39-.36l.12-.11a2.72,2.72,0,0,1,.65.86l.06.1.07.16.08.15c.06.15.13.29.18.44s.07.15.1.23c.23.68.47,1.36.64,2.06a12.68,12.68,0,0,1,.42,3.18,11.3,11.3,0,0,1-.2,1.64,4.8,4.8,0,0,1,1.25-.14,7.13,7.13,0,0,1,0-.8c.07-1.18.54-2.29.72-3.45a8.49,8.49,0,0,0,.11-1.95,4.52,4.52,0,0,0-.27-1,.8.8,0,0,1-.08-.16L93,12.44a2,2,0,0,0-.11-.2L92.74,12c-.1-.12-.18-.25-.28-.37A11.24,11.24,0,0,0,91.34,10.41Zm34.11,34.21a36.87,36.87,0,0,0-2.93-2.36l0,0,.32.33a6,6,0,0,1,.54.46c.2.22.48.35.67.58s.43.34.62.54c.4.4.79.81,1.23,1.18.6.54,1.15,1.13,1.73,1.69a1.05,1.05,0,0,0,.29.17,12,12,0,0,0-1.42-1.68A8.93,8.93,0,0,0,125.45,44.62ZM112,31.38c-.57-.38-1.14-.76-1.73-1.09.23.28.52.49.74.78a4.45,4.45,0,0,0,.55.6c.21.19.34.44.55.62s.49.62.76.92a3.45,3.45,0,0,0-.14-.34c0-.09-.08-.19-.11-.28l-.06-.09a1.54,1.54,0,0,1,0-.17c-.13-.27-.23-.55-.36-.82C112.16,31.45,112.09,31.42,112,31.38Zm5.53,5.54.09.23a1.09,1.09,0,0,0,.08.15l.07.16a.53.53,0,0,1,.06.1c0,.11.1.22.14.33s0,.1.08.16l.06.09.13.33a.53.53,0,0,1,.06.1c0,.11.1.22.14.33l0,.09.12.28a1.09,1.09,0,0,1,0,.17l.07.09c.26.78.5,1.56.8,2.32l.05.09c0,.1.11.2.17.3a2.5,2.5,0,0,0-.09-1,10.25,10.25,0,0,0-.56-1.52A19,19,0,0,0,117.57,36.92Zm-4.4-4.3a1.93,1.93,0,0,0,.15.4l.06.17c.08.16.13.33.21.49l.06.17c0,.09.09.18.13.27s.07.19.11.28l0,.09c.07.17.15.33.22.49a.28.28,0,0,0,.06.09c0,.06,0,.11.07.17l.2.34a9,9,0,0,0,.52.84,2.83,2.83,0,0,0,.9.92A11.45,11.45,0,0,0,114,33.57,6.7,6.7,0,0,0,113.17,32.62ZM95,14.75A1,1,0,0,0,95,15c.07.66.15,1.33.28,2,.06.23.1.46.16.69A10.48,10.48,0,0,0,97,21.61a3.38,3.38,0,0,0-.17-1.18,3.69,3.69,0,0,1-.32-.77,5.27,5.27,0,0,1-.16-.77,11.57,11.57,0,0,0-.68-2.74c-.18-.44-.46-.84-.66-1.28Zm27.26,27.34c0,.06,0,.1,0,.11S122.35,42.11,122.27,42.09ZM102.49,22.94s-.16.08-.09.13S102.56,23,102.49,22.94Zm7.61,7.55a1.36,1.36,0,0,0,.06.29,12.21,12.21,0,0,1,.71,3.22,6.53,6.53,0,0,1-.46,2.8,18.68,18.68,0,0,0-.56,1.94,1.54,1.54,0,0,0-.09.37l-.09.1,0,0c.11-.62.2-1.24.36-1.85a11,11,0,0,0,.53-2.83,7.94,7.94,0,0,0-.13-1.37,17.54,17.54,0,0,0-.36-1.72,18,18,0,0,1-.73,1.89s0,.11-.08.16,0,.1-.08.16l0,.09c-.2.4-.47.75-.7,1.14a2.82,2.82,0,0,0-.4,1.32,2.62,2.62,0,0,0,0,.74,21,21,0,0,0,.49,2.72,22.55,22.55,0,0,1,.53,3.17c.27-.19.56-.36.81-.57A16.22,16.22,0,0,1,111.1,41c.34-.31.66-.65,1-1s.38-.48.55-.73l.11-.19.16-.31a6.06,6.06,0,0,0,.4-1.72c0-.4.08-.81.11-1.21a3.6,3.6,0,0,0-.36-1.67,11.82,11.82,0,0,0-1.88-2.52c-.2-.17-.32-.4-.5-.58A7,7,0,0,0,110.1,30.49Zm11.12,11.14,0,0,.15.59c.13.56.26,1.12.4,1.68.07.29.15.59.22.88.23.87.39,1.75.64,2.62l.13.2h.09a2.94,2.94,0,0,0,0-1.35,13.27,13.27,0,0,0-1.07-3.3,4,4,0,0,1-.42-1.1ZM108.8,29.4l-.07.15a3.87,3.87,0,0,0-.27.43l-.13.17c-.08.16-.23.27-.32.42a1.47,1.47,0,0,1-.44.42,7.18,7.18,0,0,1-1.1.8l-.2.12-.19.11-.35.2-.1.05a9.3,9.3,0,0,1-.84.41l-.09.06-.16.08-.18,0-.08.07-.19,0-.09.07a9.86,9.86,0,0,1-1.17.36,1.88,1.88,0,0,1-.58.07c.48-.17,1-.3,1.44-.51l.09,0a7.18,7.18,0,0,0,.68-.34l.16-.08.35-.19.29-.17.55-.31a2,2,0,0,1,.25-.14l.13-.09.2-.12a6.71,6.71,0,0,0,1.48-1.12,4.85,4.85,0,0,0,.55-.65,1,1,0,0,1,.24-.3c-.74,0-1.49,0-2.23,0a13.38,13.38,0,0,0-1.39.22,7.93,7.93,0,0,0-.83.25l-.1.06-.31.15-.19.12a7.38,7.38,0,0,0-.74.5,1.71,1.71,0,0,0-.27.2l-.47.31-.42.28a2,2,0,0,0-.25.14l-.2.12a.57.57,0,0,0-.13.08,9.35,9.35,0,0,0-1.18.89L98.75,34a2.13,2.13,0,0,1-.34.25l-.34.1c.57.38,1.17.74,1.76,1.1l.4.21.16.08.09.05.44.2a11,11,0,0,0,1.14.4,2.34,2.34,0,0,0,1.63-.06l.16-.08a7.9,7.9,0,0,0,1-.75c.27-.27.55-.53.8-.82a3.59,3.59,0,0,1,.56-.61c.35-.42.65-.87,1-1.31a3.54,3.54,0,0,1,.35-.51,4.48,4.48,0,0,1,.65-.79,2.34,2.34,0,0,0,.54-.67l.06-.09A2.64,2.64,0,0,0,108.8,29.4Zm-1.56-.7-1.35-.4a16.17,16.17,0,0,0-2.77-.55,9.53,9.53,0,0,0-1.31-.13,7,7,0,0,1-1.71-.19A17.92,17.92,0,0,0,98,27.24a11.39,11.39,0,0,0-1.75.07l-1.75.26a7,7,0,0,1-2.45-.17c.09.38.28.73.34,1.11a3.71,3.71,0,0,1,.09,1.78c.54.21,1.1.36,1.64.58s1.06.41,1.59.63l.32.14.43.2.15.08.16.07.1.06.21.1a5.81,5.81,0,0,1,1.49,1,2.93,2.93,0,0,1,0,.29c.31-.31.66-.59,1-.9a8.12,8.12,0,0,1,1.75-1.32c.42-.25.81-.53,1.21-.81a7,7,0,0,1,1-.7l.09-.06.16-.07.16-.09a7.8,7.8,0,0,1,1.36-.37,9.14,9.14,0,0,1,2.71-.12A3.74,3.74,0,0,0,107.24,28.7ZM124.83,47l0,0,.06.13.12.27.11.27c0,.1.08.19.12.28a.28.28,0,0,0,.06.09l.21.49a.53.53,0,0,0,.06.1c0,.05,0,.1.07.16a1.36,1.36,0,0,1,.1.21c.23.46.46.93.71,1.39a1.19,1.19,0,0,0,.08.16c0,.05,0,.1.07.16l.06.09.07.16c.13.24.26.47.38.71l.07.16.06.1.1.21.08.15.08.16.27.51.05.09.23.41.11.19c.14.24.29.47.44.69a8.38,8.38,0,0,0-.82-2.41A34.42,34.42,0,0,0,126,48.66C125.61,48.08,125.21,47.52,124.83,47Zm-.43.67c.14,1,.23,1.92.41,2.87a18.65,18.65,0,0,0,.83,3.31c.11.23.22.51.49.58a2.56,2.56,0,0,0,.14-1.4,12.23,12.23,0,0,0-.55-2.14c-.33-1-.73-1.94-1.15-2.88ZM99.78,25.41l-.14.11-.47.24a8.26,8.26,0,0,1-2,.54,24.62,24.62,0,0,1-3,.32,2.6,2.6,0,0,0-.1.25,5.2,5.2,0,0,1-.68-.06,9.51,9.51,0,0,1-1.76-.29,1.87,1.87,0,0,0,.15.32,8.07,8.07,0,0,0,2.54.21l1.75-.23a7,7,0,0,1,1.21,0,.42.42,0,0,1,.38-.32A6.91,6.91,0,0,0,99.37,26l.09-.06.71-.4Zm-6-5.27c-.55.09-1.11,0-1.65.07a3.74,3.74,0,0,0-1.39.38,7,7,0,0,1-.26,2.09,6.23,6.23,0,0,0,1.39-1.11,2.24,2.24,0,0,0,.36-.64l0,.16a3.18,3.18,0,0,1-1,1.35c-.32.22-.61.48-.94.67a3.13,3.13,0,0,1-.63.68,3.36,3.36,0,0,1,1.14.08,5.68,5.68,0,0,1,1,.34A6.6,6.6,0,0,0,93,22.31,7.27,7.27,0,0,0,93.82,20.14Zm-6.94-6.88a2.43,2.43,0,0,0-.44.26,5.86,5.86,0,0,0-1,1.36c-.1.3-.35.53-.47.82s-.25.41-.33.64a7,7,0,0,0-.53,1.23,8.9,8.9,0,0,1,.74,1l-.08,0c.17,0,.18.24.34.27l0,0a10,10,0,0,1,0-1.34,2.86,2.86,0,0,1,.49-1.69l.27-.06a2.45,2.45,0,0,1,.72.48,3.79,3.79,0,0,1,1,1.94c.07-.52.09-1,.11-1.57a5.41,5.41,0,0,0-.3-2.11l.1-.05a4.34,4.34,0,0,1,.35,1.23,8.64,8.64,0,0,1-.05,2.87c0,.35-.14.69-.17,1a4,4,0,0,1,.7-.72c.39-.3.76-.63,1.13-.95a4.57,4.57,0,0,0-.38-1.58A7.71,7.71,0,0,0,88,14.53C87.6,14.1,87.21,13.71,86.88,13.26Zm2.57,5c-.2.14-.39.3-.58.46a6.48,6.48,0,0,0-1.41,1.5A7,7,0,0,0,87,21c-.22.5-.44,1-.65,1.51a9.16,9.16,0,0,1-.54,1.52.71.71,0,0,0,0,.21c.63-.56,1-1.35,1.73-1.82v-.09l.26,0a1.78,1.78,0,0,1-.27.76,13.61,13.61,0,0,1-1.16,1.24,5,5,0,0,0,1.53-.25,5.24,5.24,0,0,0,1.56-.66,2.29,2.29,0,0,0,.85-1.9,18.27,18.27,0,0,0-.19-3.77C89.87,17.92,89.67,18.13,89.45,18.31ZM80.08,8.88l-.17.06c-.76.32-1.56.55-2.32.88a3.12,3.12,0,0,0-.39.15L77,10l-.27.12-.28.12-.28.11-.09.06L76,10.5l-.16.08-.09.05-.34.14-.09.06-.22.1L74.9,11l-.15.08-.16.07-.35.2c-.33.18-.65.38-1,.58s-.63.44-.92.67-.44.42-.67.62a5.32,5.32,0,0,1,1,.63c.16.09.35.25.31.46a1.94,1.94,0,0,1-.53.8c.56-.39,1.09-.82,1.63-1.24s1.17-1,1.79-1.39a.65.65,0,0,1,.36-.18l-.23.23c-.24.09-.37.34-.58.49-.39.24-.63.66-1,.9a15.87,15.87,0,0,1-2.35,1.82,10,10,0,0,0-1,.65c-.26.23-.57.4-.85.61l.62.24a15.53,15.53,0,0,0,4-1,8.89,8.89,0,0,0,1-.5,4.21,4.21,0,0,0,.94-.74,4.46,4.46,0,0,0,.9-1.08,4.3,4.3,0,0,0,.25-.53l.06-.09a3.89,3.89,0,0,1,.16-.44c.23-.59.38-1.21.64-1.79,0-.09.07-.18.11-.28l0-.09.19-.36.12-.19c.3-.49.7-.92,1-1.4Zm5.78,7.25-.11.05c0,.17-.13.33-.17.5A7.51,7.51,0,0,0,85.45,18a9.58,9.58,0,0,1-.17,1.18,5.64,5.64,0,0,1,.6,3.26,12.32,12.32,0,0,0,.27-2.64c0-.69,0-1.37,0-2.06a.36.36,0,0,1,.09.24c0,.77,0,1.55,0,2.33A10.17,10.17,0,0,1,86.14,22a1.21,1.21,0,0,0,0,.18c.21-.43.4-.87.64-1.29a7.07,7.07,0,0,1,.43-.76,3.57,3.57,0,0,0-.71-3.49A2.11,2.11,0,0,0,85.86,16.13ZM69,.72A16.23,16.23,0,0,0,65.85,3c-.25.28-.58.46-.82.74a10.69,10.69,0,0,0-1.2,1.13,2.57,2.57,0,0,0-.44.49c.5-.38,1-.76,1.49-1.12,1.22-.88,2.5-1.67,3.72-2.56A9.5,9.5,0,0,0,70,.45,4,4,0,0,0,69,.72ZM71.36,4a18.83,18.83,0,0,0-6.29,1.61l-.94.43,0,0A19.84,19.84,0,0,1,68.74,5a.76.76,0,0,1,.2-.27l.17-.07.12,0,.24.09c.1.06.21.16.34.13A11.16,11.16,0,0,0,72,4.35l.16-.08A1.78,1.78,0,0,0,72.55,4,4.31,4.31,0,0,0,71.36,4ZM89.53,24.18a5.83,5.83,0,0,0-.93.16c-.31.12-.63.2-.95.32l0,.06A2.81,2.81,0,0,1,89,24.66a3.15,3.15,0,0,1,1.82.94,1.39,1.39,0,0,1,.21.27.89.89,0,0,1-.35-.26,2.43,2.43,0,0,0-.8-.45l-.23-.09a6.37,6.37,0,0,0-1.57-.2,7.62,7.62,0,0,0,.69.38c.39.11.78.23,1.16.36s.51.2.78.28a9.14,9.14,0,0,0,1.24.44,10.08,10.08,0,0,0,1.64.21A10,10,0,0,0,92.12,25,3.34,3.34,0,0,0,89.53,24.18ZM84,18l-.06.19h.08l.18,0Zm-1.09-.82a5.13,5.13,0,0,0-2.43-.53c-.92,0-1.82.16-2.73.22a1.6,1.6,0,0,0-.65.12,3.59,3.59,0,0,0,.38,1.1,21.13,21.13,0,0,0,1,2,2.61,2.61,0,0,1,.88-.18,3.58,3.58,0,0,1,1.51.3,4,4,0,0,1,.59.29l.13,0c-.55-.42-1.05-.89-1.6-1.31a7.91,7.91,0,0,1-.63-.52.5.5,0,0,1,.31.1c.26.19.54.34.79.54a3.09,3.09,0,0,0,.73.51c-.16-.33-.35-.64-.54-.95l.14-.18a8.69,8.69,0,0,1,1.56-.53,3.22,3.22,0,0,1,1.48,0c0-.08,0-.17,0-.25A5.88,5.88,0,0,0,82.94,17.17Zm-.53,1.35a7.46,7.46,0,0,0-1.22.37,26.53,26.53,0,0,1,1.69,2.93,5.18,5.18,0,0,0,1.45,1.8c.22.27.59.27.88.4v-.25c-.25-.51-.6-1-.86-1.45s-.46-.7-.65-1.06c0-.14-.22-.21-.22-.36a.56.56,0,0,1,.24.13,7.49,7.49,0,0,1,.76.84A11.16,11.16,0,0,1,85.27,23c0-.34,0-.68,0-1a5.06,5.06,0,0,0-.62-2.78c-.1-.16-.26-.26-.37-.42A2.44,2.44,0,0,0,82.41,18.52Zm8.71,7.82c-.27-.1-.54-.19-.81-.3l-1.11-.47a4.57,4.57,0,0,1,1.45,2.27,7.11,7.11,0,0,1,.45,2c0,.09,0,.2-.12.24-.36-.05-.62-.33-1-.46a4.89,4.89,0,0,0-.51-.26c-.29-.16-.57-.36-.85-.54s-.47-.42-.7-.63a4.91,4.91,0,0,1,.37,1.12,10.18,10.18,0,0,0,2,2.05.85.85,0,0,0,.22.2l.84.55a1.69,1.69,0,0,0,.24-.41,5.48,5.48,0,0,0,.56-1.94,6.59,6.59,0,0,0-.84-3.17C91.28,26.52,91.25,26.38,91.12,26.34Zm6,6.32-.15-.08a10.1,10.1,0,0,0-1-.49l-.1-.06-.33-.14-.27-.11-.1-.06L95,31.66c-.74-.33-1.51-.58-2.26-.88l0,0,1,.47.15.07.21.1.16.08a.28.28,0,0,1,.09.06l.17.07.63.3.38.17.32.14a13.16,13.16,0,0,0,1.81.68A4,4,0,0,0,97.08,32.66ZM70.23,6a8.86,8.86,0,0,0-1-.71c.05.67-.16,1.33-.16,2a6,6,0,0,0,0,1.27c.16,1.37.46,2.71.55,4.09l0,.06a1.72,1.72,0,0,0,.6,0c.09-.35.23-.69.31-1a4.41,4.41,0,0,0,.05-2c-.07-.37-.22-.71-.32-1.07l-.07-.09s0-.11,0-.14l.08-.08,0,.14a1.09,1.09,0,0,1,.08.15c0,.05,0,.11.08.16l.06.09c0,.06,0,.12,0,.19l.07.08c.06.22.14.44.19.67a4.69,4.69,0,0,1-.35,3.08,1.9,1.9,0,0,1,.77.19,1.39,1.39,0,0,0,.27-.32l.15-.31A5,5,0,0,0,72,11c.06-.47.12-.94.14-1.41A3.31,3.31,0,0,0,72,8L72,7.82A5.4,5.4,0,0,0,70.9,6.59C70.7,6.38,70.44,6.23,70.23,6Zm-1.49-.48c-.62.1-1.23.21-1.85.35-.8.18-1.58.44-2.36.67-.58.2-1.18.34-1.75.58s-.83.31-1.25.47a.8.8,0,0,1-.16.08c-.12.1-.25.19-.38.28l0,0a29.5,29.5,0,0,1,3-.43c.54,0,1.09,0,1.63,0a9.36,9.36,0,0,1,1.84.23l.09.08V8l-.24.23a14.22,14.22,0,0,1-2,.09,10.5,10.5,0,0,0-1.59.23c-1,.19-2,.43-3,.67-.76.19-1.53.34-2.29.52-.26,0-.4.29-.61.42-.46.38-.92.76-1.39,1.12.2,0,.38-.14.57-.2A11.61,11.61,0,0,1,61,10.47a1.56,1.56,0,0,0,0-.8c.05-.14.22-.13.34-.11a3.91,3.91,0,0,1,.86.33c.23.13.45.27.67.42a1.5,1.5,0,0,0,.78.19l.2.2-.06.28a1.09,1.09,0,0,0,.4.27,2.53,2.53,0,0,0,.51.42,3.58,3.58,0,0,1,.6.69,8.57,8.57,0,0,1,.9-.8,6.8,6.8,0,0,1,1.4-.83.38.38,0,0,1,.44.16,20.13,20.13,0,0,1-.76,2.31,9.68,9.68,0,0,1,2-.45c0-1.19-.27-2.37-.44-3.56a10.49,10.49,0,0,1-.07-2.44c0-.35.08-.7.08-1C68.78,5.64,68.8,5.56,68.74,5.53ZM64.12,1a2.54,2.54,0,0,0-.36.45c-.42.59-.83,1.18-1.21,1.79-.52.81-1,1.65-1.48,2.47,0,.09-.11.17-.15.25L61,5.83c.62-.82,1.23-1.65,1.78-2.52l.59-1L63.6,2l.22-.41.08-.15c0-.06.05-.11.07-.16l.06-.1ZM89,25.92a4.17,4.17,0,0,0-1.42-.84,3.25,3.25,0,0,0-.61-.17,5.19,5.19,0,0,1,1.59,1.83.5.5,0,0,1,0,.21,4.12,4.12,0,0,1-.89-.78,15.85,15.85,0,0,0-1.38-1.34h-.26a11.34,11.34,0,0,1,1.26,1.74,7.61,7.61,0,0,0,1.55,2,3.33,3.33,0,0,0,1.07.71,4.08,4.08,0,0,0,.77.42,9.77,9.77,0,0,0-.6-2.13A4.11,4.11,0,0,0,89,25.92Zm11.5,12c-.06,0,0,.14.1.14S100.56,37.92,100.51,37.93Zm-.88-.72c-.37-.29-.75-.57-1.14-.83l-.29-.18-.2-.12L97.87,36l-.25-.13-.35-.2-.16-.08-.5-.27-.18-.07a8,8,0,0,0,.74.56c1.07.74,2.16,1.46,3.27,2.13A5.08,5.08,0,0,0,99.63,37.21Zm-3.31-2.07c0,.06,0,.1.06.11S96.4,35.15,96.32,35.14ZM81.49,20.67,81,20.46a2.94,2.94,0,0,0-1.63-.18,2.43,2.43,0,0,0-1.15.5c-.09.22.18.38.3.54A7.81,7.81,0,0,0,80,22.38a1.38,1.38,0,0,1,.47.33l0,.07.23.07a5.79,5.79,0,0,1,2.15.19,1.84,1.84,0,0,0-.7-.5,7.48,7.48,0,0,1-.67-.41,10.76,10.76,0,0,0-1.1-.48,2.21,2.21,0,0,1-.73-.34,2,2,0,0,1,.91.2,6,6,0,0,1,1.08.45c.41.16.74.47,1.14.67a18.58,18.58,0,0,1-1-1.76A.65.65,0,0,0,81.49,20.67Zm21.77,21.81c-.48-.35-1-.69-1.49-1l-.13-.09-.2-.12-.19-.11L101,41l0,0c.36.21.59.55.93.78.18.14.32.32.51.44,1,.86,2.08,1.67,3.15,2.46a4.87,4.87,0,0,0-.93-1A10,10,0,0,0,103.26,42.48ZM85.53,25a2.4,2.4,0,0,0-.29.19,12.45,12.45,0,0,1-.36,1.33c-.1.26-.17.52-.27.78A12.89,12.89,0,0,0,84.06,30c-.1.6-.13,1.21-.19,1.82a7.69,7.69,0,0,0,1.67-1.7A4.42,4.42,0,0,0,86.19,27a4.77,4.77,0,0,0-.27-1.05,2.75,2.75,0,0,1-.6,1.92c0-.72.27-1.42.26-2.14A2.41,2.41,0,0,0,85.53,25Zm-.74-.53c-.25,0-.48.16-.73.2a6.35,6.35,0,0,1-1.23.07L83,24.6a12.07,12.07,0,0,1,1.46-.39c-.33-.09-.54-.38-.81-.56l-.37-.17a6.27,6.27,0,0,0-1.93-.35,3.94,3.94,0,0,0-1.17.2,3.1,3.1,0,0,0-1,.65,4.43,4.43,0,0,0-.74,1,3,3,0,0,0-.26.58c0,.14-.09.28-.13.42a7,7,0,0,1,.93.24,4.81,4.81,0,0,0,2,.21,7.34,7.34,0,0,0,1.79-.68c.44-.22.92-.38,1.37-.59a6.6,6.6,0,0,0,.93-.63A.28.28,0,0,0,84.79,24.45Zm2,2.1A11.8,11.8,0,0,1,87.07,28a3.89,3.89,0,0,1,.07,1,5.14,5.14,0,0,1-.27-1,4.92,4.92,0,0,0-.21-.65,2.86,2.86,0,0,0,.09,1.05c.07.51.22,1,.27,1.55s.16,1.25.26,1.88a3.81,3.81,0,0,0,.66-1.43,4,4,0,0,0-.34-2.12A10,10,0,0,0,86.75,26.55Zm8.82,8.9,0,0,.09.25c.15.43.29.86.41,1.31s.31.93.47,1.39c.26.65.48,1.3.73,2a4.51,4.51,0,0,0,.29.72,4.47,4.47,0,0,0-.17-1.41,18.94,18.94,0,0,0-1.26-3.26c0-.08-.07-.15-.1-.22l-.06-.09A5.57,5.57,0,0,0,95.57,35.45ZM91.92,32c-.08.14-.26.26-.19.44a.86.86,0,0,1,.1.16l0,.09c0,.07.07.14.1.22s0,.1.08.16l0,.09c.09.19.2.37.3.56l0,.1.22.41c.07.11.13.23.2.35l.16.29c.11.18.21.36.31.54l.2.35c.07.12.13.24.2.35a.76.76,0,0,0,.12.19A4.62,4.62,0,0,0,93.56,35l-.07-.09,0-.17a1.69,1.69,0,0,1-.12-.28l-.06-.09c0-.06-.05-.11-.07-.16s-.06-.11-.08-.16L93,33.92l-.22-.41c-.07-.11-.13-.23-.2-.35L92.49,33a2,2,0,0,0-.11-.2C92.23,32.53,92.06,32.29,91.92,32Zm-7-6.65c-.08,0-.12.14,0,.15S85,25.4,84.9,25.39Zm-.36.37A18.72,18.72,0,0,1,82,27.91l-.07-.07c.65-.56,1.24-1.18,1.9-1.73a2.2,2.2,0,0,0,.31-.3c-.57.21-1.14.43-1.7.67-.08.05,0,.15,0,.22a5,5,0,0,1-.53.77A9.39,9.39,0,0,1,80.6,28.8c-.2.18-.41.35-.62.51a4.9,4.9,0,0,0,1.71-.15,4.44,4.44,0,0,0,1.64-1.1c.25-.26.46-.56.7-.84s.2-.56.35-.82.21-.49.32-.73C84.65,25.7,84.58,25.71,84.54,25.76Zm-12.71-12-.12-.09a5.7,5.7,0,0,0-.88-.38,4.81,4.81,0,0,0-2.1-.09,10.82,10.82,0,0,0-1.59.38c-.16,0-.18.22-.27.33-.24.41-.47.83-.74,1.21-.06.11-.13.21-.2.32l.23-.2a6.26,6.26,0,0,1,3-.93,4.9,4.9,0,0,1,1.21,0,.67.67,0,0,1,.33.15,7.55,7.55,0,0,1-.67.93c-.19.2-.3.47-.51.66s-.37.4-.57.59-.4.32-.6.47l0,0a4.25,4.25,0,0,1,1-.15.66.66,0,0,0,.25-.06,11.82,11.82,0,0,0,2.18-1.52,6.69,6.69,0,0,0,1-1A3.57,3.57,0,0,0,71.83,13.74ZM100.18,42a3.75,3.75,0,0,0,.09.57c.16,1,.33,2,.41,2.95a8.35,8.35,0,0,0,.13,1.12,5.14,5.14,0,0,0,.26-1.5,6.18,6.18,0,0,0-.18-1.36c-.1-.29-.2-.58-.29-.87l-.07-.09a3.47,3.47,0,0,0-.17-.45C100.3,42.24,100.25,42.11,100.18,42Zm3.72,4.33a1.92,1.92,0,0,0-.56-.42c.42.53.8,1.09,1.24,1.6a16.75,16.75,0,0,0,1.72,1.85c.21.17.43.32.65.47l.2.12.4.23c0-.13-.1-.22-.16-.32-.32-.46-.7-.88-1-1.32l-1.13-1.12C104.76,47.06,104.35,46.67,103.9,46.32ZM86.47,29A4.33,4.33,0,0,1,85.37,31,10.33,10.33,0,0,1,84,32.21c0,.32-.12.62-.12.94a9.23,9.23,0,0,0,1.61-.62,3.9,3.9,0,0,0,1.2-1.41C86.55,30.43,86.58,29.71,86.47,29Zm-7.09-6.43L78.54,22a3.53,3.53,0,0,0-2.17,1.35c-.13.22-.35.38-.42.63a3.42,3.42,0,0,0-.39.79,6.92,6.92,0,0,0-.28.88,5,5,0,0,1,.47.33,7.16,7.16,0,0,0,1,.67,12.08,12.08,0,0,0,2,.86,1.13,1.13,0,0,1,.21.12l.12-.34c.07-.19.16-.37.23-.55-.34-.08-.67-.17-1-.28a1.24,1.24,0,0,1-.66-.29c-.07-.11,0-.24,0-.35a5.13,5.13,0,0,1,.73-1.55,2.59,2.59,0,0,0-.62,0c-.29,0-.56.12-.84.13a3.42,3.42,0,0,1,1.65-.29,3.35,3.35,0,0,1,1.78-1.18A4.48,4.48,0,0,1,79.38,22.59Zm22.77,22.48a44.6,44.6,0,0,0,1.44,5.33c.11.41.25.82.39,1.22a9.62,9.62,0,0,0-.51-4c-.09-.2-.15-.41-.25-.61s-.09-.21-.14-.32a.8.8,0,0,0-.08-.16,1.09,1.09,0,0,0-.08-.15c0-.06,0-.11-.07-.16a.53.53,0,0,0-.06-.1s-.05-.1-.07-.16l-.22-.4-.12-.2ZM78.28,21.88c-.39-.11-.76-.29-1.15-.41l-.39-.16-.49-.2L75.92,21l-.27-.11-.1-.06-.16-.07-.17-.06-.15-.09-.16-.07-.09-.06-.34-.13-.15-.08-.16-.08-.09,0a8.26,8.26,0,0,1-.79-.39l-.15-.08L73,19.56l-.19-.12-.21-.1-.16-.08-.09-.06-.18-.05-.09-.07a4.27,4.27,0,0,0-.48-.13,4.24,4.24,0,0,1,.46.49c.47.16.95.3,1.41.5a2.19,2.19,0,0,1,.81.76l.08.13a.94.94,0,0,0,.47.43,7.3,7.3,0,0,0,.82.31c.54.17,1.07.4,1.62.56a.59.59,0,0,0,.32-.06,2.94,2.94,0,0,1,.71-.17ZM67.58,11.26c-.37.2-.72.43-1.07.66s-.59.48-.9.72a4.34,4.34,0,0,0-.61.8,4.4,4.4,0,0,0-.4,2.4,9.09,9.09,0,0,0,.18,1c.06-.26,0-.53,0-.78a4,4,0,0,1,.67-1.6A2.19,2.19,0,0,1,66,14a1.3,1.3,0,0,1,.54-.32c-.22.22-.48.42-.68.66a4.9,4.9,0,0,0-.78,1.94c0,.06,0,.15-.08.19l0,0c.08.05.14,0,.19-.09l-.06,0c.15-.19.29-.4.44-.59.17-.39.39-.76.58-1.15l.07-.11c.09-.19.21-.37.31-.55s.1-.16.14-.24a7.49,7.49,0,0,0,.67-1.4A10.07,10.07,0,0,0,67.58,11.26ZM104.3,47.94c.09.13.17.27.25.41l.19.35.27.5.08.17.06.09.09.21.09.16c0,.05,0,.1.07.16a.47.47,0,0,0,.06.09l.09.22.06.09c.08.16.15.32.22.49l0,.09.08.16c0,.11.09.22.14.33s.11.25.17.37.1.22.14.33,0,.07.06.09.09.22.14.33.13.29.19.43a1.09,1.09,0,0,1,.08.15l.08.16.08.16.07.15.06.1a7.85,7.85,0,0,0,.44.73,2.76,2.76,0,0,0-.18-.64,20.55,20.55,0,0,0-1.52-3.26c-.07-.13-.15-.26-.22-.4s-.17-.3-.25-.45-.15-.27-.22-.4L105,49c-.07-.12-.14-.23-.2-.35A1.74,1.74,0,0,0,104.3,47.94ZM83.84,27.85c-.11.15-.22.3-.34.44a9.12,9.12,0,0,1-.53,1c-.24.34-.44.7-.69,1-.13.11-.21.3-.4.33.11-.23.34-.38.46-.6s.18-.39.3-.56a6.17,6.17,0,0,0,.38-.72,3.23,3.23,0,0,1-1.49.82,5,5,0,0,1-1.89.09.84.84,0,0,1-.52-.34A1,1,0,0,1,79.4,29a12.18,12.18,0,0,0,1-.85c.32-.32.69-.57,1-.86s.23-.46.43-.64a4.47,4.47,0,0,1-2.15.22,16.43,16.43,0,0,0-1,3.85,1.78,1.78,0,0,1-.27.77l.64.26a3.79,3.79,0,0,0,1.3,0,6.23,6.23,0,0,0,1.78-.7,10.64,10.64,0,0,0,1-.73,1.24,1.24,0,0,0,.18-.6A12.6,12.6,0,0,1,83.84,27.85ZM63.5,8.08c0,.11.15.06.16,0A.11.11,0,0,0,63.5,8.08ZM59.24,3.72c-.12.21-.26.4-.38.6l-.32.53a1.18,1.18,0,0,1-.11.19l-.2.36c-.07.13-.15.26-.22.4s0,.07,0,.1c-.19.38-.4.75-.57,1.14l-.07.16-.06.1c-.07.16-.15.32-.21.49L57,7.88c-.05.11-.1.22-.14.33s-.11.2-.16.31A2.63,2.63,0,0,0,57.07,8l.12-.19.11-.2c.11-.18.21-.36.31-.54l.19-.35c.1-.17.19-.34.28-.51l.05-.1.19-.35a2,2,0,0,0,.1-.21.8.8,0,0,0,.08-.16s0-.07.06-.09,0-.11.07-.16.11-.21.16-.31.07-.14.1-.22A.47.47,0,0,1,59,4.48l.18-.43c0-.1.09-.2.14-.29Zm10.9,10.93c-.33,0-.68,0-1,.06a7.18,7.18,0,0,0-2.42.65,4.24,4.24,0,0,0-1.81,2.17,2.52,2.52,0,0,1,.39-.33.88.88,0,0,1,.27-.19,3.43,3.43,0,0,1,.49-.36,4.74,4.74,0,0,1,.51-.24,1.06,1.06,0,0,1,.6-.13l-.11.16-1.1.8c-.32.2-.6.44-.91.65-.11.11-.24.21-.34.32a2,2,0,0,0,0,.24,11.31,11.31,0,0,1,2.21-1.08,6.53,6.53,0,0,0,2-1.15,3.65,3.65,0,0,0,.69-.67c.14-.34.48-.54.63-.87ZM63.29,8.09c-.62.1-1.25.17-1.86.3a8.31,8.31,0,0,0-1.56.4,1.78,1.78,0,0,0-.64.4c.54-.15,1.07-.32,1.62-.45.84-.2,1.67-.43,2.52-.58C63.39,8.11,63.42,8,63.29,8.09ZM75,21.86a3,3,0,0,1-.63-.35,2.07,2.07,0,0,1-.38-.5c-.27-.64-1-.85-1.55-1.08A18.11,18.11,0,0,1,73,22.26a.74.74,0,0,1-.29.34c-.28-.14-.59-.2-.88-.32a3.22,3.22,0,0,1-.28.24.81.81,0,0,1-.36-.12c-.34-.17-.74-.17-1.1-.32l-.06.05A5.58,5.58,0,0,1,71,24.35c.12.11.26.2.39.3a15.27,15.27,0,0,1,1.6,1.51,16.73,16.73,0,0,1,1.75,2.27l.06.09c0,.06,0,.11.07.16a4.78,4.78,0,0,1,.4,1.48q0,.33.06.66c.88.23,1.76.48,2.62.79a1.85,1.85,0,0,1,0-.23,1,1,0,0,0,.32-.53,27.5,27.5,0,0,1,.67-3,1.39,1.39,0,0,1-.7,0,9.37,9.37,0,0,1-1.59-.7,6,6,0,0,1-1.14-.79c-.21-.22-.54-.33-.67-.63a5.47,5.47,0,0,1,.39-1.29,4.73,4.73,0,0,1,.72-1.15,4,4,0,0,1,.83-.82C76.11,22.3,75.53,22.09,75,21.86Zm-5-4.5a6.09,6.09,0,0,0-2.43.32,3.7,3.7,0,0,0-.91.34,4,4,0,0,1,.69-.05,5.51,5.51,0,0,1,.7,0c.31,0,.62,0,.93.05l-.11.09a9.19,9.19,0,0,0-1.57.16l.49.08a4.38,4.38,0,0,0,.81,0c.44,0,.88,0,1.32,0,.64,0,1.28,0,1.91.06A3.09,3.09,0,0,0,69.91,17.36Zm-5.78-5.61a6.72,6.72,0,0,0-.85-.58,7.14,7.14,0,0,0-2-1.16,12.29,12.29,0,0,0-.23,2.26,3.55,3.55,0,0,0,.16.8,7.4,7.4,0,0,1,2,.62,6.11,6.11,0,0,0-.83-1.5,1.84,1.84,0,0,0-.6-.51l.15,0a3.25,3.25,0,0,1,.77.66,8.16,8.16,0,0,1,.91,1.6,4.5,4.5,0,0,1,.56.74A3.89,3.89,0,0,1,64.75,13a2.51,2.51,0,0,0,.27-.37A4,4,0,0,0,64.13,11.75Zm5.7,7a7.73,7.73,0,0,0-1-.06,4.41,4.41,0,0,1,.89.52,7.89,7.89,0,0,1,1.85,2.44,6.73,6.73,0,0,0,.87.27c0-.05,0-.12,0-.17a7.93,7.93,0,0,0-.38-1.6A3.74,3.74,0,0,0,71,18.88ZM56.1,4.55c-.16.28-.38.54-.54.83l-.09.13a2,2,0,0,1-.14.25l-.12.2L55,6.31a.93.93,0,0,0-.05.1c-.17.32-.34.65-.49,1l0,.09-.12.28c-.08.18-.15.37-.24.54a.84.84,0,0,1,0,.17,2.14,2.14,0,0,0-.16.39c-.29.71-.53,1.44-.77,2.18s-.36,1.24-.46,1.88c.09-.15.17-.31.25-.46l.08-.15c0-.06,0-.11.07-.16a1.09,1.09,0,0,0,.08-.15l.08-.17.05-.09c.08-.16.15-.32.22-.48s0-.11.08-.16,0-.07.05-.1.1-.22.14-.33l.06-.09c0-.12.09-.23.13-.34l.06-.09c.05-.11.09-.22.14-.34l.05-.09c0-.09.07-.19.12-.28l.12-.27c0-.11.09-.21.13-.32s.21-.52.33-.77l.06-.16c.44-1.07.81-2.17,1.15-3.28l.06-.06ZM53,2.28l-.36.21a3.9,3.9,0,0,1-.35.19l-.1.06L52,2.88,51.82,3l-.35.2-.1.06-.25.13-.3.17-.19.12-.25.14-.13.09-.2.11-.23.16-.24.16a1.57,1.57,0,0,0-.26.19c-.19.11-.34.27-.52.39s-.47.36-.66.58a10,10,0,0,0-.94,1,5,5,0,0,0-.57.72c-.23.29-.43.6-.63.91l-.15.25-.11.19-.19.35c-.17.29-.3.59-.44.88s-.13.29-.2.43l-.06.17c-.19.4-.31.82-.48,1.23-.31.86-.54,1.75-.91,2.58l-.06.09-.09.23-.06.09c0,.05,0,.1-.08.16s-.09.16-.14.24-.16.26-.23.39a23.14,23.14,0,0,1-1.75,2.41c-.32.31-.63.62-.94.94a1.84,1.84,0,0,1,.33,0c.21-.25.51-.4.73-.64a3.65,3.65,0,0,0,.44-.36c.2-.11.37-.27.57-.38l.2-.11.09-.06.16-.07.33-.14.09-.06.26-.14.09-.05.16-.08.16-.08.15-.08.22-.09a.28.28,0,0,1,.09-.06c.18-.08.37-.15.55-.24a12.44,12.44,0,0,1,3.07-.7,9.89,9.89,0,0,1,1.44,0c.31,0,.62,0,.93,0,.78,0,1.55.16,2.33.26a.78.78,0,0,1,.34.09,12.55,12.55,0,0,1-1.5-.07c-.65-.06-1.3,0-2,0a13.21,13.21,0,0,0-3.85.48,5.6,5.6,0,0,0-1.11.38,3.43,3.43,0,0,0,.34-.06,1.71,1.71,0,0,1,.78,0,20.2,20.2,0,0,1,2.18.49,8.37,8.37,0,0,0,1.78.35,11.43,11.43,0,0,0,1.17,0,10.68,10.68,0,0,0,2.84-.61,1.83,1.83,0,0,1-.5-1.18,1.36,1.36,0,0,1,.34-.25c.42-.23.81-.51,1.21-.76l-.19-.12-.21-.06a10.58,10.58,0,0,0-3.53-.62,4.59,4.59,0,0,0-1,0,11.89,11.89,0,0,0-4.16,1.07c-.45.18-.91.32-1.36.5a1.41,1.41,0,0,0-.5.33,6.19,6.19,0,0,1-.55.47s0-.1,0-.13c.26-.24.33-.62.6-.85s.33-.39.56-.5a1.39,1.39,0,0,1,.31-.23c.26-.21.54-.4.81-.59l.37-.24.2-.11.42-.28.23-.15.29-.19.2-.12.13-.09.36-.19.15-.08.33-.14.1-.06.49-.21.09-.06.21-.1.3-.17a2,2,0,0,1,.25-.14l.13-.09.3-.18.2-.17A4.83,4.83,0,0,0,51.3,9.93a9.82,9.82,0,0,0,.93-1.29,1.09,1.09,0,0,1,.08-.15,1.47,1.47,0,0,1,.1-.22l.05-.09c.07-.21.17-.42.23-.63a20.15,20.15,0,0,0,.51-2.14,4.47,4.47,0,0,0-.08-1.63A3.48,3.48,0,0,1,53,2.28ZM60,10.94a11.33,11.33,0,0,0-3.1.69,6,6,0,0,0-.84.31,33.44,33.44,0,0,0,4.85-.74,2.63,2.63,0,0,0,.08-.3C60.61,10.87,60.28,10.94,60,10.94Zm6.81,7.71a5.36,5.36,0,0,0-1.06.1,2.81,2.81,0,0,1,1.79.86.15.15,0,0,1-.06.05c-.44-.12-.86-.27-1.29-.43A5.34,5.34,0,0,0,65,19h-.25c.07.13.11.3.26.36a13.9,13.9,0,0,1,1.6.78,11.52,11.52,0,0,0,2.83,1.12c.6.2,1.21.35,1.82.5-.25-.44-.52-.87-.81-1.28a7.51,7.51,0,0,0-.93-.94A4.66,4.66,0,0,0,66.76,18.65Zm-5.93-7c-1.12.23-2.23.49-3.36.63-.62.1-1.25.11-1.86.25a7.54,7.54,0,0,0-.79.3l-.35.19-.13.09c-.27.15-.51.33-.77.48a1.13,1.13,0,0,0,.6.11c.5-.07,1-.06,1.51-.11A8.21,8.21,0,0,0,57,13.54c.33-.09.68,0,1-.09a.58.58,0,0,1,0-.62A16.27,16.27,0,0,1,60.9,13,4.94,4.94,0,0,1,60.83,11.68Zm1.42,2.07a15.91,15.91,0,0,0-3.5-.45.73.73,0,0,0-.39,0c.11.21.25.39.36.59a13.16,13.16,0,0,0,.89,1.5c.19.25.41.48.61.73a9.71,9.71,0,0,0,1.6,1.18l.24.16.39.24a12.71,12.71,0,0,1,1.4.77,1.36,1.36,0,0,0,.21.1.86.86,0,0,0-.26-.37c-.12-.2-.32-.35-.45-.55a2.68,2.68,0,0,1-.49-.57,2.85,2.85,0,0,0-.4-.58c0-.07,0-.16.09-.19a2,2,0,0,1,.7.42,15.51,15.51,0,0,1,1,1.29,3.74,3.74,0,0,0,.08-.75,6.82,6.82,0,0,0-.37-2.2,1.69,1.69,0,0,0-.42-.7A2.53,2.53,0,0,0,62.25,13.75ZM81.43,33.41c-1-.45-1.93-.82-2.92-1.19s-2.14-.77-3.24-1.09a5,5,0,0,0,0,.95,1.43,1.43,0,0,0,.21.12l.18,0,.09.06.17,0c.77.34,1.58.6,2.37.89,1,.33,2.05.72,3.1,1a3.27,3.27,0,0,0,1.42.13l.09-.1A5.55,5.55,0,0,0,81.43,33.41Zm4.81,5-.34-.21c-.17-.08-.33-.18-.5-.27l-.64-.29-.37-.17-.28-.12c-.74-.31-1.49-.6-2.25-.86-1.34-.46-2.7-.85-4-1.31l-.25-.09h0a1.9,1.9,0,0,1,.41.34,2,2,0,0,1,.52.19l.17,0,.09.06a5.68,5.68,0,0,1,.78.39l.16.07.16.08.15.08.16.08.16.08.55.29.1.06.16.07c.29.15.57.31.87.45l.15.08c.2.1.39.19.59.27l.09.05.28.12a11.83,11.83,0,0,0,3.53.74ZM69.36,21.87a16.14,16.14,0,0,1-2-.74l.29.3,0,.09a3,3,0,0,1,.46.33,10,10,0,0,1,1,.91l.32.29a1,1,0,0,0,.26.32s0,.08-.06.1a2.22,2.22,0,0,1-.28-.33,8.7,8.7,0,0,0-.8-.68c-.16-.14-.35-.23-.52-.37a3.38,3.38,0,0,1,.55,2,5.46,5.46,0,0,1-.25,1.55c-.12.12-.24.24-.35.37l-.1-.11a2,2,0,0,1-.27-.42c-.33-.63-.77-1.21-1.09-1.85-.12-.19-.19-.44-.4-.55a1.44,1.44,0,0,1-.33-.27,4.07,4.07,0,0,1-.11,2c-.08.15.11.25.22.31a14.61,14.61,0,0,0,1.92.9,1.35,1.35,0,0,0,.34.11c.54.22,1.1.36,1.63.6l.23.2c.11-.21.26-.4.35-.62a3.28,3.28,0,0,0,.23-1.2,5.84,5.84,0,0,0-.71-2.6C69.76,22.27,69.67,21.93,69.36,21.87Zm2.23,3.48a2.63,2.63,0,0,0-.61-.49A2.94,2.94,0,0,1,70.55,27a.58.58,0,0,0,.1.21c.22.27.4.57.59.85l.24.39c.06.12.13.23.2.35l.07.16.08.15a6.16,6.16,0,0,1,.26.67c0,.19.06.38.1.56l-.06.07a5.07,5.07,0,0,0-.49-1.26L71.55,29a12.7,12.7,0,0,0-1.23-1.68,4.27,4.27,0,0,1-.44.3,4.27,4.27,0,0,0-.38-.36,7,7,0,0,0-.8-.32c-.76-.27-1.5-.57-2.24-.91a1.26,1.26,0,0,1,0,.58,4.36,4.36,0,0,1-.33.6c-.05.1.06.16.11.23s.24.32.39.46.28.38.46.54c.53.52,1,1.05,1.57,1.56.37.24.62.61,1,.86.21.16.36.38.59.53s.36.35.56.5.49.48.79.67c.44.39.83.83,1.26,1.23.54.66,1.08,1.33,1.56,2a35.9,35.9,0,0,0,.39-3.74,11.37,11.37,0,0,0,0-1.75,4.23,4.23,0,0,0-.69-2.1A17.26,17.26,0,0,0,73,26.77c-.19-.28-.46-.47-.65-.74A3.58,3.58,0,0,0,71.59,25.35Zm-5.91-5.19L65.43,20l-.14-.12c0,.15.09.24.18.33a1.7,1.7,0,0,0,.15.22A25.74,25.74,0,0,1,67,23L67,23c-.29-.49-.63-.94-.93-1.42s-.45-.75-.69-1.11c0,.61.24,1.2.35,1.81l.06.07.16,0a5.16,5.16,0,0,1,.77.78,11.63,11.63,0,0,1,1.41,2,4.76,4.76,0,0,0,.15-1.5,4.29,4.29,0,0,0-1-2.22c-.17-.18-.32-.37-.49-.56A11.19,11.19,0,0,1,65.68,20.16Zm-.55-.54c-.08-.06-.16.09-.07.13S65.23,19.67,65.13,19.62Zm-1-.25a.43.43,0,0,0-.07.2c0,.3.09.59.07.9A4,4,0,0,1,64,21.6a4.52,4.52,0,0,1-.18-1.1c0-.2,0-.4,0-.6a2.4,2.4,0,0,1-.71.71l0,.09a3.8,3.8,0,0,0-.5.93,4.47,4.47,0,0,0-.36,2.1,3.07,3.07,0,0,0,.72,1.67l0,0a8.39,8.39,0,0,0,.81.77l0,0c.2.15.44.25.65.38a4.6,4.6,0,0,0,.31-.63,6.15,6.15,0,0,0,.63-1.82A5.26,5.26,0,0,0,65,21.94c-.13-.45-.22-.91-.33-1.36A4.39,4.39,0,0,0,64.16,19.37Zm-.7-.27c-.34.13-.69.25-1,.4s-.73.28-1.09.44a6.51,6.51,0,0,0-.9.4l-.08,0a4.71,4.71,0,0,1,.63-.54l-.09.13a7.52,7.52,0,0,1,1.86-1c-.44-.07-.86-.19-1.3-.26A6.23,6.23,0,0,0,60,18.59a4.81,4.81,0,0,0-1,.23,2.82,2.82,0,0,0-.65.43,2.58,2.58,0,0,0-.49,1.84A7.64,7.64,0,0,0,58,22.26q.93-.42,1.89-.75a15.91,15.91,0,0,0,2.36-.89,1.72,1.72,0,0,0,.49-.36l-.08.13c.23-.2.49-.39.71-.6a4,4,0,0,0,.25-.45l.1-.2Zm-6.18-5.16a8,8,0,0,0-3.11,1.33c-.25.18-.53.31-.78.49a2.49,2.49,0,0,0,.11.29l0,0a5.05,5.05,0,0,0,.6.78,4.72,4.72,0,0,0,.8.68c.24.15.39.39.63.54a2.45,2.45,0,0,1,.47.38l0-.05a5,5,0,0,0,1.2.78c.21-.12.41-.25.63-.36a4.36,4.36,0,0,0,.92-.45,7.52,7.52,0,0,1-2.44-.49c-.28-.15-.67-.34-.66-.71a2.58,2.58,0,0,1,1-.9,3.91,3.91,0,0,1,1.67-.47,12.9,12.9,0,0,0-2.68-.49c-.34,0-.68.06-1,.06a.44.44,0,0,1,.28-.14,8,8,0,0,1,3.88.45c.32.08.61.26.94.31a6.71,6.71,0,0,1-1-1.48c-.11-.2-.26-.38-.36-.59A5,5,0,0,0,57.28,13.94Zm3.4,3c-.25-.17-.43-.43-.73-.53a3.85,3.85,0,0,0-1.43-.3,3.45,3.45,0,0,0-2.29.84c-.07.08-.13.17-.2.26a3.39,3.39,0,0,0,1.53.6,13.74,13.74,0,0,1,1.43.4A4.52,4.52,0,0,1,60.78,18a11.39,11.39,0,0,1,1.43.17,22,22,0,0,0-3.58-.88,5.1,5.1,0,0,0-.77-.11l-.11-.08a1.37,1.37,0,0,1,.57,0,23.56,23.56,0,0,1,2.77.47c.32.11.64.21.95.34C61.57,17.66,61.13,17.32,60.68,17Zm24,24.38a4.88,4.88,0,0,0-.54-.48c-.45-.38-.9-.73-1.38-1.06l-.5-.36a5.54,5.54,0,0,0,.67.7,15,15,0,0,1,1.36,1.29l2,2a4.57,4.57,0,0,1,.7.62l0,0a1.44,1.44,0,0,1-.18-.25,9.51,9.51,0,0,0-.71-1c-.19-.17-.3-.41-.5-.58A7.58,7.58,0,0,0,84.7,41.37ZM78.61,37a1,1,0,0,0,0,.25,2.83,2.83,0,0,1,.17.4l.05.09a1.68,1.68,0,0,0,.16.39,1.68,1.68,0,0,0,.16.39c0,.06,0,.12,0,.18l.07.09c0,.06,0,.12,0,.18l.07.09c0,.11.09.22.14.33l.12.27.07.16.06.09.13.34.06.09a3.45,3.45,0,0,1,.14.34l.07.09,0,.18.07.09c0,.06,0,.12.05.18l.06.09c.2.53.42,1,.61,1.57a2.33,2.33,0,0,1,.11.28l.21.41.12.18a4.26,4.26,0,0,0-.22-1.8,16.07,16.07,0,0,0-1.57-3.23l-.24-.39c-.18-.31-.36-.62-.55-.92A2.34,2.34,0,0,0,78.61,37Zm-23.78-23,.34.14.29-.14Zm7.51,7.24a9.61,9.61,0,0,0-1.08,1.21,6.53,6.53,0,0,0-.64,1,4.64,4.64,0,0,1-.44.65.36.36,0,0,1,0-.25,10.67,10.67,0,0,1,.59-1.11c.12-.2.26-.39.39-.58a11.3,11.3,0,0,1,.79-.9c-.62.25-1.26.43-1.9.62l-.18.2a7,7,0,0,0-.58,1.08,2.6,2.6,0,0,0,0,2,.64.64,0,0,0,.21.32,1.25,1.25,0,0,0,.36-.15,5.74,5.74,0,0,0,.79-.69,8.65,8.65,0,0,0,.7-.78,1.57,1.57,0,0,1,.31-.32l.11,0a1.13,1.13,0,0,0,.11-.41,5.65,5.65,0,0,1,.44-1.67A.87.87,0,0,0,62.34,21.3ZM75.06,34.58a7.24,7.24,0,0,1-.22,1.54l.07.09c0,.11.09.22.14.34l.06.09c0,.11.08.22.13.33l.06.09a3.45,3.45,0,0,0,.14.34c0,.05,0,.1.08.16a.73.73,0,0,1,0,.09l.1.21c.12.26.26.52.39.78a.47.47,0,0,0,.06.09,1.47,1.47,0,0,0,.1.22s0,.1.08.16.11.19.17.29l.07.16.12.19c.08.15.18.3.26.45l.18.19a1.69,1.69,0,0,0,.08-.71,4.11,4.11,0,0,0-.15-.93,12.07,12.07,0,0,0-.7-2c0-.11-.09-.22-.14-.33l-.06-.09a2,2,0,0,0-.1-.21A10.57,10.57,0,0,0,75.06,34.58Zm-9.18-8.86-.4-.27c-.16.36-.33.72-.5,1.07a1,1,0,0,1-.38.5c-.11,0-.22-.06-.31-.09a4.88,4.88,0,0,1-1.43-1c-.06.22-.08.44-.12.67s0,.53,0,.8a1.44,1.44,0,0,1-.11-.77,3.87,3.87,0,0,1,.12-.83,4.07,4.07,0,0,1-.66-1.07,3.78,3.78,0,0,1-.24-.95,5.52,5.52,0,0,1-.42.8c-.21.24-.43.46-.64.69a.23.23,0,0,0-.1.2,3.41,3.41,0,0,0,.59,1.78c.12.31.41.49.59.76a1.42,1.42,0,0,0,.5.37,5.72,5.72,0,0,0,1.39.82,4.51,4.51,0,0,1,.54-.53c.28-.28.55-.58.83-.88.06-.19.23-.32.32-.5a7.32,7.32,0,0,0,.55-.93.79.79,0,0,0,.15-.25l.14-.16A3.26,3.26,0,0,0,65.88,25.72ZM50.35,11.41a1,1,0,0,1-.27.21,3.71,3.71,0,0,1-.41.28c-.23.09-.28.36-.39.55s-.05.1-.08.16a2.18,2.18,0,0,0-.11.27,2.69,2.69,0,0,0-.21.56,7.15,7.15,0,0,1,.93-.1c.18,0,.21-.19.27-.32a9.69,9.69,0,0,0,.39-1.61Zm7.52,7.78-.25.11,0,0-.13.13,0-.07a1,1,0,0,1-.31.25c-.24.23-.44.49-.66.73l-.13.23A5.22,5.22,0,0,0,55.63,23c-.11.8-.09,1.62-.18,2.42a1.61,1.61,0,0,0,0,.58,2.65,2.65,0,0,0,1-.13c.58-.17,1.16-.32,1.73-.52a1.67,1.67,0,0,0,.6-.25,2.37,2.37,0,0,1,0-.88A3.28,3.28,0,0,1,59.15,23a1.67,1.67,0,0,1,.25-.38v-.05c.1-.14.29-.27.25-.47l-.33.31h0c-.42.31-.78.68-1.18,1a7,7,0,0,1-.64.57h0c.05-.21.24-.34.38-.5.32-.38.73-.67,1-1.06a6.36,6.36,0,0,0-1,.35l-.16-.14a9.15,9.15,0,0,1-.26-1.65,2.83,2.83,0,0,1,.26-1.44l-.06,0A2.69,2.69,0,0,0,57.87,19.19ZM68.64,30.6c-.23-.15-.37-.39-.6-.52l.1.16a4,4,0,0,0,.2.35l.22.41.16.29.22.4c.07.12.14.23.2.35l.19.35c.06.1.12.2.17.3l.34.59c.07.12.13.24.2.35l.54.94.75,1.26.15.25a2,2,0,0,1,.11.2l.09.13a2.14,2.14,0,0,0,.13.19,22.67,22.67,0,0,0-1-2.79l-.2-.42c0-.06,0-.11-.07-.16l-.32-.62s0-.1-.07-.16-.17-.3-.25-.45l-.31-.54a.43.43,0,0,0-.2-.22C69.09,31.07,68.91,30.78,68.64,30.6ZM55.47,18.44a11.3,11.3,0,0,0-1.53.14c-1,.15-1.92.33-2.87.55s-1.79.4-2.68.62a27.93,27.93,0,0,0-2.92,1,5.11,5.11,0,0,1-.68.28l0,.09A.33.33,0,0,1,45,21a8.53,8.53,0,0,0,1.67-.34,20.11,20.11,0,0,1,2.73-.76c.71-.11,1.42-.15,2.13-.22.29,0,.57-.05.86,0,.94,0,1.81-.47,2.76-.44l1.36.14a.67.67,0,0,0,.52-.06A9.81,9.81,0,0,1,55.47,18.44Zm-.13,1.12a18.14,18.14,0,0,0-2.62.44,3.2,3.2,0,0,1-1,.75,13.25,13.25,0,0,1-4.42,1.43s0,.07,0,.1a1.14,1.14,0,0,1,.45,0c.54,0,1.09.1,1.63.17a1.24,1.24,0,0,0,.43,0,18,18,0,0,0,2.89-.92l.09-.06.33-.14.09-.05.44-.2L54,21l.28-.11.09-.06.28-.11c.54-.23,1.08-.43,1.64-.61.1-.13.22-.25.33-.37C56.19,19.61,55.76,19.61,55.34,19.56Zm-1.22-2.2a1.84,1.84,0,0,0-.41,0c-1.83.26-3.64.58-5.44,1a7.56,7.56,0,0,1-1.42.26l-.88.89,0-.14.26-.26,0-.11-.18.15c-.22.12-.42.26-.63.39l-.59.36a1.69,1.69,0,0,0-.29.17,1.23,1.23,0,0,1,0,.33,2.67,2.67,0,0,1-.25.43l0,0,.24-.12.27-.11.27-.12.27-.12c.57-.23,1.14-.45,1.72-.65A24.77,24.77,0,0,1,49.91,19a40.59,40.59,0,0,1,5-.94C54.65,17.81,54.39,17.58,54.12,17.36Zm-5.23-5-.28.12-.16.08-.1.06-.33.14-.16.08-.09.05-.15.07a1.29,1.29,0,0,1,.36.34l0,.3a1.89,1.89,0,0,0,.41-.1c0-.1.07-.21.11-.31s.13-.33.21-.5ZM65.05,28.69a3.79,3.79,0,0,1-.4.3,3.5,3.5,0,0,1,.29.49c.09.17.19.34.27.51l.06.1.08.16c.42.8.81,1.61,1.22,2.42a.33.33,0,0,1,.06.1,5.3,5.3,0,0,0,1.06,1.5,4.54,4.54,0,0,0-.3-1.26q-.12-.33-.27-.66l-.06-.17L67,32.09l-.07-.16c-.11-.23-.22-.45-.34-.67,0-.06,0-.11-.08-.16s-.16-.3-.25-.45a2,2,0,0,0-.14-.25l-.55-.92-.28-.42C65.22,28.93,65.13,28.81,65.05,28.69Zm-9.7-7.85-.17.05-.37.18-.33.14-.09.05-.49.22-.16.08-.09.05-.49.22-.16.08-.09.06-.33.14a10.29,10.29,0,0,1-1.35.48,11.28,11.28,0,0,1,1.16.07,2,2,0,0,0,.86-.15c.72-.19,1.42-.44,2.13-.66a5,5,0,0,1,.55-1.23A3.14,3.14,0,0,0,55.35,20.84Zm5.08,4.77a2.23,2.23,0,0,1-.78.54A12.36,12.36,0,0,1,61,27.44a2.87,2.87,0,0,1-.46-1.61A.58.58,0,0,0,60.43,25.61ZM73.22,38.83c-.14-.11-.29-.21-.44-.31l-.24-.16-.29-.19-.2-.11L71.92,38l-.25-.14-.1,0-.19-.12-.16-.08-.16-.08-.15-.07-.16-.08-.15-.08-.16-.08-.15-.08L70,37l-.08-.07-.19,0-.09-.07a8.36,8.36,0,0,0-2.6-.66,5.08,5.08,0,0,1,.51.41l.27.14.09.06a4.43,4.43,0,0,1,1,.33l.15.08.16.08.2.11.13.09.25.14.2.12.53.32.19.12.16.07.15.09.22.09.09.06a1.69,1.69,0,0,1,.28.12,18.8,18.8,0,0,0,2,.51A.91.91,0,0,0,73.22,38.83ZM46.74,13.49l-.37.25-.19.11L46,14l-.25.14-.13.09-.3.19-.17.12-.3.19-.14.12,0,0,.1-.09.18-.06.27-.12c.16-.07.33-.13.49-.21l.17-.06a1.56,1.56,0,0,1,.41-.15,7,7,0,0,1,.69-.86A3,3,0,0,0,46.74,13.49ZM72.52,39.16a4.47,4.47,0,0,1-1.34-.38L71,38.73l-.11-.09,0,0c.22.11.37.31.58.44s.31.3.5.42.57.56.87.84a2.33,2.33,0,0,1,.37.46c0,.08,0,.15,0,.23a1.41,1.41,0,0,0-.4-.47c-.21-.12-.35-.33-.55-.46s-.31-.29-.5-.41-.32-.33-.51-.46a8.42,8.42,0,0,1-.72-.62c.2.24.42.46.65.69a8.41,8.41,0,0,1,.59.84,5.89,5.89,0,0,1,.64,1.63.73.73,0,0,0,.22.16l.09.05.41.22c.31.18.62.36.92.55a1.71,1.71,0,0,1,.27.2.49.49,0,0,1,0-.12,8.17,8.17,0,0,0-.46-1.53l-.06-.09a9.3,9.3,0,0,0-.41-.84l-.06-.1A11.07,11.07,0,0,0,72.52,39.16ZM58.59,25.51a1.69,1.69,0,0,1-.27.11,5.23,5.23,0,0,1,.56.48,11.15,11.15,0,0,1,.95,1,3.82,3.82,0,0,0,.34.36c.88,1.06,1.75,2.14,2.57,3.25.23.27.41.59.66.83a5.72,5.72,0,0,0-.32-.66c0-.08-.1-.16-.14-.24l-.21-.34c-.15-.26-.34-.5-.5-.75a1.73,1.73,0,0,1-.19-.28c-.34-.42-.67-.85-1-1.26a4.78,4.78,0,0,1-.47-.54c-.31-.32-.63-.62-.93-.94-.12-.11-.23-.27-.41-.26A2.44,2.44,0,0,0,58.59,25.51Zm-3.3-3.22-1,.34c-.22.08-.46.11-.68.21l1.56.38A7.5,7.5,0,0,1,55.29,22.29Zm-4.76-2.05a10.77,10.77,0,0,0-1.14.15l-.16.09-.09.05-.16.08-.63.3-.38.17-.27.11-.27.12-.27.12-.28.11-.39.16c-.33.13-.68.25-1,.39a1.26,1.26,0,0,0,.51,0,20.64,20.64,0,0,0,4.57-1.19l.32-.14.16-.08.1,0,.16-.08a5.16,5.16,0,0,0,.8-.51C51.57,20.09,51.05,20.19,50.53,20.24Zm19,18c-.17-.18-.39-.3-.57-.47s-.36-.26-.54-.39a1.94,1.94,0,0,1-.24-.15,1.5,1.5,0,0,1-.25-.19l0,0c.3.45.67.87,1,1.35a1.51,1.51,0,0,0-.11.22c-.49.12-1,.2-1.49.3a4.19,4.19,0,0,0,.69.38l.1.05.43.27a3.88,3.88,0,0,0,.33.23l.24.2c.25.12.38.39.64.49l-.07.09-.18-.16a1.24,1.24,0,0,1-.32-.23,3.88,3.88,0,0,1-.33-.23l-.24-.16a1.82,1.82,0,0,0-.23-.15l-.13-.09L68,39.5l-.37-.25a.59.59,0,0,1-.35-.27,4,4,0,0,0-.49,0,1.48,1.48,0,0,0,.3.21,1.71,1.71,0,0,0,.27.2,2,2,0,0,0,.28.19l.63.48a1.25,1.25,0,0,0,.3.21l.32.29c.24.11.39.36.6.54l0,0a6.8,6.8,0,0,0-.6-.46,1.2,1.2,0,0,0-.27-.19l-.17-.13a1.65,1.65,0,0,1-.27-.19,1.82,1.82,0,0,1-.23-.15l-.3-.19a1.88,1.88,0,0,0-.23-.16l-.23-.15-.38-.24-.23-.15-.23-.17-.43-.19-.17-.06-.27-.12-.3-.16a1.12,1.12,0,0,1-.24-.19l0,0c.14.13.27.27.41.39a.53.53,0,0,1,.25.19,10,10,0,0,1,1.37,1.9,8,8,0,0,0,1.36,1.59,3,3,0,0,1,.45.35c.21.12.4.3.61.42a1.88,1.88,0,0,0,.23.16l.46.31.2.11.1.06.16.07a3.16,3.16,0,0,0,1.29.25,1.29,1.29,0,0,1,.63.17,15,15,0,0,0-.79-3.51l0-.09a1.11,1.11,0,0,1-.07-.16,1.19,1.19,0,0,1-.08-.16,6.89,6.89,0,0,0-.66-.94c-.21-.19-.34-.43-.54-.62S69.75,38.44,69.58,38.25ZM55,23.8c-.92-.2-1.84-.42-2.78-.57a.64.64,0,0,0-.33.05l.23.06.09.07.18,0,.09.07.34.13.09.06.48.22a.8.8,0,0,1,.16.08l.09,0,.17.07.15.08c.14.07.27.15.4.23l.16.07.3.17.19.1c0-.3,0-.6,0-.89Zm-6.55-6.07c0,.06.09.06.13,0S48.51,17.67,48.47,17.73Zm8.23,8.54a3,3,0,0,1-1.15.2.59.59,0,0,1-.51-.28c-.17-.33,0-.7,0-1.05,0-.09-.1-.12-.16-.16l-.55-.3-.35-.19-.1-.06-.35-.19-.21-.1-.1-.06L53,24l-.1-.06-.16-.08-.21-.1-.09-.06-.49-.21-.09-.06a1.43,1.43,0,0,0-.82,0l.15.08.1.05.21.1.3.17c.22.11.42.25.64.38a9.74,9.74,0,0,1,1.05.77c.24.15.4.38.63.53s.41.41.65.58a7,7,0,0,1,.84.8c.16.16.35.26.51.42a4.89,4.89,0,0,0,.52.5c.32.21.54.54.87.75s.62.52.91.81.61.56,1,.78c-.07-.32-.2-.63-.3-.95l0-.09c-.08-.18-.17-.36-.26-.53l-.12-.19a8.53,8.53,0,0,0-1.21-1.47C57.2,26.65,56.92,26.49,56.7,26.27Zm9.53,9.93-.16-.07L66,36.07a2,2,0,0,1-.4-.16,5.82,5.82,0,0,0-1-.2,8.39,8.39,0,0,0-1.5.08l0,0a13.66,13.66,0,0,1-1.4.88,2.36,2.36,0,0,0-.6.62,6.68,6.68,0,0,0-.54.74,2.23,2.23,0,0,0-.15.63A3.26,3.26,0,0,0,60.76,40c.21.43.5.8.71,1.22a7.63,7.63,0,0,0,.34-1A9.82,9.82,0,0,0,62,38.61c0-.3,0-.6,0-.9a.8.8,0,0,1,.46,0c.1.19.19.38.28.58s.13.28.19.42.13.29.19.43a1.09,1.09,0,0,1,.08.15l.24.48.05.09a4.93,4.93,0,0,0,1.22,1.57,6.54,6.54,0,0,0-.56-2.85c-.07-.14-.13-.29-.19-.43L63.94,38c0-.08-.07-.15-.1-.22s-.18-.33-.28-.49a.46.46,0,0,0-.15-.16l-.16-.2c0-.21.28-.16.43-.17.57.41,1.08.91,1.68,1.3.06,0,.12.08.19.11l.16.07.09.06a2.67,2.67,0,0,0,1.33.27c.42,0,.84-.15,1.26-.22-.29-.3-.51-.66-.79-1A4.61,4.61,0,0,0,66.23,36.2Zm-19.72-19a2.72,2.72,0,0,0-.34.42,12.76,12.76,0,0,0-.94,1c-.29.36-.67.66-1,1,.93-.59,1.84-1.22,2.74-1.85a.8.8,0,0,1,.08-.16c0-.08.13-.2.06-.28A4.44,4.44,0,0,0,46.51,17.19ZM45,16.85c-.19.17-.31.4-.48.58l-.94,1.16a4.79,4.79,0,0,0-.46.55,5.27,5.27,0,0,1,.74.49,2.16,2.16,0,0,0,.38-.42c.19-.28.48-.46.67-.74a7.43,7.43,0,0,1,.53-.59c.18-.29.46-.49.63-.79C45.7,17,45.34,16.94,45,16.85ZM36.83,8.27l-.19-.12-.16-.07L36.38,8,36.22,8l-.15-.08-.33-.14a8.61,8.61,0,0,0-1-.4,5.05,5.05,0,0,0-2.25-.21c-.51,0-1,.11-1.52.18-1,.14-2,.26-3,.46a5.79,5.79,0,0,1,.68.72l.11.19.05.1c.05.11.1.22.14.33a.73.73,0,0,0,.05.09l.18.38,0,.09a1.88,1.88,0,0,0,.16.23,3.29,3.29,0,0,0,.5.56A17.75,17.75,0,0,0,32,11.89a14.77,14.77,0,0,1,2.18,1.58c.4.41.81.8,1.21,1.21.23.32.52.6.74.94a1.65,1.65,0,0,1,.19.27c.11.15.22.31.31.46s.11.16.16.24l.08.13.12.2c.08.13.15.27.22.41l.06.09.11.23a7.6,7.6,0,0,1,1-.65c-.05-.27-.05-.54-.1-.81a11.39,11.39,0,0,0-.73-2.5l-.06-.09-.1-.22-.08-.15c-.05-.1-.11-.2-.17-.3a5.47,5.47,0,0,0-.65-.87,4.27,4.27,0,0,0-.93-.92,6.43,6.43,0,0,0-.76-.62c-.15-.12-.32-.24-.48-.35L34,10l-.3-.16-.15-.09-.33-.1.07-.06.26.09.09.06.17.07.44.26.13.09a5.4,5.4,0,0,1,.47.3,9.37,9.37,0,0,1,.78.59c.2.22.48.35.67.58s.42.35.54.6a1.61,1.61,0,0,1,.31.38,1.88,1.88,0,0,1,.16.23l.16.23.11.19c.07.12.13.24.19.36l.06.09.13.33.06.1c.1.29.23.56.31.86a7.54,7.54,0,0,1,.37,1.82l.14-.06a.28.28,0,0,0,.09-.06,1.08,1.08,0,0,1,.52-.13l.18.1s0,.07,0,.11c-.22.58-.37,1.18-.61,1.75l-.14.33s-.08.1-.1.14.2-.06.24-.16l.06-.1.09-.21.06-.1a3.9,3.9,0,0,1,.19-.35c.14-.25.28-.5.43-.74l.14-.25.31-.54c.09-.17.19-.34.27-.51l.06-.1a2.92,2.92,0,0,0,.31-1.33,2.75,2.75,0,0,0-.26-.93,4.93,4.93,0,0,0-.23-.46L40.37,13c-.07-.13-.15-.25-.23-.38l-.12-.2c-.07-.13-.15-.26-.23-.38a2,2,0,0,1-.11-.2l-.12-.19-.15-.25c0-.1-.11-.2-.17-.3l-.14-.25-.05-.09c0-.09-.1-.17-.14-.26l-.06-.09c0-.09-.09-.17-.14-.26l-.09-.13a2,2,0,0,0-.11-.2l-.16-.23C38.2,9.42,38,9.2,37.86,9A7.38,7.38,0,0,0,36.83,8.27Zm5.83,9.22-.09.06-.26.14-.16.13c-.17.06-.25.24-.42.3a4.46,4.46,0,0,1-.63.52,4.49,4.49,0,0,1,1.54.26A13.65,13.65,0,0,1,44,17.09,5.59,5.59,0,0,0,42.66,17.49ZM59.17,32.78l-.52-.26c-.32-.16-.57-.43-.9-.58l-.09-.06c-.73-.29-1.52-.42-2.26-.69a14,14,0,0,0-1.91-.46,7.84,7.84,0,0,1-1.56-.49c-.94-.37-1.92-.64-2.87-1-.6-.23-1.26-.29-1.87-.49L47,28.69l-.42-.27c-.18-.12-.35-.23-.53-.33l-.35-.19-.16-.07-.15-.08-.34-.14L45,27.55l-1-.37c0,.41.12.8.18,1.21.34.09.69.18,1,.25.55.11,1.08.32,1.63.42s1.32.24,2,.35a3.55,3.55,0,0,1,1.28.36,4.49,4.49,0,0,0,1.13.35c.31.07.59.22.9.3a5.1,5.1,0,0,1,.78.26c.25.13.48.3.72.45l.16.08c.42.21.9.25,1.33.44l.45.26c.23.09.45.18.68.25a12.16,12.16,0,0,1,1.31.77,3,3,0,0,1,.81.85,5.65,5.65,0,0,1,.63.76l.05.1s0,.1.08.16a2,2,0,0,1,.13.34,3.82,3.82,0,0,0,.64.48A10.57,10.57,0,0,1,61,36.5c.12-.1.25-.18.38-.27l.57-.29.09-.06.16-.09c-.27-.3-.5-.65-.77-.95L60.53,34A6.06,6.06,0,0,0,59.17,32.78Zm5.5,5.76a8,8,0,0,1,.51,2.55,3.28,3.28,0,0,1,0,.83l-.09.1a2.07,2.07,0,0,1-.33-.1,5.61,5.61,0,0,1-.55-.41,7,7,0,0,1-1.26-1.75l-.06-.09-.09-.22,0,0c0,.28.08.55.11.83a4.64,4.64,0,0,0,.3,1.09,11.33,11.33,0,0,0,.78,2.18.53.53,0,0,0,.06.1l.21.48.21.33A10.78,10.78,0,0,0,65.63,46c.14.24.37.41.5.66a3.46,3.46,0,0,0,.7-.91s0-.07,0-.1a5.07,5.07,0,0,0,.3-1.22,5.93,5.93,0,0,0-.54-3c-.07-.14-.13-.29-.19-.43a4,4,0,0,1-.2-.35l-.39-.62A6.18,6.18,0,0,0,65,39C64.88,38.82,64.8,38.66,64.67,38.54ZM69,43.46a1.88,1.88,0,0,0-.23-.16l-.17-.12a4.89,4.89,0,0,1-.68-.52,3.21,3.21,0,0,1-.51-.46c0,.1,0,.2.07.3l.34.35a49617005597913.95,49617005597913.95,0,0,0,.54.7c.05.15.2.24.26.39a1.64,1.64,0,0,1,.2.26l.16.23a2,2,0,0,0,.11.2l0,.09.08.17a.75.75,0,0,0,.06.13l-.08.07a2.6,2.6,0,0,0-.1-.25,1.88,1.88,0,0,1-.16-.23l-.12-.17a1.67,1.67,0,0,0-.16-.24c-.31-.45-.63-.91-1-1.35a.8.8,0,0,0-.15-.21A5.65,5.65,0,0,1,67.62,45a.79.79,0,0,0,.27.21l.13.09c.17.09.33.2.49.3l.48.31a13.3,13.3,0,0,0,1.12.86,4.57,4.57,0,0,0,0-1,6.21,6.21,0,0,0-.35-1.33l-.06-.09c0-.13-.12-.25-.17-.37l-.21-.34A2.9,2.9,0,0,0,69,43.46ZM48.79,24.52l-.19-.12a2,2,0,0,1-.25-.14l-.3-.17L47.9,24l-.37-.18-.16-.07-.09-.07-.18,0L47,23.58c-.22-.06-.43-.14-.64-.21a14.75,14.75,0,0,0-1.71-.43l0,0,.23.06.08.06.34.14.09.06.22.09.15.09.16.07.29.17.16.08a13.1,13.1,0,0,1,1.48.54l.48.22.09.05a2.73,2.73,0,0,1,1.33,1.18A.85.85,0,0,0,50,26l.57.35.62.39.19.12a2,2,0,0,1,.25.14l.3.17.4.21.1.06.33.14.11.08,0,0C51.53,26.58,50.24,25.44,48.79,24.52ZM44.5,21.58a9.12,9.12,0,0,0-1.24.34c-.26.07-.44.3-.66.44a8.26,8.26,0,0,0,1-.14c.6-.2,1.18-.44,1.78-.66a3.26,3.26,0,0,0,.44-.15C45.37,21.45,44.93,21.51,44.5,21.58ZM57,33.21l-.2-.12-.35-.19a5,5,0,0,0-.74-.35l-.16-.06a9.55,9.55,0,0,0-1-.51l-.79-.26-.09-.07-.22-.09L53,31.29a5.62,5.62,0,0,0-1.57-.63c0,.26,0,.52,0,.78,0,.52-.12,1-.17,1.55a13.5,13.5,0,0,1-.64,4,14.68,14.68,0,0,1,3.81,1l.28.11.09.06.37.17.16.09a1.65,1.65,0,0,1,.75.66c0,.08,0,.17,0,.26a2.14,2.14,0,0,1-1.39.13c-1.69-.21-3.37-.5-5-.86a5.84,5.84,0,0,1-.85.63c-.13.09-.27.18-.39.28.45.31.9.65,1.34,1a.5.5,0,0,0,.27,0,24,24,0,0,1,5.2.61c.91.2,1.83.38,2.74.63.14-.51.27-1,.44-1.51,0-.09.08-.19.11-.28l.06-.1a3.44,3.44,0,0,1,.43-.77,2,2,0,0,0,.25-.34c.13-.15.24-.34.42-.42s.11-.17.14-.26.07-.19.1-.29a9.59,9.59,0,0,1,.82-1.08,12.26,12.26,0,0,0-1.62-1.16c-.29-.2-.35-.58-.55-.86s-.55-.54-.75-.88A5.43,5.43,0,0,0,57,33.21ZM43.11,19.59A4,4,0,0,0,40.66,19a9.74,9.74,0,0,0-2.08.36,3.62,3.62,0,0,1-.22.32,2,2,0,0,1-.11.2l-.19.29-.12.17a1.82,1.82,0,0,1-.15.23,2.64,2.64,0,0,0-.23.35l-.2.21,0,0a3,3,0,0,1,.67-.45,8.05,8.05,0,0,1,3.22-.57c.29,0,.65,0,.88.19-.06.34-.39.53-.58.8a6.6,6.6,0,0,1-1.87,1.78h0a5.78,5.78,0,0,1,1.1-.11,3.73,3.73,0,0,0,.67-.32l.09-.05a11.06,11.06,0,0,0,2-1.36c.23-.23.46-.47.7-.7A6,6,0,0,0,43.11,19.59ZM48.17,25,48,24.9l-.21-.09-.09-.06c-.39-.17-.78-.32-1.18-.47a39.74,39.74,0,0,0-4.17-1.05l0,0c.14.09.27.19.41.27a14.22,14.22,0,0,1,1.17,1.16c0,.15-.15.23-.23.34h-.2a11.42,11.42,0,0,1,1.14.83A7.82,7.82,0,0,1,45.8,27c.13.19.33.34.45.54a8.25,8.25,0,0,1,.88.57,1.38,1.38,0,0,0,.53.26,14.42,14.42,0,0,1,1.75.43c.36.13.74.22,1.1.35l.05-.05-.05-.14-.12-.27-.12-.28a.73.73,0,0,1-.05-.09L50.1,28,50,27.75c0-.09-.07-.18-.11-.27-.16-.48-.34-.95-.53-1.41a3.3,3.3,0,0,0-.41-.57A5.67,5.67,0,0,0,48.17,25ZM62.39,39.24c-.06,0-.06.09,0,.14S62.46,39.28,62.39,39.24Zm0,.27A5.2,5.2,0,0,1,62,41l-.13.33a1.93,1.93,0,0,1-.3.39l-.21-.08c-.16-.22-.3-.45-.48-.66a7.3,7.3,0,0,0-.46,1.66,11.11,11.11,0,0,0-.11,1.16c-.1-.15-.05-.33-.06-.5a6.25,6.25,0,0,1,.39-2.1l.16-.34c-.08-.14-.18-.27-.26-.4a3.91,3.91,0,0,1-.26-.44,3.17,3.17,0,0,0-.32.49l-.12.27a2.74,2.74,0,0,0-.15.4l-.06.09-.05.17A8.83,8.83,0,0,0,59,43.18c-.11-.17,0-.38,0-.57a8.17,8.17,0,0,1,.5-1.8l.06-.09c.08-.2.24-.35.33-.54l.28-.27L60,39.62a2.83,2.83,0,0,1-.23-.75l-.16.28-.25.38c0,.06,0,.12,0,.18a1.48,1.48,0,0,0-.25.31,1.28,1.28,0,0,0-.11.2l-.06.09A32.3,32.3,0,0,0,58,43.46a22.63,22.63,0,0,0-.44,2.82,4.33,4.33,0,0,1,1.34-.23,8.1,8.1,0,0,0,1.91-.2,1.36,1.36,0,0,0,.45-.37,2.93,2.93,0,0,0,.47-1A3.35,3.35,0,0,0,62,43.8a13.86,13.86,0,0,0,.57-2.63C62.46,40.62,62.39,40.07,62.36,39.51ZM44.87,22.82c.05.06.09.06.13,0S44.92,22.76,44.87,22.82Zm-5.66-5.74-.19.11-.1,0-.35.2a2,2,0,0,0-.25.14l-.43.27c-.25.17-.48.37-.73.55a4.88,4.88,0,0,0-.59.69,4,4,0,0,0-.52,1.8,2.66,2.66,0,0,0,0,.89,3.12,3.12,0,0,0,.13.81,4.32,4.32,0,0,1,.18-1.29.31.31,0,0,0,.07-.09c0-.06,0-.12.05-.18l.06-.09a2.86,2.86,0,0,1,1.17-1.33l.13-.09.14-.06,0,0a.92.92,0,0,1-.29.23,2.57,2.57,0,0,0-.53.56l-.15.23-.09.13c0,.06-.05.11-.07.16l-.12.28a6.62,6.62,0,0,0-.33,1.07c.22-.21.38-.46.57-.68,0-.06.05-.11.07-.16s.11-.2.17-.3l.19-.35.12-.19a1.18,1.18,0,0,1,.11-.19c.09-.15.18-.29.28-.43s.12-.19.18-.29.22-.35.32-.53l.14-.25.06-.1.08-.16c0-.05,0-.11.05-.16A8.37,8.37,0,0,0,39.21,17.08Zm1.14,3.55a7.44,7.44,0,0,0-2,.44l-.15.08-.16.08a4.31,4.31,0,0,0-1.38,1.34l-.09.13-.12.2c-.06.12-.12.24-.17.36a6.41,6.41,0,0,1,.89-.66l.13-.09a5.12,5.12,0,0,1,1.06-.43.43.43,0,0,1,.25,0,4.06,4.06,0,0,1-.84.64A16.48,16.48,0,0,0,36,23.9c0,.08,0,.17-.05.26l.29-.17c.12-.06.24-.13.37-.18l.09-.06.33-.13a24.33,24.33,0,0,0,2.59-1.07l.19-.12a4.18,4.18,0,0,0,1.29-1.15,4.24,4.24,0,0,0,.58-.69A10.3,10.3,0,0,0,40.35,20.63ZM62.74,42.09c-.06,0,0,.15,0,.16S62.8,42.09,62.74,42.09ZM50,30.21a2,2,0,0,0-.25-.14,2.75,2.75,0,0,0-.79-.23c-.5-.07-1-.17-1.51-.25a6,6,0,0,1,.42,1.19,22.6,22.6,0,0,1,.66,3.15c.09.69.15,1.39.19,2.09a4.53,4.53,0,0,1-.16,1.72c0,.07-.06.2-.18.16a1.49,1.49,0,0,0,.15-.75,9.34,9.34,0,0,0-.1-1.29c-.09-.67-.16-1.34-.25-2a20.64,20.64,0,0,0-.62-2.91A7,7,0,0,0,47,29.58c-.07-.14-.25-.12-.38-.16-.6-.12-1.16-.36-1.75-.47a7.15,7.15,0,0,1-2-.64l-.33.25c.06.13.13.27.18.41l.12.27a1.09,1.09,0,0,0,.08.15c0,.06,0,.11.07.16l.06.1a17.3,17.3,0,0,0,1.17,1.8L45.39,33c.28.41.55.82.8,1.26l.11.19.06.1.08.16.09.21.06.09a6.9,6.9,0,0,1,.29.8A6.28,6.28,0,0,1,47,38.43c0,.5-.14,1-.12,1.48.27-.14.51-.32.77-.46l.13-.09.43-.27a4.21,4.21,0,0,0,1.56-1.4c.07-.14.14-.28.2-.42l.12-.27a9,9,0,0,0,.47-2.1c.09-1,.12-2,.27-3a5.9,5.9,0,0,0,.07-1.39C50.61,30.37,50.3,30.33,50,30.21Zm12.69,12.1a23.26,23.26,0,0,1-.72,2.6.6.6,0,0,0-.07.27,13.34,13.34,0,0,0,1,3.4,2.75,2.75,0,0,1,.15.36c.07-.15.15-.29.22-.43.16-.32.31-.65.44-1a4.61,4.61,0,0,0,.5-2.44,9.24,9.24,0,0,1-.67-1l-.18-.37-.05-.09-.12-.28-.24-.61a14.27,14.27,0,0,1-.11,3.13.61.61,0,0,1-.12.34c0-.29.06-.59.07-.88V43.54A5.64,5.64,0,0,0,62.71,42.31ZM41.79,23.43a4.15,4.15,0,0,0-2.29-.08,9.57,9.57,0,0,0-1.59.43c.45,0,.9,0,1.36,0a5.14,5.14,0,0,1,1,.12c-.32.14-.67,0-1,.07a4,4,0,0,0-.69.09l.66.12c.22,0,.44,0,.66,0,.42,0,.85,0,1.28,0,.65,0,1.29.09,1.93.14A3.48,3.48,0,0,0,41.79,23.43Zm-6.5-6.31a16.07,16.07,0,0,0-1.79-1.31l-.1-.06-.16-.07-.25-.1a4,4,0,0,1-.13.77,7.37,7.37,0,0,0-.19,1.4,4,4,0,0,0,.14.91,9.91,9.91,0,0,1,1.53.43l.09.06.16.07.19.12-.13-.4-.12-.27a2.92,2.92,0,0,0-1.08-1.39l.15,0a.69.69,0,0,0,.13.11,3.12,3.12,0,0,1,1,1.25l0,.09c.05.11.1.23.14.34l.05.09c0,.09.08.19.13.28a1.21,1.21,0,0,0,.05.18,2.61,2.61,0,0,1,.54.77A4.39,4.39,0,0,1,36,19.3l.18-.36c.12-.2.26-.38.38-.58A5.16,5.16,0,0,0,35.29,17.12Zm8,8.29a3,3,0,0,1,.51,1.11,8.41,8.41,0,0,1,1.26.41A14.2,14.2,0,0,0,43.31,25.41Zm-1.05-.57c-.7-.06-1.39-.21-2.09-.25l.22.11.23.15a6.07,6.07,0,0,1,1.91,2.29c.1.18.19.37.28.55a2.1,2.1,0,0,1,.42.15l.11.05.35.09a8.79,8.79,0,0,0-.33-1.83A3.86,3.86,0,0,0,42.26,24.84ZM55.27,39,55,38.82l-.1-.06-.37-.17-.1-.06-.27-.11a17.06,17.06,0,0,0-3.71-1l-.09.22-.09.16a1.83,1.83,0,0,1-.31.42c1.34.3,2.71.52,4.07.7a8.67,8.67,0,0,0,1.34.12Zm6.41,6.58c-.09.1-.16.22-.25.33a3,3,0,0,1-.34.25l-.27.12.31.13.27.12.38.16C61.73,46.28,61.74,45.91,61.68,45.54Zm-3.92-3.25c-2-.46-4-.95-6.08-1.24a10.09,10.09,0,0,0-1.34-.11,4.89,4.89,0,0,0,1.3.57c.91.32,1.86.53,2.8.76s2,.52,3,.7c.06,0,.14,0,.19,0,.08-.2.1-.41.18-.61ZM37.64,24.44c-.16,0-.36,0-.49.06.2.1.44.14.65.22l.26.13a2.63,2.63,0,0,1,.72.61,1.16,1.16,0,0,1-.37-.07,7.56,7.56,0,0,0-2.4-.72s.05.11.06.15a.46.46,0,0,0,.28.28,3.54,3.54,0,0,1,.52.25l.1,0,.35.19.25.15.13.09L38,26l.19.12.35.19.16.08.16.07.09.06.33.14c.31.13.63.25,1,.37l.58.19c.53.21,1.09.35,1.64.52a2,2,0,0,1-.11-.2.41.41,0,0,1-.05-.09L42,27a5.76,5.76,0,0,0-.91-1.23A4.46,4.46,0,0,0,37.64,24.44Zm-3-4.72a5,5,0,0,0-1.4-.51,17.71,17.71,0,0,0-3.32-.47c.05.1.1.2.16.3a3.9,3.9,0,0,1,.19.35l.06.1c0,.05.05.1.07.16l.11.21.07.15a.8.8,0,0,1,.08.16,1.09,1.09,0,0,1,.08.15l.08.16.2.33a8.87,8.87,0,0,0,.59.78,7,7,0,0,0,1.23,1.06,2.22,2.22,0,0,1,.27.19l.33.23.41.27.19.12.26.14.09.06.16.07.19.12.2.11a2.17,2.17,0,0,0,.47.32c0-.21-.22-.31-.3-.49a10.12,10.12,0,0,1-.82-1l-.12-.19-.2-.38-.06,0c0-.09,0-.29.1-.26s.42.27.62.4a13.39,13.39,0,0,1,1,1.39,5.18,5.18,0,0,0,.06-1.57,5.5,5.5,0,0,0-.33-1.65A1.78,1.78,0,0,0,34.61,19.72ZM61.33,47,61,46.82l-.1-.07-.17,0a6.78,6.78,0,0,0-.85-.33,3.05,3.05,0,0,0-.8,0l.26.13.44.19.09.06.28.11.27.12.27.11,1.28.5-.06-.36A3.23,3.23,0,0,0,61.33,47ZM57.56,43.5A24.21,24.21,0,0,1,55,43c-1-.25-2-.46-3-.75l0,0c.66.5,1.3,1,1.94,1.56.22.13.35.44.64.43a.91.91,0,0,1,.53.15,5.9,5.9,0,0,0,.6.17c.51.14,1,.29,1.51.46l.09,0A12.47,12.47,0,0,1,57.56,43.5ZM41.21,28a2.27,2.27,0,0,0,.23.47.47.47,0,0,0,.06.09A5.89,5.89,0,0,1,42,30.4a4.28,4.28,0,0,1-.12,1.78l-.06.17-.06.09c0,.06,0,.11-.07.17l-.15.25a2,2,0,0,1-.4.49,2.59,2.59,0,0,1-.33.19l-.12-.07a.89.89,0,0,0-.37-.35l-.09,0a5.62,5.62,0,0,1-.56-.25,13.47,13.47,0,0,1-.55,1.5c-.06.19-.14.37-.21.56s-.21.51-.33.76a1.54,1.54,0,0,0,0,.17l-.07.1c0,.06,0,.12-.05.18l-.07.09a1.54,1.54,0,0,1,0,.17c-.08.16-.14.33-.22.5a1.54,1.54,0,0,1-.05.17l-.06.09-.09.3-.07.09a3.09,3.09,0,0,1-.18.51l-.12.27a1.83,1.83,0,0,1,.17-.76c.26-.9.59-1.78.91-2.66.25-.71.54-1.42.78-2.14l-.13-.06-.09-.06L39,32.55l-.09-.06-.33-.13-.1-.06-.33-.14L38,32.08,37.83,32l-.19-.08a22,22,0,0,0-.33,2.91c-.08.62,0,1.25-.06,1.87,0,.44,0,.88,0,1.32a11.49,11.49,0,0,0,.22,3,.53.53,0,0,0,.2-.13L39,39.61a4.74,4.74,0,0,1,.4-.49c.16-.26.35-.5.49-.76l.12-.2a2.75,2.75,0,0,1,.17-.29,9.27,9.27,0,0,1,.79-1.27,5.48,5.48,0,0,1,1.6-1.35,4.17,4.17,0,0,0,1.1-1,2.43,2.43,0,0,0,.2-1,6.1,6.1,0,0,0-.28-2l-.06-.1c-.25-.37-.54-.72-.76-1.11L42.65,30l-.12-.2c-.07-.13-.15-.26-.22-.4a.53.53,0,0,0-.06-.1l-.09-.21a.53.53,0,0,1-.06-.1c-.07-.16-.15-.32-.22-.49a.47.47,0,0,0-.06-.09l-.09-.23A4.48,4.48,0,0,1,41.21,28Zm-.52-.18c-.34-.14-.69-.22-1-.38l-.28-.1-.28-.11L39,27.17a5,5,0,0,1-.52-.25,3.73,3.73,0,0,1,.36.43c.17.1.29.26.46.37a3.15,3.15,0,0,1,.47.43c.27.28.56.54.82.83,0,.16.24.25.21.43-.2-.16-.3-.4-.48-.56s-.39-.29-.55-.47-.39-.28-.55-.46l0,0A3.29,3.29,0,0,1,39.69,30a5.5,5.5,0,0,1-.32,1.5,1.23,1.23,0,0,1-.41.34,1.72,1.72,0,0,1-.25-.35,1.16,1.16,0,0,0,0-.18l-.07-.09L38.51,31l-.06-.09-.14-.25c-.05-.1-.11-.2-.17-.3L38,30.12,38,30c-.12-.23-.24-.45-.34-.68s-.13-.26-.21-.38a4,4,0,0,1-.44-.38,4.29,4.29,0,0,1-.24,2.1,1,1,0,0,0,.23.18l.43.27.1.05.19.11.16.08.16.08.15.08.33.14.09.05.55.23.28.12a2.14,2.14,0,0,1,.39.16c.23.07.45.17.68.25l.09.06.16.06a1.68,1.68,0,0,1,.29.24c.13-.19.27-.38.39-.58a3.72,3.72,0,0,0,.25-.94,3.94,3.94,0,0,0,0-1,6,6,0,0,0-.47-1.76l-.06-.09c0-.07-.07-.14-.1-.22l-.08-.15a.93.93,0,0,0,0-.1A.72.72,0,0,0,40.69,27.82Zm3.25,4,0,0a6.38,6.38,0,0,1,.19,1.63c.32,0,.65,0,1,0C44.71,32.9,44.34,32.36,43.94,31.82ZM57.17,45.36s-.18-.08-.14,0a.67.67,0,0,0,.18.11C57.32,45.49,57.22,45.35,57.17,45.36ZM45.34,33.87a5.8,5.8,0,0,0-1.25,0,1.75,1.75,0,0,0-.09.38l-.09.15-.12.25c.73.13,1.47.26,2.21.35l-.11-.19,0-.09-.08-.16-.14-.25A4.73,4.73,0,0,0,45.34,33.87Zm-7.79-7.5-.17-.13a.45.45,0,0,1-.17-.11,7.4,7.4,0,0,0-.7-.51.84.84,0,0,0,.08.19,6.2,6.2,0,0,1,.54.83l.35.66c0,.06.05.11.07.16l.06.1c.07.16.15.32.21.49l.06.09.08.16c0,.11.09.22.14.33l.08.11-.09.08L38,28.69l-.13-.2-.11-.19c-.23-.37-.45-.74-.67-1.11L37,26.94l-.18-.29c0-.06-.05-.11-.07-.16l-.17-.3a11.33,11.33,0,0,0,.22,1.42,1.42,1.42,0,0,0,.13.5l.15,0a6.4,6.4,0,0,1,.66.72,8.42,8.42,0,0,1,1,1.49l.2.35c0,.05,0,.1.08.16a1.54,1.54,0,0,1,.08.19l0,0,0,0a4.7,4.7,0,0,0,.2-1,3.13,3.13,0,0,0-.21-1.48l-.06-.1c-.07-.16-.15-.31-.23-.47s-.1-.16-.14-.24a9.08,9.08,0,0,0-.76-1A1.8,1.8,0,0,0,37.55,26.37Zm23,23a14.44,14.44,0,0,0-2.15-1.57.7.7,0,0,0,.17.29c.61.61,1.21,1.22,1.83,1.82.37.28.71.58,1.08.86s.82.69,1.26,1l0,0a10.59,10.59,0,0,0-1.59-1.82A8.27,8.27,0,0,1,60.54,49.33Zm-3.7-3.48-.1-.06-.35-.19-.17-.1,0,0a2.59,2.59,0,0,0,.35.31,6.19,6.19,0,0,1,.65.61,2.8,2.8,0,0,1,0-.41A2.37,2.37,0,0,0,56.84,45.85ZM45.3,35.34c-.64-.08-1.27-.2-1.91-.31-.33.26-.69.49-1,.76l.45.23c.15.08.31.16.45.25l.36.19c.25.15.51.28.74.45.69-.08,1.38-.09,2.07-.13l.05,0a5.38,5.38,0,0,0-.3-1.26C45.9,35.4,45.6,35.4,45.3,35.34ZM27,19.84l-.43.2-.15.08-.35.19-.35.2-.2.12-.35.19-.09.06-.23.09a2.71,2.71,0,0,0,.14.43,5.39,5.39,0,0,0,1.15,1.32c.31.2.51.52.82.71s.5.4.73.62.37.28.58.38l.13.09.13.05.32-.17.09-.06a8.53,8.53,0,0,1,.84-.32l.09-.07.25-.11a9.25,9.25,0,0,1-2-.4,2.17,2.17,0,0,1-1.08-.68,1.24,1.24,0,0,1,0-.27,2.64,2.64,0,0,1,.89-.77l.16-.07.09-.06a3.73,3.73,0,0,1,1.58-.33l-.05-.05,0,0a3.86,3.86,0,0,0-.55-.17,7,7,0,0,0-3-.37l0-.12a7.6,7.6,0,0,1,3.63.39,5.17,5.17,0,0,0,.75.27l.09.07.17.05a1.85,1.85,0,0,0,.39.15,4.31,4.31,0,0,1-.56-.83c-.14-.27-.28-.55-.43-.82,0-.08-.09-.16-.14-.24a1.71,1.71,0,0,0-.13-.23A5.22,5.22,0,0,0,27,19.84Zm8.48,5.22c-.15.14-.09.35-.09.53a4.45,4.45,0,0,1-.15,1.7,1.87,1.87,0,0,1-.12-.57,9.14,9.14,0,0,1,0-1.17c-.15.32-.48.47-.73.7a3.15,3.15,0,0,0-.35.52l-.05.09a.8.8,0,0,1-.08.16l-.09.22-.07.09A5.42,5.42,0,0,0,33.3,29a2.94,2.94,0,0,0,.42,1.66,5.27,5.27,0,0,0,1,1.13A1,1,0,0,1,35,32l.26.14c.07,0,.13.11.22.11a1.46,1.46,0,0,0,.07-.19.53.53,0,0,1,.06-.1l.07-.16a1.09,1.09,0,0,1,.08-.15c.11-.23.24-.44.33-.68,0,0,0-.07.06-.09a3.58,3.58,0,0,0,.33-2c-.11-.69-.31-1.36-.43-2.06a5.57,5.57,0,0,0-.31-1.2Zm-.81-.27c-.31.1-.63.2-.94.33s-.67.22-1,.35a6.49,6.49,0,0,1-.74.26l-.28.16-.06-.06a1,1,0,0,1,.32-.27,4.25,4.25,0,0,1,.58-.35l.1-.05.15-.08L33,25l.09-.06c.33-.14.66-.26,1-.37a9.2,9.2,0,0,0-2.7-.45,2.93,2.93,0,0,0-1.53.44,1.76,1.76,0,0,0-.62.82,5,5,0,0,0-.05,2.33,23.37,23.37,0,0,1,2.6-.88,11.54,11.54,0,0,0,1.48-.47l.31-.15a7.42,7.42,0,0,0,1.08-.75,5.39,5.39,0,0,0,.3-.52L35,24.8A.86.86,0,0,0,34.65,24.79ZM32,22.49a1.91,1.91,0,0,0-.73-.56,3.65,3.65,0,0,0-2.81-.07l-.16.08-.15.07a2.86,2.86,0,0,0-.73.55l0,.1.32.22.09.05A.8.8,0,0,1,28,23c.27.09.55.18.83.25s.75.23,1.13.35c.14.06.3.18.46.09a6,6,0,0,1,3.09.09l-.33-.15-.28-.1a9.18,9.18,0,0,0-.89-.28c-1-.25-1.95-.49-2.94-.69a.31.31,0,0,1,.26-.05,29.65,29.65,0,0,1,3.11.67,6,6,0,0,1,.86.37l0,0C32.89,23.22,32.45,22.84,32,22.49ZM54.48,45l0,0a2.7,2.7,0,0,1,.27.39,2,2,0,0,1,.14.25,1.22,1.22,0,0,1,.12.19l.12.19.17.3.14.25a1.09,1.09,0,0,0,.08.15s0,.1.07.16a1.09,1.09,0,0,1,.08.15l.08.16.05.09c0,.11.1.22.14.33s.14.33.21.5c.24.6.45,1.21.64,1.83s.33.93.47,1.41l.07.09.05.17a1.69,1.69,0,0,1,.12.28l.09.11a3.26,3.26,0,0,0,.13-.82,4,4,0,0,0-.37-1.63c-.24-.57-.52-1.12-.8-1.67A8.9,8.9,0,0,0,54.48,45Zm-8.91-7.87c-.1-.07-.08,0-.09.08.33,0,.64.15,1,.21.08-.07,0-.18,0-.27C46.18,37.11,45.88,37.15,45.57,37.12Zm4.55,4.53a.16.16,0,0,0-.16,0l.09.14.12.2.08.15.14.25.06.1.07.16.09.15a1.21,1.21,0,0,0,0,.18l.07.09c0,.06,0,.12,0,.18l.07.09c0,.06,0,.12,0,.18l.07.09a1.16,1.16,0,0,1,0,.18l.07.09a2.33,2.33,0,0,0,.11.28,2.33,2.33,0,0,1,.14.33.47.47,0,0,1,.06.09,1.11,1.11,0,0,1,.07.16l.15.33c0,.05,0,.1.08.16l0,.09a1.11,1.11,0,0,1,.07.16c.08.14.16.27.23.41l0,.09.19.35c.07.12.13.24.2.35l.14.25a.93.93,0,0,0,0,.1l.15.25.16.3.12.19.11.19c.07.1.13.2.19.3a1.19,1.19,0,0,1,.16.23l.1.12c0-.37-.1-.74-.16-1.11A11.28,11.28,0,0,0,53,45.65a12.85,12.85,0,0,0-1.68-3.06A12.49,12.49,0,0,0,50.12,41.65Zm-3.66-3.81c-.27,0-.52-.12-.79-.15a5.66,5.66,0,0,1,.73.47A1.8,1.8,0,0,0,46.46,37.84ZM49,40.55c0,.06,0,.1.06.11S49.09,40.57,49,40.55Zm-.72-.48c-.14-.08-.27-.23-.45-.22a9.53,9.53,0,0,0,.84.57,1.71,1.71,0,0,0,.27.14A5.37,5.37,0,0,0,48.29,40.07Zm-2.51-1.64c-.23-.14-.45-.3-.69-.42L45,37.89l0,0a5.81,5.81,0,0,0,1.09.74.79.79,0,0,0,.38.18A3.59,3.59,0,0,0,45.78,38.43Zm.21.7a1.55,1.55,0,0,0,.26.37c0-.07,0-.14,0-.21ZM32.71,27.77c-.14.16-.34.28-.42.48l-.21.24c-.09.17-.22.31-.31.48l-.18.29-.09.13a1,1,0,0,1-.24.3c0-.07,0-.14,0-.21l.09-.17a.41.41,0,0,0,.05-.09l.12-.2a2,2,0,0,0,.14-.25,2,2,0,0,0,.12-.19c.21-.33.44-.63.67-.93s.51-.5.75-.76c-.63.25-1.3.38-1.95.58a.57.57,0,0,0-.24.27c-.05.08-.11.16-.15.24l-.13.16-.14.26-.06.1c0,.05-.05.1-.07.16a1.09,1.09,0,0,0-.08.15,2.71,2.71,0,0,0,0,2c0,.05.05.11.08.16l.08.1a3.67,3.67,0,0,0,1.4-1,3.62,3.62,0,0,0,.59-.65,2.82,2.82,0,0,1,.36-.24L33,29a5.74,5.74,0,0,1,.42-1.59c.05-.11.1-.22.14-.33a1.7,1.7,0,0,1,.1-.14C33.2,27.05,33,27.48,32.71,27.77ZM44.13,38.06a1.18,1.18,0,0,1,.24.31,1.65,1.65,0,0,1,.19.27l.13.17c0,.08.1.16.15.24l.16.23c.12.19.26.37.38.56l.32.45a2.61,2.61,0,0,0,.19.27,2.69,2.69,0,0,0,.2.27,1.2,1.2,0,0,0,.19.27c.07.12.16.22.23.34l.12.17c.16.25.35.5.5.76l.09.13.11.2.12.19.12.2a2.82,2.82,0,0,1,.18.29,2.23,2.23,0,0,0,.26.27,3.17,3.17,0,0,0-.48-1.38l-.08-.16-.24-.37c-.15-.26-.34-.5-.5-.75a5.76,5.76,0,0,1-.35-.51l-.16-.21c-.23-.33-.47-.64-.72-1a5.88,5.88,0,0,0-.68-.73C44.59,38.4,44.42,38.13,44.13,38.06Zm-1.35-1.39c0,.06,0,.1.06.11S42.86,36.68,42.78,36.67Zm-5.65-5.06L37,31.53c-.13-.07-.22-.17-.34-.23l-.16-.12,0,.13a1.09,1.09,0,0,0-.08.15l-.08.16c0,.05,0,.1-.07.16l-.06.09-.19.35a.84.84,0,0,1-.45.51,4.92,4.92,0,0,1-1.65-1.17c0,.23-.1.45-.14.68s0,.53,0,.8a3.46,3.46,0,0,1,0-1.66,3.66,3.66,0,0,1-.79-2,4.53,4.53,0,0,1-1.23,1.56,3.64,3.64,0,0,0,.5,1.85,7.7,7.7,0,0,0,.7.92c.31.22.57.51.9.7l.2.11.19.12.29.17.14,0a3.37,3.37,0,0,1,.53-.47,8.19,8.19,0,0,0,1.7-2A2.12,2.12,0,0,1,37.1,32a1.28,1.28,0,0,1,.2-.26Zm-8-7-.2.11c0,.05.07.07.11.07A.19.19,0,0,0,29.13,24.61Zm-.22.23-.16,0a4.88,4.88,0,0,0-.55.47,2.57,2.57,0,0,0-.47.52c-.06.09-.14.17-.19.26a2,2,0,0,0-.11.2,2.56,2.56,0,0,0-.23.47l-.06.09a13.33,13.33,0,0,0-.59,3.43,4.22,4.22,0,0,0-.08,1,1.27,1.27,0,0,0,.34,0,14,14,0,0,0,1.43-.3c.5-.12,1-.27,1.5-.4l.07-.08a2.54,2.54,0,0,1,0-.87,4.52,4.52,0,0,1,.2-.72l.06-.09a1.11,1.11,0,0,1,.07-.16c.07-.13.15-.26.23-.38a1.31,1.31,0,0,1,.19-.27c.07-.18.28-.27.28-.47a7.68,7.68,0,0,1-.61.49c-.57.43-1.11.89-1.65,1.35a.32.32,0,0,1,.12-.26,9.08,9.08,0,0,1,.71-.68,5.68,5.68,0,0,0,.67-.63,8.16,8.16,0,0,0-1.06.34L28.89,28a7.5,7.5,0,0,1-.18-1.26,4.13,4.13,0,0,1,0-.93,4.85,4.85,0,0,1,.19-.75l.09-.11ZM41.12,37.15l-.13.13c.15.24.31.48.47.72s.42.63.62,1l1.24,1.94c.31.5.62,1,1,1.48l0,0-.18-.4L44,41.65s-.05-.1-.07-.16a.47.47,0,0,1-.06-.09l-.07-.16c-.07-.14-.15-.27-.22-.4l-.17-.3c-.16-.28-.33-.55-.5-.83l-.27-.43C42.19,38.55,41.66,37.84,41.12,37.15Zm-4.84-3.08A14,14,0,0,1,35,35.14c.56.55,1.11,1.09,1.65,1.65,0-.57,0-1.15,0-1.72a4.39,4.39,0,0,0,0-.81A4.17,4.17,0,0,0,36.28,34.07Zm-4.79-3a4.07,4.07,0,0,1-.67.48l-.26.11c.33,0,.66.11,1,.18C31.49,31.62,31.57,31.36,31.49,31.11Zm-4.83-4.33c-.26.12-.53.21-.8.33l-.43.2-.16.07-.09.06-.21.09-.15.08-.16.09-.16.07-.09.06-.57.29c-.59.33-1.2.62-1.81.91l-.15.08-.16.08-.21.1-.15.08-.16.08-.16.07-.09.06-.16.08-.21.09-.09.06-.22.1-.15.08-.16.08-.16.08-.09.05-.49.22-.09.06-.34.13-.09.06-1.06.43c-.27.1-.54.22-.81.35l-.15.07-.41.22c-.39.23-.77.48-1.15.73H15c-.22.16-.45.3-.67.45l-.23.15c-.36.24-.7.5-1,.74-.84.64-1.67,1.29-2.48,2-1,.77-2,1.52-2.87,2.35-.28.17-.46.45-.74.64s-.51.53-.82.75a4.1,4.1,0,0,0-.53.49L4.29,41.32a3.24,3.24,0,0,0-.27.35,12.46,12.46,0,0,0-1,1.23c-.42.65-.84,1.3-1.24,2a12.29,12.29,0,0,1-1.18,1.7,1.42,1.42,0,0,1,.08.18,6.92,6.92,0,0,0,.6.61c.47-.65,1-1.26,1.46-1.9.72-1,1.42-1.93,2.18-2.85s1.33-1.67,2-2.48c.21-.19.33-.45.54-.63a9.72,9.72,0,0,0,.83-.87A6.63,6.63,0,0,1,8.91,38c.52-.51,1-1,1.58-1.51a8.56,8.56,0,0,1,.89-.82c.52-.45,1.09-.84,1.65-1.24a12.14,12.14,0,0,1,1.63-1.13l.1-.05.16-.08c.23-.1.44-.23.66-.34a3.09,3.09,0,0,1,1.18-.38,4.33,4.33,0,0,0,1.09-.82,13.79,13.79,0,0,1,1.59-1l.09-.06c.41-.16.82-.31,1.22-.49l.43-.19.15-.08.16-.08.31-.15L22,29.5l.09-.06.16-.07.43-.2c.73-.29,1.45-.57,2.19-.84a6.59,6.59,0,0,0,1.11-.52,3.41,3.41,0,0,0,.57-.36,3.45,3.45,0,0,1,.2-.62Zm8.13,8.58a.61.61,0,0,1-.4,0c.3.31.64.6.91.94s.43.42.59.68.32.31.44.5a2.79,2.79,0,0,0,.4.44l0-.49c-.19-.18-.32-.43-.53-.61A17.15,17.15,0,0,0,34.79,35.36Zm-3.08-2.87a5.37,5.37,0,0,0-.7-.11l.16.09.09.06a2.22,2.22,0,0,0,.44.06S31.71,32.52,31.71,32.49Zm-2.34-1.42-.83.33c.54.09,1.1.12,1.64.24a.57.57,0,0,0-.08-.13c0-.05-.05-.1-.08-.16a3.06,3.06,0,0,1-.13-.43C29.7,30.85,29.54,31,29.37,31.07Zm2.32,1.87-.09,0c-.38,0-.74-.17-1.12-.21l.2.11.3.1.09.06.34.13.09.06.35.19.19.12.21.1C32.08,33.34,32,33.06,31.69,32.94ZM26.42,27.7a1.18,1.18,0,0,1-.25.19l-.42.27c-.19.13-.39.24-.59.35l-.09,0-.16.08-.28.12c-.47.19-.94.39-1.4.61l-.28.11c-.2.11-.41.21-.61.33L22,30c-.19.1-.37.21-.57.3l-.09.05-.16.08-.43.2-.54.23-.29.1-.09.05-.37.18-.53.33a5,5,0,0,0-.62.4l.28,0a1.06,1.06,0,0,1,.3-.26l.1-.05a12.26,12.26,0,0,1,3.31-.48H24a11.43,11.43,0,0,1,1.17,0,3.51,3.51,0,0,1,.79.06c0-.23,0-.46.07-.69.14-.92.16-1.87.39-2.78Zm4.31,4.66a6.46,6.46,0,0,0-1.32-.28c-.63-.09-1.27-.17-1.9-.24-.1,0-.22,0-.3-.08s0,.08,0,.12a4.27,4.27,0,0,1,.71.07c1,.13,1.95.34,2.93.5A.67.67,0,0,0,30.73,32.36Zm-1.75,1-.35-.19-.16-.08-.1,0-.49-.22-.09-.06-.18-.05-.09-.07-.18,0-.09-.07a2.82,2.82,0,0,1-.51-.19c-.27-.09-.54-.19-.82-.26a4.78,4.78,0,0,0-1.58-.28c.45.17.93.29,1.37.48l.3.1.09.06.21.09c.26.16.52.31.76.48.4.26.77.54,1.15.83,1.69,1.32,3.31,2.74,5.07,4,.26.16.5.34.75.51h.09c-.13-.19-.24-.38-.37-.57a11.31,11.31,0,0,0-2.1-2.52A16.08,16.08,0,0,0,29,33.41Zm-1.93-1.64a.14.14,0,0,0-.16.05.18.18,0,0,0,.22,0Zm-.85,0c0,.06.08.06.13,0S26.24,31.67,26.2,31.74Zm-.28,0c0,.06.09.06.14,0S26,31.64,25.92,31.7ZM28,36.15c-.06.05,0,.15.1.14S28.09,36.15,28,36.15Zm.26.35c0,.06.08.13.11.18s.16.13.12,0A.52.52,0,0,0,28.29,36.5ZM26,34.86a13.36,13.36,0,0,0-1.66-1c-.39-.21-.79-.42-1.19-.6a7,7,0,0,0-2.34-.55,5.86,5.86,0,0,0-.73,0,22.9,22.9,0,0,1,2.44.89,11,11,0,0,1,1.08.56,8.89,8.89,0,0,1,1.37,1,4.58,4.58,0,0,1,.66.73,5,5,0,0,1,.54.68l.16.23.11.19a2.92,2.92,0,0,1,.23.47l.06.09c0,.06,0,.12.05.19l.07.08c0,.13.08.26.12.38l0,0a1.64,1.64,0,0,1-.14-.22l-.05-.09-.08-.16a.8.8,0,0,0-.08-.16l-.14-.25a9.47,9.47,0,0,0-.82-1.07,11.36,11.36,0,0,0-2.83-2.19c-.28-.13-.55-.28-.84-.4l-.09-.06-.28-.11a3.92,3.92,0,0,0-.74-.29,6.59,6.59,0,0,0,.57.34,6.91,6.91,0,0,1,1.33,1.08c.14.16.34.28.42.48a1.83,1.83,0,0,1,.13.16c.05.09.1.17.14.26a.53.53,0,0,1,.06.1l.18.37.05.09a1.19,1.19,0,0,1,.08.16l.06.18.06.09.13.33.06.09.14.34a1.09,1.09,0,0,1,.08.15l.12.2a.57.57,0,0,1,.08.13c.07.1.13.2.19.3.19.26.4.5.59.76a2.58,2.58,0,0,1,.43.5c.2.21.41.43.63.62a2.88,2.88,0,0,1,.46.39l1.51,1.21c.19.2.44.33.63.54s.4.32.58.5l.82.82c.34.29.7.56,1,.86a20.8,20.8,0,0,0-.75-2.89,2.33,2.33,0,0,1-.11-.28A.47.47,0,0,1,30.5,41l-.07-.16c-.14-.27-.31-.52-.47-.77l-.19-.3c-.14-.19-.26-.4-.39-.6l-.19-.29-.09-.13c0-.09-.1-.17-.14-.25l-.12-.2-.09-.13a1.28,1.28,0,0,0-.11-.2l-.15-.25-.36-.57-.19-.29c-.12-.2-.3-.37-.42-.59A11.06,11.06,0,0,0,26,34.86Zm-1.65-1.51c0,.06,0,.1.06.11S24.45,33.37,24.37,33.35Zm-2.1-1.8c0,.06.09.06.13,0S22.31,31.49,22.27,31.55Zm-.23,0c.05.06.09.06.14,0S22.08,31.49,22,31.55ZM23.6,33s-.2-.09-.14,0S23.76,33.08,23.6,33Zm-.27-.13s-.2-.07-.14,0S23.48,33,23.33,32.84ZM21.8,31.55c.05.06.1.06.14,0S21.85,31.49,21.8,31.55ZM23,32.71l0,0a1.71,1.71,0,0,1-.23-.13l-.4-.13-.31-.1-.23-.07-.23-.08-.17-.05-.18-.07a1.55,1.55,0,0,0-.77-.06c.29.11.62.12.91.24l.4.13c.45.12.9.23,1.33.39Zm-1.47-1.16c.05.06.09.06.14,0S21.62,31.49,21.57,31.55Zm-.17-.05c-.06,0-.06.07,0,.1l.06-.05Zm-.17,0a3.08,3.08,0,0,1-.53,0s0,.06,0,.09a3.26,3.26,0,0,1,.54,0Zm-.66,0a1.7,1.7,0,0,1-.45,0,.37.37,0,0,0,0,.11,1.41,1.41,0,0,1,.46-.05Zm-.58,0a6.63,6.63,0,0,1-.76.11l0,.11a1.83,1.83,0,0,1,.77-.11S20,31.62,20,31.58Zm-.21.53c-.54,0-1.06.14-1.59.22,0,.08.12.06.19,0a16.79,16.79,0,0,1,2.13,0s0,.08.06.11l.05-.11A3,3,0,0,0,19.78,32.11Zm-.68-.38a.13.13,0,0,0-.16.06C19,31.87,19.12,31.81,19.1,31.73Zm1,1.15-.22-.09-.28-.13h-.29a5.47,5.47,0,0,0,.9.26ZM19,33.37a1,1,0,0,1-.17-.1l0,0a10.61,10.61,0,0,1,1.4,1.52l.11.19a2.3,2.3,0,0,1,.15.32l.06.09A10.9,10.9,0,0,1,21,38.58v1.48a8.5,8.5,0,0,1-.26,1.74c0,.11-.07.23-.12.34a.52.52,0,0,1,0-.37,5.37,5.37,0,0,0,.07-1.13c0-.93-.1-1.86-.13-2.8a7,7,0,0,0-.52-2.56,6.61,6.61,0,0,0-.78-1.12,8.09,8.09,0,0,1-.56-.61c-.15-.23-.42-.34-.59-.54H18a1.26,1.26,0,0,1,.28.33l.12.19.07.16a.28.28,0,0,0,.06.09c0,.18.12.35.16.52a1.74,1.74,0,0,1-.09.93A16.76,16.76,0,0,1,18,37.1c-.12.29-.27.56-.41.83l-.08.16a.53.53,0,0,1-.06.1c-.22.43-.45.85-.64,1.3l-.05.09a2.36,2.36,0,0,1-.12.28c0,.09-.07.18-.11.27a4.27,4.27,0,0,0-.37,1.68,5.22,5.22,0,0,0,.43,1.78,4.84,4.84,0,0,1,.28,1.4,4,4,0,0,1-.2,1.57l-.08.15c-.14.27-.43.52-.32.85a3.83,3.83,0,0,0,.67-.34c.4-.29.8-.57,1.16-.89s.56-.57.9-.8a4.48,4.48,0,0,0,.46-.42c.3-.2.56-.46.86-.66s.4-.29.57-.47a4.7,4.7,0,0,0,.43-.35,7.12,7.12,0,0,0,.63-.89l.15-.31a4.29,4.29,0,0,0,.36-1.17,5.89,5.89,0,0,0-.1-1.87c-.08-.54-.13-1.08-.18-1.63a4,4,0,0,0-.32-1.48l-.08-.16a8.31,8.31,0,0,0-.91-1.23A7.51,7.51,0,0,0,19,33.37Z"/></g></g></svg>