<svg xmlns="http://www.w3.org/2000/svg" xmlns:xlink="http://www.w3.org/1999/xlink" width="20.385" height="20.385" viewBox="0 0 20.385 20.385"><defs><linearGradient id="a" x1="0.767" y1="0.599" x2="0.406" y2="0.887" gradientUnits="objectBoundingBox"><stop offset="0" stop-color="#a28454"/><stop offset="1" stop-color="#c9b27d"/></linearGradient></defs><path d="M9.023,3A6.029,6.029,0,0,0,3,9.023v8.339a6.029,6.029,0,0,0,6.023,6.023h8.339a6.029,6.029,0,0,0,6.023-6.023V9.023A6.029,6.029,0,0,0,17.362,3Zm9.729,3.706a.927.927,0,1,1-.927.927A.929.929,0,0,1,18.752,6.706ZM13.193,8.1a5.1,5.1,0,1,1-5.1,5.1A5.1,5.1,0,0,1,13.193,8.1Zm0,.927a4.17,4.17,0,1,0,4.17,4.17A4.176,4.176,0,0,0,13.193,9.023Z" transform="translate(-3 -3)" fill="url(#a)"/></svg>