<svg xmlns="http://www.w3.org/2000/svg" width="285.721" height="270.093" viewBox="0 0 285.721 270.093"><defs><style>.a{fill:red;}.b{fill:#f10707;}.c{fill:#fff;}</style></defs><g transform="translate(-1.942 -2.902)"><path class="a" d="M263.23,188.542c20.064-28.553,30.289-54.4,30.289-76.591A66.748,66.748,0,0,0,168.311,79.733a6.27,6.27,0,0,1-10.8,0A66.748,66.748,0,0,0,32.3,111.952c0,31.061,20.45,69.838,59.035,111.9,28.167,30.675,58.649,55.176,71.575,65.208,15.627-11.961,54.019-43.215,85.465-81.028a6.125,6.125,0,0,1,8.682-.772c2.7-3.28,5.209-6.559,7.717-10.032A6.251,6.251,0,0,1,263.23,188.542ZM226.767,77.8a6.174,6.174,0,1,1,0-12.347,46.438,46.438,0,0,1,46.3,46.3,6.174,6.174,0,0,1-12.347,0A34,34,0,0,0,226.767,77.8Z" transform="translate(-18.011 -29.758)"/><path class="b" d="M232.714,38.7a79.317,79.317,0,0,0-63.858,32.411A79.1,79.1,0,0,0,25.9,117.8c0,81.028,115.947,172.281,139.291,189.837a6.382,6.382,0,0,0,7.331,0c12.54-9.453,56.141-43.408,91.253-85.851A6.3,6.3,0,0,0,263,213.1h0a6.3,6.3,0,0,0-8.682.772c-31.254,38.006-69.838,69.067-85.465,81.028-12.926-10.032-43.408-34.533-71.575-65.208C58.7,187.637,38.247,148.859,38.247,117.8A66.748,66.748,0,0,1,163.455,85.58a6.27,6.27,0,0,0,10.8,0A66.748,66.748,0,0,1,299.466,117.8c0,22.379-10.225,48.231-30.289,76.591a6.126,6.126,0,0,0,1.351,8.488h0a6,6,0,0,0,8.489-1.543c21.607-30.675,32.6-58.842,32.6-83.729C311.813,74.2,276.315,38.7,232.714,38.7Z" transform="translate(-23.958 -35.798)"/><path class="c" d="M176.2,108.175A6.1,6.1,0,0,0,182.375,102a46.438,46.438,0,0,0-46.3-46.3,6.174,6.174,0,0,0,0,12.347A34,34,0,0,1,170.028,102,6.1,6.1,0,0,0,176.2,108.175Z" transform="translate(72.682 -20.001)"/></g></svg>