<svg width="512" height="440" viewBox="0 0 512 440" fill="none" xmlns="http://www.w3.org/2000/svg">
<path d="M433.599 132.593C429.926 130.305 425.094 131.426 422.803 135.099C420.515 138.773 421.636 143.605 425.309 145.895C469.779 173.607 496.327 221.343 496.327 273.59C496.327 356.542 428.695 424.029 345.565 424.029C262.435 424.029 194.805 356.542 194.805 273.59C194.805 240.878 205.564 208.958 225.225 182.969C232.804 187.883 239.733 193.714 245.848 200.307C230.22 221.469 221.664 247.232 221.664 273.59C221.664 341.779 277.245 397.255 345.564 397.255C413.882 397.255 469.462 341.779 469.462 273.59C469.462 205.401 413.882 149.925 345.564 149.925C326.42 149.925 307.499 154.396 290.441 162.878C284.101 155.83 277.178 149.365 269.782 143.522C292.732 130.166 318.709 123.152 345.562 123.152C364.884 123.152 383.696 126.746 401.474 133.835C405.494 135.438 410.053 133.479 411.656 129.458C413.259 125.437 411.299 120.879 407.279 119.275C387.646 111.447 366.882 107.478 345.562 107.478C313.553 107.478 282.67 116.522 255.896 133.653C244.586 126.448 232.408 120.604 219.634 116.274L258.141 69.8401C262.799 64.2231 263.222 56.3611 259.195 50.2781L230.997 7.67609C227.933 3.05509 222.791 0.298096 217.243 0.298096H115.623C110.068 0.298096 104.924 3.05909 101.867 7.6811L73.671 50.2801C69.645 56.3621 70.07 64.2231 74.727 69.8411L113.172 116.201C47.44 138.418 0 200.578 0 273.589C0 365.184 74.662 439.702 166.435 439.702C199.382 439.702 230.117 430.09 255.991 413.539C281.867 430.094 312.613 439.702 345.565 439.702C437.337 439.702 512.001 365.184 512.001 273.589C512 215.894 482.691 163.185 433.599 132.593ZM255.991 334.133C244.223 316.854 237.339 296.009 237.339 273.59C237.339 251.992 243.92 230.847 256.012 213.053C267.778 230.331 274.66 251.173 274.66 273.59C274.659 296.013 267.762 316.853 255.991 334.133ZM203.134 111.62C191.23 108.912 178.936 107.479 166.434 107.479C163.055 107.479 159.703 107.592 156.373 107.791L143.157 67.7621H189.712L185.553 80.3591C184.196 84.4691 186.428 88.9011 190.537 90.2581C191.353 90.5271 192.181 90.6551 192.996 90.6551C196.285 90.6551 199.349 88.5671 200.436 85.2741L206.218 67.7631H239.505L203.134 111.62ZM221.855 22.2591L241.598 52.0881H204.975L203.541 49.9221L221.855 22.2591ZM207.219 15.9731L194.144 35.7241L181.069 15.9731H207.219ZM186.18 52.0871H146.69L166.434 22.2591L186.18 52.0871ZM151.8 15.9731L138.725 35.7251L125.649 15.9731H151.8ZM111.015 22.2611L129.326 49.9231L127.893 52.0881H91.27L111.015 22.2611ZM93.364 67.7611H126.65L140.434 109.51C136.812 110.08 133.229 110.767 129.688 111.566L93.364 67.7611ZM166.434 424.028C83.304 424.028 15.673 356.541 15.673 273.589C15.673 190.638 83.304 123.151 166.434 123.151C225.118 123.151 278.901 157.533 303.454 210.746C305.266 214.676 309.922 216.391 313.853 214.579C317.783 212.766 319.499 208.11 317.685 204.18C312.945 193.908 307.201 184.288 300.631 175.379C314.673 168.968 330.034 165.599 345.565 165.599C405.24 165.599 453.789 214.044 453.789 273.59C453.789 333.136 405.24 381.581 345.564 381.581C329.519 381.581 314.28 378.074 300.571 371.796C320.86 344.268 332.87 310.307 332.87 273.591C332.87 258.981 330.968 244.486 327.218 230.51C326.096 226.33 321.799 223.852 317.617 224.972C313.437 226.094 310.958 230.392 312.079 234.572C315.475 247.224 317.196 260.352 317.196 273.591C317.196 307.577 305.83 338.958 286.708 364.173C279.157 359.271 272.256 353.455 266.159 346.885C281.343 326.36 290.333 301.005 290.333 273.591C290.333 205.402 234.753 149.926 166.435 149.926C98.116 149.926 42.535 205.402 42.535 273.591C42.535 308.52 57.494 342.007 83.577 365.463C86.795 368.356 91.75 368.094 94.645 364.877C97.538 361.659 97.276 356.704 94.058 353.809C71.276 333.321 58.21 304.082 58.21 273.591C58.21 214.044 106.76 165.6 166.436 165.6C182.455 165.6 197.667 169.099 211.357 175.36C190.518 203.723 179.131 238.236 179.131 273.591C179.131 310.303 191.139 344.261 211.424 371.785C197.715 378.066 182.481 381.582 166.435 381.582C149.959 381.582 134.133 377.968 119.397 370.839C115.499 368.953 110.814 370.584 108.929 374.482C107.044 378.377 108.675 383.064 112.57 384.949C129.452 393.115 147.575 397.256 166.433 397.256C186.243 397.256 204.979 392.586 221.603 384.299C227.885 391.298 234.746 397.77 242.12 403.625C219.86 416.576 194.009 424.028 166.434 424.028Z" fill="url(#paint0_linear_7_5)"/>
<defs>
<linearGradient id="paint0_linear_7_5" x1="98" y1="465.5" x2="378" y2="57.5" gradientUnits="userSpaceOnUse">
<stop stop-color="#8F938F"/>
<stop offset="1" stop-color="#B3B6B3"/>
</linearGradient>
</defs>
</svg>
