<svg width="903" height="314" viewBox="0 0 903 314" fill="none" xmlns="http://www.w3.org/2000/svg">
<g filter="url(#filter0_d_5_4)">
<path d="M54.5025 221.65C62.9025 212.083 67.1025 197.792 67.1025 178.775C67.1025 172.942 66.7525 166.35 66.0525 159C65.0025 147.1 62.3775 130.533 58.1775 109.3C53.5109 84.2167 51.1775 66.775 51.1775 56.975C51.1775 49.975 52.3442 44.4917 54.6775 40.525C51.7609 45.3083 50.3025 52.075 50.3025 60.825C50.3025 63.625 50.4775 67.3583 50.8275 72.025C51.4109 79.725 53.5692 93.025 57.3025 111.925C59.2859 121.842 61.1525 131.875 62.9025 142.025C65.0025 154.975 66.0525 167.05 66.0525 178.25C66.0525 196.567 62.2025 211.033 54.5025 221.65ZM39.8025 234.25C45.9859 227.95 50.7692 221.125 54.1525 213.775C59.2859 202.342 61.8525 189.042 61.8525 173.875C61.8525 171.192 61.6775 167.05 61.3275 161.45C60.9775 155.85 60.1025 148.733 58.7025 140.1C57.3025 131.35 55.7275 122.6 53.9775 113.85C52.2275 104.983 50.6525 96.35 49.2525 87.95C47.9692 79.4333 47.2692 71.325 47.1525 63.625V62.05C47.1525 46.1833 51.0025 33.875 58.7025 25.125L58.5275 24.95C49.8942 34.4 45.5775 47.1167 45.5775 63.1L45.7525 69.925C45.8692 77.625 48.2025 92.7333 52.7525 115.25C54.3859 123.533 55.9025 131.933 57.3025 140.45C59.5192 153.75 60.6275 165.125 60.6275 174.575C60.6275 179.942 60.2192 185.892 59.4025 192.425C58.5859 198.958 56.6025 205.9 53.4525 213.25C50.3025 220.717 45.7525 227.717 39.8025 234.25ZM28.4275 245.625C26.0942 245.625 23.7025 245.217 21.2525 244.4C12.7359 241.25 8.47754 236.35 8.47754 229.7C8.47754 227.25 9.11921 224.917 10.4025 222.7C13.4359 217.567 17.8109 212.783 23.5275 208.35C30.4109 202.983 36.1859 199.133 40.8525 196.8C44.8192 194.817 47.8525 193.125 49.9525 191.725C50.7692 190.675 51.3525 186.183 51.7025 178.25L52.0525 171.95L51.8775 167.75C51.7609 166.933 51.7025 166.058 51.7025 165.125C51.7025 164.075 51.7609 163.142 51.8775 162.325C51.8775 160.108 51.7609 158.533 51.5275 157.6C51.1775 156.2 50.8859 153.4 50.6525 149.2C50.6525 147.8 50.3609 146.108 49.7775 144.125C49.1942 142.025 48.9025 140.567 48.9025 139.75V139.4C48.9025 138.233 48.7859 137.417 48.5525 136.95C48.3192 136.483 48.0859 135.958 47.8525 135.375C47.7359 134.675 47.6775 134.092 47.6775 133.625C47.6775 132.108 47.1525 129.775 46.1025 126.625C45.4025 123.825 44.8192 121.083 44.3525 118.4L42.6025 110.7L41.2025 102.3C40.3859 99.15 39.7442 95.125 39.2775 90.225C39.1609 89.0583 38.9859 87.95 38.7525 86.9L38.2275 82.175C38.2275 80.3083 38.1692 78.9667 38.0525 78.15L37.8775 72.375C37.8775 62.925 38.5775 54.7583 39.9775 47.875C40.6775 44.8417 42.0192 41.2833 44.0025 37.2C46.1025 33.1167 47.9109 30.2583 49.4275 28.625C50.1275 27.925 50.8275 27.1083 51.5275 26.175C55.1442 21.3917 60.2775 17.075 66.9275 13.225C73.2275 9.84166 81.3942 7.62499 91.4275 6.575H92.8275C95.6275 6.575 98.7775 7.09999 102.278 8.14999C106.478 9.43332 110.153 11.0667 113.303 13.05C118.553 16.3167 122.519 22.15 125.203 30.55C127.069 36.3833 128.003 42.0417 128.003 47.525C128.003 54.175 127.069 61.35 125.203 69.05C123.919 74.5333 122.694 78.675 121.528 81.475C119.078 86.6083 117.328 89.175 116.278 89.175C115.228 89.175 114.703 89 114.703 88.65V88.125C114.703 87.5417 115.053 86.6667 115.753 85.5C119.369 78.85 121.994 69.4583 123.628 57.325C124.211 52.775 124.503 48.75 124.503 45.25C124.503 40 123.394 34.575 121.178 28.975C119.661 24.6583 117.444 21.1 114.528 18.3C111.728 15.5 108.578 13.4583 105.078 12.175C101.578 10.8917 98.0192 10.25 94.4025 10.25C93.3525 10.25 92.0109 10.425 90.3775 10.775C85.0109 11.9417 80.8109 13.4583 77.7775 15.325C74.8609 17.075 72.3525 19.6417 70.2525 23.025C63.4859 33.2917 59.6942 45.1917 58.8775 58.725C58.7609 60.7083 58.7025 63.1583 58.7025 66.075L58.8775 68.175C58.8775 73.8917 59.8692 81.3583 61.8525 90.575L63.2525 98.1C64.1859 103 65.5275 108.542 67.2775 114.725L70.0775 126.8C70.0775 127.15 70.4859 128.958 71.3025 132.225C72.9359 138.992 73.9275 145.525 74.2775 151.825L75.3275 174.925C75.4442 175.158 75.5025 177.258 75.5025 181.225L81.2775 178.775C85.4775 177.025 90.2609 174.283 95.6275 170.55C101.111 166.7 106.478 162.383 111.728 157.6C116.978 152.7 121.528 147.742 125.378 142.725C125.494 142.492 125.669 142.317 125.903 142.2C126.136 142.2 126.544 142.375 127.128 142.725C127.711 142.958 128.061 143.308 128.178 143.775C128.178 144.358 127.828 145.117 127.128 146.05C114.178 163.433 97.9609 176.325 78.4775 184.725C76.7275 185.542 75.7359 186.125 75.5025 186.475C75.3859 186.708 75.3275 187 75.3275 187.35C75.3275 190.383 74.9192 194 74.1025 198.2C73.7525 200.067 73.4609 201.175 73.2275 201.525C72.9942 201.875 72.8775 202.458 72.8775 203.275C72.8775 204.208 72.6442 205.375 72.1775 206.775C71.3609 208.058 70.8359 209.342 70.6025 210.625C70.1359 212.725 69.3775 214.825 68.3275 216.925C66.9275 219.142 66.2275 220.717 66.2275 221.65V221.825C66.2275 222.642 64.8859 224.742 62.2025 228.125C61.0359 229.292 60.0442 230.575 59.2275 231.975C57.7109 234.308 55.4942 236.467 52.5775 238.45C51.5275 238.683 50.3609 239.325 49.0775 240.375C42.4275 243.875 35.5442 245.625 28.4275 245.625ZM20.7275 238.1C23.8775 238.1 28.0775 236 33.3275 231.8C35.7775 229.7 37.8192 227.6 39.4525 225.5C40.2692 224.567 40.6775 223.867 40.6775 223.4C40.7942 223.05 41.6692 221.242 43.3025 217.975L45.5775 212.375V212.025C45.5775 211.558 45.8692 210.625 46.4525 209.225C47.0359 207.825 47.5025 206.075 47.8525 203.975L49.4275 197.85C40.7942 202.4 33.7359 207.125 28.2525 212.025C19.9692 219.375 15.8275 225.733 15.8275 231.1C15.8275 232.383 16.0609 233.608 16.5275 234.775C17.4609 236.992 18.8609 238.1 20.7275 238.1ZM148.899 147.1L151.699 145C159.749 138.117 163.774 129.775 163.774 119.975L163.599 117.7C160.332 121.317 158.582 123.475 158.349 124.175C158.232 124.875 157.765 125.808 156.949 126.975C156.132 128.142 155.49 129.367 155.024 130.65C154.557 131.817 154.207 132.575 153.974 132.925C153.74 133.275 153.565 133.742 153.449 134.325C153.449 134.908 153.04 135.9 152.224 137.3C151.407 138.7 150.94 140.217 150.824 141.85C150.474 142.9 150.065 143.892 149.599 144.825C149.132 145.642 148.84 146.342 148.724 146.925L148.899 147.1ZM149.949 200.3C140.499 200.3 133.149 197.267 127.899 191.2C122.649 185.133 120.024 177.492 120.024 168.275C120.024 164.542 120.374 161.042 121.074 157.775C121.89 153.575 122.357 151.125 122.474 150.425C122.474 149.725 122.707 148.675 123.174 147.275C124.107 144.125 124.982 141.908 125.799 140.625C126.149 140.158 126.324 139.692 126.324 139.225C126.324 138.758 127.199 136.892 128.949 133.625C130.699 130.242 131.749 128.433 132.099 128.2C132.915 127.5 133.674 126.567 134.374 125.4C136.59 122.017 139.565 118.867 143.299 115.95C147.965 112.333 152.224 110.35 156.074 110L160.449 109.825C161.849 109.825 162.84 109.942 163.424 110.175C168.907 112.275 171.649 115.717 171.649 120.5C171.649 124.467 170.19 129.367 167.274 135.2C163.307 142.433 157.182 148.325 148.899 152.875L146.799 153.75C146.799 153.983 146.565 154.975 146.099 156.725C145.749 158.475 145.574 159.758 145.574 160.575C145.457 161.975 145.165 162.85 144.699 163.2C143.765 165.65 142.832 173.292 141.899 186.125C141.899 189.158 142.132 191.2 142.599 192.25C143.065 193.3 144.874 194.117 148.024 194.7C150.94 194.7 154.149 193.708 157.649 191.725C163.599 187.525 168.615 182.158 172.699 175.625C173.282 175.625 175.849 171.017 180.399 161.8C184.832 154.1 188.215 147.858 190.549 143.075C190.899 142.142 191.482 141.675 192.299 141.675C194.049 141.675 194.924 142.317 194.924 143.6C194.924 144.65 191.19 152.292 183.724 166.525C182.674 168.625 181.857 170.375 181.274 171.775C179.64 175.392 176.432 180.058 171.649 185.775C171.649 186.358 169.899 188.458 166.399 192.075C163.482 195.225 160.857 197.383 158.524 198.55C156.307 199.717 153.449 200.3 149.949 200.3ZM128.774 181.05L129.124 172.825C129.94 160.808 132.274 150.483 136.124 141.85C137.057 139.517 140.732 132.108 147.149 119.625C143.065 124.292 139.565 129.892 136.649 136.425C131.282 147.858 128.599 160.342 128.599 173.875L128.774 181.05ZM133.499 185.075L133.849 176.5C134.082 171.017 134.724 165.65 135.774 160.4C136.824 155.15 138.282 150.017 140.149 145C142.015 139.867 143.999 134.675 146.099 129.425C137.582 142.492 133.324 158.883 133.324 178.6L133.499 185.075ZM142.415 300.575L143.465 300.225C145.332 300.225 148.132 298.358 151.865 294.625C155.482 290.892 157.757 287.742 158.69 285.175L159.74 283.425L161.84 278.7C164.174 273.333 165.34 269.892 165.34 268.375C165.34 268.025 165.632 267.092 166.215 265.575C166.799 264.175 167.44 261.55 168.14 257.7C168.49 255.95 168.782 254.783 169.015 254.2C169.132 253.733 169.365 252.742 169.715 251.225C170.065 249.825 170.415 248.308 170.765 246.675C170.999 245.042 171.232 243.642 171.465 242.475C171.815 240.258 172.107 238.333 172.34 236.7C172.574 235.067 172.807 234.017 173.04 233.55C173.157 233.2 173.39 232.15 173.74 230.4C173.974 227.95 174.382 225.733 174.965 223.75V222.875L172.69 226.025C171.407 227.542 169.89 229.583 168.14 232.15L163.94 238.275C160.79 243.175 158.224 246.85 156.24 249.3C149.474 258.75 144.749 266.1 142.065 271.35C138.799 277.65 137.165 284.592 137.165 292.175C137.165 295.208 138.215 297.658 140.315 299.525C141.015 300.225 141.54 300.575 141.89 300.575H142.415ZM144.515 303.725C139.499 303.725 135.94 301.742 133.84 297.775C133.257 296.608 132.907 295.558 132.79 294.625C132.557 293.692 132.44 291.825 132.44 289.025C132.44 287.275 132.674 285.292 133.14 283.075C135.824 271.175 143.057 256.883 154.84 240.2L161.315 231.625C164.465 227.192 169.015 221.125 174.965 213.425C176.832 210.975 177.824 208.817 177.94 206.95C177.94 205.083 177.999 204.033 178.115 203.8C178.232 203.683 178.349 203.392 178.465 202.925C178.582 202.458 178.699 201.933 178.815 201.35C178.815 200.767 178.932 200.067 179.165 199.25C179.865 196.1 180.215 194.175 180.215 193.475C180.332 192.192 180.507 191.083 180.74 190.15C181.79 183.967 182.607 178.308 183.19 173.175C183.19 171.542 183.307 170.608 183.54 170.375C183.774 170.142 184.065 169.092 184.415 167.225C184.415 166.642 184.474 166.117 184.59 165.65C184.707 164.367 184.824 163.492 184.94 163.025C185.057 162.558 185.29 161.8 185.64 160.75C185.64 159.583 185.815 158.825 186.165 158.475C186.399 158.125 186.574 157.658 186.69 157.075C186.924 154.508 187.274 152.467 187.74 150.95L188.965 147.975C189.315 146.342 190.307 142.492 191.94 136.425L193.69 129.6C194.04 128.2 194.215 127.325 194.215 126.975C194.215 126.625 194.624 125.808 195.44 124.525L195.615 123.825C195.615 123.125 195.732 122.775 195.965 122.775L197.715 118.75C199.349 114.55 201.565 112.45 204.365 112.45C209.732 112.45 212.415 115.775 212.415 122.425C212.415 124.758 212.182 128.55 211.715 133.8C210.199 150.017 208.974 159.875 208.04 163.375C207.807 163.842 207.632 164.542 207.515 165.475C207.049 169.908 206.699 172.3 206.465 172.65C206.349 173 206.29 173.233 206.29 173.35V173.7C206.524 173.7 207.632 172.475 209.615 170.025C218.015 159.408 226.182 150.658 234.115 143.775C235.632 142.492 236.799 141.85 237.615 141.85C238.199 141.85 238.724 142.083 239.19 142.55C239.657 143.017 239.89 143.483 239.89 143.95C239.89 144.417 239.249 145.117 237.965 146.05C235.982 147.45 225.832 158.825 207.515 180.175C205.415 182.275 203.724 187.117 202.44 194.7L201.215 199.95C200.749 202.283 200.107 205.083 199.29 208.35C198.94 210.567 198.415 212.958 197.715 215.525C197.132 217.275 196.49 219.958 195.79 223.575C195.674 224.158 195.44 224.625 195.09 224.975C194.857 225.325 194.74 225.967 194.74 226.9C194.74 227.833 194.565 228.65 194.215 229.35C193.865 230.167 193.399 231.508 192.815 233.375L191.94 236.175C190.89 239.325 190.365 241.075 190.365 241.425C190.365 241.892 190.249 242.533 190.015 243.35C189.665 244.167 189.315 245.1 188.965 246.15C188.615 247.2 188.207 248.25 187.74 249.3C186.574 251.633 185.99 253.267 185.99 254.2C185.99 254.55 185.582 255.425 184.765 256.825C183.949 258.225 183.54 259.1 183.54 259.45C183.54 259.917 182.899 261.667 181.615 264.7C181.032 265.867 180.682 266.742 180.565 267.325C180.332 267.908 180.04 268.433 179.69 268.9C179.107 270.067 178.815 270.767 178.815 271C178.815 271.233 178.699 271.467 178.465 271.7V271.875C177.999 272.108 177.357 273.158 176.54 275.025L173.565 280.1L170.765 284.3C166.682 290.717 161.724 295.85 155.89 299.7C151.924 302.383 148.132 303.725 144.515 303.725ZM212.24 95.825H211.715C207.515 95.825 205.415 93.725 205.415 89.525C205.415 81.125 207.165 76.8083 210.665 76.575C212.182 76.575 214.049 77.2167 216.265 78.5C217.782 79.3167 218.832 80.1917 219.415 81.125C220.115 82.0583 220.465 83.575 220.465 85.675C220.465 87.1917 220.115 88.7667 219.415 90.4C217.782 94.0167 215.39 95.825 212.24 95.825ZM179.34 252.975C182.724 242.825 186.749 228.533 191.415 210.1C198.882 180 202.615 159.7 202.615 149.2C202.615 147.567 202.499 146.167 202.265 145C201.915 150.483 200.399 160.05 197.715 173.7C195.032 187.35 191.94 201.642 188.44 216.575C184.94 231.625 181.907 243.758 179.34 252.975ZM177.94 241.775C181.674 229.525 186.34 210.45 191.94 184.55C197.074 160.983 199.64 145.117 199.64 136.95L199.465 134.325C198.765 140.975 197.132 150.892 194.565 164.075C192.115 177.142 189.374 190.792 186.34 205.025C183.307 219.258 180.507 231.508 177.94 241.775ZM212.765 93.55C214.165 93.55 215.332 93.025 216.265 91.975C217.315 90.8083 217.957 89.5833 218.19 88.3C218.54 87.0167 218.715 85.9667 218.715 85.15C218.715 82.2333 217.607 80.25 215.39 79.2C216.907 80.8333 217.665 82.2917 217.665 83.575C217.782 84.7417 217.84 85.5 217.84 85.85C217.84 87.6 217.374 89.2333 216.44 90.75C215.624 92.2667 214.282 93.2 212.415 93.55H212.765ZM253.662 194.35C254.362 194.35 255.179 194.117 256.112 193.65C258.212 192.717 261.42 189.042 265.737 182.625L268.712 178.075C273.262 171.542 276.587 164.017 278.687 155.5L276.587 154.975C270.87 153.342 266.437 150.367 263.287 146.05C262.82 145.117 262.354 144.65 261.887 144.65C261.42 144.65 261.129 145.117 261.012 146.05C261.012 146.983 260.72 147.742 260.137 148.325C259.67 149.258 259.379 150.192 259.262 151.125C259.262 151.942 258.795 153.342 257.862 155.325C257.512 156.025 257.279 156.725 257.162 157.425L254.187 166.175C253.604 168.042 253.195 169.733 252.962 171.25L251.912 174.75C250.862 178.833 250.337 182.742 250.337 186.475C250.337 187.058 250.337 188.05 250.337 189.45C250.337 190.85 250.804 192.133 251.737 193.3C252.204 194 252.845 194.35 253.662 194.35ZM279.387 151.125C279.504 149.142 279.679 147.1 279.912 145C280.145 142.9 280.262 140.975 280.262 139.225L279.912 136.425C278.979 126.625 276.237 121.55 271.687 121.2C269.47 121.2 268.362 122.6 268.362 125.4C268.362 126.333 268.187 127.208 267.837 128.025C267.37 128.492 266.962 129.425 266.612 130.825C266.495 131.408 266.32 131.992 266.087 132.575C265.854 133.158 265.679 133.625 265.562 133.975C265.445 134.325 265.27 134.733 265.037 135.2C264.92 135.55 264.862 135.842 264.862 136.075C264.862 138.408 266.379 141.617 269.412 145.7C271.162 147.8 272.737 149.2 274.137 149.9C274.837 150.133 275.537 150.425 276.237 150.775C277.054 151.008 278.104 151.125 279.387 151.125ZM252.962 199.6C251.329 199.6 248.82 198.725 245.437 196.975C241.587 195.108 238.787 192.833 237.037 190.15C235.637 188.167 234.47 185.192 233.537 181.225C232.02 175.392 231.262 170.958 231.262 167.925C231.262 166.058 232.195 159.992 234.062 149.725C234.529 146.925 234.995 145.292 235.462 144.825C235.929 144.358 236.279 143.367 236.512 141.85C236.745 140.217 237.095 139.167 237.562 138.7C238.029 138.117 238.262 137.65 238.262 137.3C238.262 136.833 238.437 136.367 238.787 135.9C240.187 133.567 240.945 132.05 241.062 131.35C241.295 130.533 241.645 129.892 242.112 129.425C242.695 128.842 243.104 128.083 243.337 127.15C243.687 126.683 244.037 126.158 244.387 125.575C244.854 124.875 245.32 124.292 245.787 123.825C246.837 123.008 247.362 122.367 247.362 121.9C247.362 121.317 247.712 120.675 248.412 119.975C251.562 116.825 253.779 115.017 255.062 114.55C256.345 113.967 258.037 113.675 260.137 113.675C262.937 113.675 265.329 114.55 267.312 116.3C268.012 117 269.179 117.467 270.812 117.7C272.445 117.933 274.195 118.633 276.062 119.8C281.429 123.3 284.112 130.533 284.112 141.5L283.937 147.625L283.762 150.075C283.762 150.425 283.762 150.892 283.762 151.475C283.879 152.058 284.637 152.35 286.037 152.35C286.62 152.35 287.379 152.233 288.312 152C296.595 151.067 304.062 148.092 310.712 143.075C311.529 142.492 312.287 142.2 312.987 142.2C313.804 142.2 314.212 142.433 314.212 142.9C314.212 143.367 313.979 143.95 313.512 144.65C310.129 147.8 305.754 150.425 300.387 152.525C295.72 154.392 290.879 155.383 285.862 155.5L282.712 155.85L280.787 162.325C277.987 173.058 273.379 182.508 266.962 190.675L265.037 192.95C263.17 195.167 260.954 196.858 258.387 198.025C256.17 199.075 254.362 199.6 252.962 199.6ZM238.612 175.8C239.079 161.45 241.879 149.142 247.012 138.875C248.295 136.542 252.262 129.775 258.912 118.575C254.712 122.892 250.979 128.025 247.712 133.975C241.529 145.408 238.437 157.658 238.437 170.725L238.612 175.8ZM244.387 187C243.92 182.683 243.687 178.658 243.687 174.925C243.687 165.825 245.087 157.425 247.887 149.725C248.82 147.275 251.912 139.983 257.162 127.85C253.545 132.75 250.512 138.35 248.062 144.65C244.562 153.283 242.812 162.325 242.812 171.775C242.812 176.792 243.337 181.867 244.387 187ZM326.245 196.275C327.645 196.275 329.336 195.458 331.32 193.825C333.653 191.842 334.878 190.617 334.995 190.15C337.561 187.35 339.895 183.733 341.995 179.3C344.795 173.817 346.72 168.8 347.77 164.25L350.395 157.075C354.011 147.158 356.053 138.525 356.52 131.175C356.52 129.658 356.228 128.025 355.645 126.275C354.361 121.725 352.203 119.333 349.17 119.1C346.603 119.1 343.978 122.075 341.295 128.025C341.061 128.492 340.828 128.9 340.595 129.25C340.478 129.483 340.361 129.833 340.245 130.3C339.428 132.633 338.436 134.967 337.27 137.3C336.22 139.633 335.695 140.975 335.695 141.325C335.695 142.375 334.878 144.125 333.245 146.575C332.778 147.392 332.428 148.442 332.195 149.725C331.961 150.892 331.611 151.825 331.145 152.525C330.678 153.225 330.27 154.1 329.92 155.15C328.87 157.717 328.345 159.35 328.345 160.05C328.345 160.633 328.053 161.1 327.47 161.45C327.47 161.8 327.353 162.267 327.12 162.85C326.886 163.317 326.711 163.842 326.595 164.425C326.595 164.892 326.42 165.825 326.07 167.225C325.253 168.508 324.786 170.55 324.67 173.35C324.67 174.4 324.495 175.275 324.145 175.975C323.678 177.375 323.445 180.992 323.445 186.825C323.445 193.125 324.378 196.275 326.245 196.275ZM318.02 186.65L317.845 182.45C317.845 170.2 319.945 159.35 324.145 149.9C325.078 147.683 328.578 140.8 334.645 129.25C323.095 142.2 317.32 158.008 317.32 176.675C317.32 179.942 317.553 183.267 318.02 186.65ZM312.245 175.275C313.645 160.925 317.261 149.025 323.095 139.575C324.378 137.358 328.753 131 336.22 120.5C329.22 126.567 323.561 134.267 319.245 143.6C314.578 153.517 312.245 164.075 312.245 175.275ZM373.145 141.15C378.745 115.833 386.795 93.725 397.295 74.825C384.695 93.025 376.703 114.258 373.32 138.525L373.145 141.15ZM366.67 166.35C367.486 141.033 372.503 117.817 381.72 96.7C371.336 114.083 366.145 133.217 366.145 154.1C366.145 158.067 366.32 162.15 366.67 166.35ZM392.22 109.825C392.803 109.825 395.895 107.842 401.495 103.875C414.095 93.9583 423.136 83.4583 428.62 72.375C431.42 66.5417 432.82 62.4 432.82 59.95C432.82 58.7833 432.586 57.2667 432.12 55.4C431.653 53.5333 431.128 52.5417 430.545 52.425C427.745 52.425 424.478 54.4083 420.745 58.375C417.011 62.225 415.086 64.5583 414.97 65.375C414.853 66.1917 414.503 66.7167 413.92 66.95C411.236 70.8 409.836 73.3083 409.72 74.475C409.603 74.825 409.253 75.1167 408.67 75.35C408.086 75.5833 407.736 76.1667 407.62 77.1C407.036 78.85 406.336 80.25 405.52 81.3C405.17 81.65 404.47 82.9917 403.42 85.325C401.203 89.4083 399.803 92.3833 399.22 94.25C399.103 95.0667 398.87 95.7667 398.52 96.35C398.17 96.8167 397.761 97.6333 397.295 98.8C395.661 102.417 394.786 104.458 394.67 104.925C394.67 105.392 394.495 105.683 394.145 105.8C393.911 105.917 393.736 106.325 393.62 107.025C393.503 107.725 393.211 108.25 392.745 108.6C392.395 108.95 392.22 109.3 392.22 109.65V109.825ZM356.695 154.8L350.92 172.125C344.27 191.492 336.57 201.292 327.82 201.525C326.303 201.525 324.786 201.292 323.27 200.825C313.353 197.442 307.928 189.858 306.995 178.075C306.995 177.025 306.82 175.45 306.47 173.35C306.12 172.067 305.945 169.558 305.945 165.825C305.945 162.208 306.12 159.992 306.47 159.175C306.703 158.242 306.82 157.133 306.82 155.85C306.82 153.983 307.403 151.767 308.57 149.2C309.036 148.5 309.27 147.742 309.27 146.925C309.27 146.108 309.97 144.242 311.37 141.325C312.886 138.408 313.645 136.892 313.645 136.775C313.645 136.542 313.761 136.25 313.995 135.9C315.628 134.267 316.62 132.925 316.97 131.875C317.786 129.892 318.836 128.317 320.12 127.15C320.703 126.45 321.111 125.867 321.345 125.4C322.978 123.3 326.42 120.325 331.67 116.475C335.403 113.792 340.011 112.45 345.495 112.45C347.945 112.45 350.278 112.858 352.495 113.675C356.228 115.192 358.853 117.058 360.37 119.275L360.72 119.8L361.42 122.425L365.27 110.875C365.503 111.342 365.736 111.575 365.97 111.575C366.086 111.575 366.32 111.225 366.67 110.525C367.37 109.008 367.895 107.55 368.245 106.15C368.478 105.333 368.711 104.75 368.945 104.4L369.995 100.9C370.228 99.7333 370.52 98.9167 370.87 98.45C371.22 97.9833 371.628 97.2833 372.095 96.35C372.211 95.65 372.911 94.25 374.195 92.15C376.411 87.7167 377.578 85.2083 377.695 84.625C377.811 83.925 378.628 82.525 380.145 80.425C381.661 78.2083 382.77 76.4 383.47 75C384.753 73.0167 386.27 70.975 388.02 68.875C388.486 68.2917 388.72 67.825 388.72 67.475C390.82 64.5583 392.628 62.4583 394.145 61.175H394.32C394.67 61.175 394.845 61.0583 394.845 60.825C394.961 60.475 395.253 60.0083 395.72 59.425L398.345 57.85C398.695 57.85 398.986 57.5583 399.22 56.975C399.57 56.3917 400.153 55.6917 400.97 54.875C405.753 51.4917 408.495 49.7417 409.195 49.625C409.895 49.3917 410.653 48.9833 411.47 48.4C411.82 48.1667 412.461 47.875 413.395 47.525C416.895 46.3583 419.986 45.775 422.67 45.775C427.336 45.775 431.245 47.2917 434.395 50.325C437.078 52.6583 438.42 55.8083 438.42 59.775C438.42 63.1583 437.02 67.8833 434.22 73.95C430.02 82.35 424.07 90.4 416.37 98.1C411.703 102.767 404.645 108.308 395.195 114.725C390.878 117.642 388.661 119.567 388.545 120.5C388.545 121.433 388.136 122.717 387.32 124.35C386.503 125.983 385.92 127.792 385.57 129.775C385.336 131.758 384.928 133.275 384.345 134.325C383.878 135.375 383.586 136.483 383.47 137.65C383.353 138.7 382.945 139.75 382.245 140.8C381.661 141.733 381.253 143.192 381.02 145.175C380.67 147.742 380.028 150.6 379.095 153.75C378.161 156.783 377.461 161.392 376.995 167.575C376.295 171.775 375.945 175.392 375.945 178.425C375.945 182.042 376.703 186.533 378.22 191.9C379.153 194.7 380.67 196.275 382.77 196.625C384.053 196.625 384.986 196.508 385.57 196.275C390.353 194.058 395.253 189.625 400.27 182.975C405.17 176.792 408.903 171.367 411.47 166.7L415.145 160.4L417.945 154.975C421.095 149.725 422.786 146.692 423.02 145.875C424.653 143.308 425.761 142.025 426.345 142.025C427.511 142.258 428.095 142.725 428.095 143.425V143.6C427.978 144.533 427.395 145.992 426.345 147.975C424.595 151.008 422.903 154.567 421.27 158.65C413.453 174.283 405.578 186.475 397.645 195.225C392.278 199.658 387.378 201.992 382.945 202.225C374.778 201.408 368.245 196.217 363.345 186.65C361.361 183.617 359.611 178.6 358.095 171.6L357.745 153.225V151.125L356.695 154.8ZM440.112 194.35C440.812 194.35 441.629 194.117 442.562 193.65C444.662 192.717 447.871 189.042 452.187 182.625L455.162 178.075C459.712 171.542 463.037 164.017 465.137 155.5L463.037 154.975C457.321 153.342 452.887 150.367 449.737 146.05C449.271 145.117 448.804 144.65 448.337 144.65C447.871 144.65 447.579 145.117 447.462 146.05C447.462 146.983 447.171 147.742 446.587 148.325C446.121 149.258 445.829 150.192 445.712 151.125C445.712 151.942 445.246 153.342 444.312 155.325C443.962 156.025 443.729 156.725 443.612 157.425L440.637 166.175C440.054 168.042 439.646 169.733 439.412 171.25L438.362 174.75C437.312 178.833 436.787 182.742 436.787 186.475C436.787 187.058 436.787 188.05 436.787 189.45C436.787 190.85 437.254 192.133 438.187 193.3C438.654 194 439.296 194.35 440.112 194.35ZM465.837 151.125C465.954 149.142 466.129 147.1 466.362 145C466.596 142.9 466.712 140.975 466.712 139.225L466.362 136.425C465.429 126.625 462.687 121.55 458.137 121.2C455.921 121.2 454.812 122.6 454.812 125.4C454.812 126.333 454.637 127.208 454.287 128.025C453.821 128.492 453.412 129.425 453.062 130.825C452.946 131.408 452.771 131.992 452.537 132.575C452.304 133.158 452.129 133.625 452.012 133.975C451.896 134.325 451.721 134.733 451.487 135.2C451.371 135.55 451.312 135.842 451.312 136.075C451.312 138.408 452.829 141.617 455.862 145.7C457.612 147.8 459.187 149.2 460.587 149.9C461.287 150.133 461.987 150.425 462.687 150.775C463.504 151.008 464.554 151.125 465.837 151.125ZM439.412 199.6C437.779 199.6 435.271 198.725 431.887 196.975C428.037 195.108 425.237 192.833 423.487 190.15C422.087 188.167 420.921 185.192 419.987 181.225C418.471 175.392 417.712 170.958 417.712 167.925C417.712 166.058 418.646 159.992 420.512 149.725C420.979 146.925 421.446 145.292 421.912 144.825C422.379 144.358 422.729 143.367 422.962 141.85C423.196 140.217 423.546 139.167 424.012 138.7C424.479 138.117 424.712 137.65 424.712 137.3C424.712 136.833 424.887 136.367 425.237 135.9C426.637 133.567 427.396 132.05 427.512 131.35C427.746 130.533 428.096 129.892 428.562 129.425C429.146 128.842 429.554 128.083 429.787 127.15C430.137 126.683 430.487 126.158 430.837 125.575C431.304 124.875 431.771 124.292 432.237 123.825C433.287 123.008 433.812 122.367 433.812 121.9C433.812 121.317 434.162 120.675 434.862 119.975C438.012 116.825 440.229 115.017 441.512 114.55C442.796 113.967 444.487 113.675 446.587 113.675C449.387 113.675 451.779 114.55 453.762 116.3C454.462 117 455.629 117.467 457.262 117.7C458.896 117.933 460.646 118.633 462.512 119.8C467.879 123.3 470.562 130.533 470.562 141.5L470.387 147.625L470.212 150.075C470.212 150.425 470.212 150.892 470.212 151.475C470.329 152.058 471.087 152.35 472.487 152.35C473.071 152.35 473.829 152.233 474.762 152C483.046 151.067 490.512 148.092 497.162 143.075C497.979 142.492 498.737 142.2 499.437 142.2C500.254 142.2 500.662 142.433 500.662 142.9C500.662 143.367 500.429 143.95 499.962 144.65C496.579 147.8 492.204 150.425 486.837 152.525C482.171 154.392 477.329 155.383 472.312 155.5L469.162 155.85L467.237 162.325C464.437 173.058 459.829 182.508 453.412 190.675L451.487 192.95C449.621 195.167 447.404 196.858 444.837 198.025C442.621 199.075 440.812 199.6 439.412 199.6ZM425.062 175.8C425.529 161.45 428.329 149.142 433.462 138.875C434.746 136.542 438.712 129.775 445.362 118.575C441.162 122.892 437.429 128.025 434.162 133.975C427.979 145.408 424.887 157.658 424.887 170.725L425.062 175.8ZM430.837 187C430.371 182.683 430.137 178.658 430.137 174.925C430.137 165.825 431.537 157.425 434.337 149.725C435.271 147.275 438.362 139.983 443.612 127.85C439.996 132.75 436.962 138.35 434.512 144.65C431.012 153.283 429.262 162.325 429.262 171.775C429.262 176.792 429.787 181.867 430.837 187ZM526.52 127.85C526.637 127.85 527.337 127.267 528.62 126.1C532.703 122.483 536.903 118.167 541.22 113.15C551.137 101.833 558.953 90.1667 564.67 78.15C569.22 68.35 571.495 60.5333 571.495 54.7C571.495 53.1833 571.32 51.6083 570.97 49.975C570.62 48.225 570.037 46.7083 569.22 45.425C568.403 44.1417 567.47 43.5 566.42 43.5C565.953 43.5 564.962 44.0833 563.445 45.25C560.762 47.2333 558.428 49.5667 556.445 52.25C554.462 54.9333 553.47 56.5083 553.47 56.975C553.47 57.325 553.003 58.025 552.07 59.075C551.253 60.0083 550.845 60.65 550.845 61C550.845 61.35 550.728 61.5833 550.495 61.7C548.978 63.2167 548.045 65.025 547.695 67.125C547.345 68.2917 546.937 69.2833 546.47 70.1C545.653 71.5 545.012 72.9 544.545 74.3L542.795 77.975C542.212 78.5583 541.92 79.2 541.92 79.9C541.92 80.6 541.687 81.1833 541.22 81.65C540.753 82.1167 540.52 82.6417 540.52 83.225C540.52 83.8083 540.17 84.6833 539.47 85.85C538.42 87.7167 537.72 90.2833 537.37 93.55C537.02 94.4833 536.67 95.2417 536.32 95.825C535.27 97.4583 534.512 99.5583 534.045 102.125C533.812 103.408 533.403 104.517 532.82 105.45C532.237 106.267 531.945 107.083 531.945 107.9C531.945 108.717 531.653 109.767 531.07 111.05C530.487 112.333 530.195 113.267 530.195 113.85C530.195 114.317 530.078 115.017 529.845 115.95C528.912 118.633 528.212 120.325 527.745 121.025C526.812 123.475 526.345 125.633 526.345 127.5L526.52 127.85ZM560.47 205.55C556.97 205.55 554.403 205.142 552.77 204.325C547.753 202.925 543.962 200.417 541.395 196.8C541.162 196.1 540.637 195.342 539.82 194.525C537.02 191.492 535.62 185.483 535.62 176.5L536.145 171.95C536.612 166.117 537.312 161.858 538.245 159.175C539.295 156.492 540.52 152 541.92 145.7C542.853 142.433 543.437 139.633 543.67 137.3C543.67 136.6 543.553 136.25 543.32 136.25C542.737 136.25 541.512 137.067 539.645 138.7C533.812 143.717 528.678 150.017 524.245 157.6C518.995 166.35 514.678 174.983 511.295 183.5C509.078 188.983 507.737 193.125 507.27 195.925C506.57 199.308 505.987 201.35 505.52 202.05C505.053 202.75 503.945 203.1 502.195 203.1C498.928 203.1 496.362 202.283 494.495 200.65C493.095 195.867 492.395 190.442 492.395 184.375C492.395 182.042 492.512 179.65 492.745 177.2C494.028 169.033 494.845 161.042 495.195 153.225C495.312 149.258 495.603 146.925 496.07 146.225C496.42 145.525 496.595 144.417 496.595 142.9C496.595 141.267 496.712 140.275 496.945 139.925C497.178 139.575 497.412 138.525 497.645 136.775C497.995 135.025 498.637 131.992 499.57 127.675C500.62 122.308 501.495 119.042 502.195 117.875C502.428 117.408 502.545 116.883 502.545 116.3C502.545 115.6 502.778 114.9 503.245 114.2C503.828 113.033 504.878 110.117 506.395 105.45C506.628 104.517 506.803 103.875 506.92 103.525C507.503 102.708 507.97 101.658 508.32 100.375C508.67 98.975 509.078 97.8083 509.545 96.875C512.345 91.275 513.745 88.125 513.745 87.425C513.745 86.6083 514.387 85.3833 515.67 83.75C515.787 83.5167 515.845 83.3417 515.845 83.225C515.845 82.9917 516.195 82.35 516.895 81.3C518.528 78.7333 519.52 77.0417 519.87 76.225C521.27 73.6583 523.487 70.3917 526.52 66.425C527.92 65.025 529.32 62.4 530.72 58.55C531.887 57.3833 532.645 56.45 532.995 55.75C533.928 54.5833 535.503 52.95 537.72 50.85C539.937 48.75 541.045 47.525 541.045 47.175C541.045 46.825 544.428 44.9 551.195 41.4C555.045 39.4167 558.895 38.425 562.745 38.425C565.545 38.425 568.287 39.0667 570.97 40.35C573.07 41.4 574.587 42.9167 575.52 44.9C576.57 46.8833 577.095 49.975 577.095 54.175L576.92 57.15C572.603 74.1833 564.495 90.2833 552.595 105.45C543.495 117 535.328 125.983 528.095 132.4C525.412 134.617 523.895 136.192 523.545 137.125C522.612 140.858 521.97 143.075 521.62 143.775C521.387 144.358 520.92 145.992 520.22 148.675C519.52 151.242 519.17 152.7 519.17 153.05C519.52 153.05 519.928 152.583 520.395 151.65C522.262 148.733 524.712 145.467 527.745 141.85C533.695 134.733 538.42 130.592 541.92 129.425C542.737 129.192 544.253 129.075 546.47 129.075C551.72 129.075 555.628 130.65 558.195 133.8C560.062 136.133 560.995 137.533 560.995 138C560.995 138.467 561.17 139.225 561.52 140.275C561.637 140.625 561.695 141.733 561.695 143.6V147.1C561.462 151.417 561.345 154.158 561.345 155.325C561.112 159.058 560.703 161.508 560.12 162.675C559.42 167.108 558.895 171.017 558.545 174.4C558.312 176.5 558.078 177.667 557.845 177.9C557.262 178.717 556.97 182.333 556.97 188.75C556.97 190.15 557.203 191.783 557.67 193.65C558.837 197.85 560.645 199.95 563.095 199.95C567.295 199.95 572.37 195.283 578.32 185.95C581.237 181.4 583.687 176.033 585.67 169.85C586.487 168.45 586.895 167.517 586.895 167.05C586.895 166.583 587.012 166.35 587.245 166.35C587.595 166 588.878 162.733 591.095 156.55C592.612 152 593.837 148.15 594.77 145C595.12 143.133 595.762 142.2 596.695 142.2C598.095 142.2 598.795 142.842 598.795 144.125C598.795 145.875 596.987 151.942 593.37 162.325C588.353 177.142 584.737 186.125 582.52 189.275C576.57 198.375 570.853 203.625 565.37 205.025C563.737 205.375 562.103 205.55 560.47 205.55ZM500.445 175.625C502.078 164.075 504.528 152.175 507.795 139.925C511.178 127.558 514.737 116.067 518.47 105.45C522.32 94.8333 525.878 86.2583 529.145 79.725C523.545 87.075 517.595 101.425 511.295 122.775C505.228 143.658 501.612 161.275 500.445 175.625ZM506.395 164.25C508.962 151.767 512.403 138.992 516.72 125.925C521.153 112.742 525.762 100.492 530.545 89.175C535.328 77.8583 539.587 68.8167 543.32 62.05C537.137 69.6333 530.02 84.8583 521.97 107.725C514.037 130.008 508.845 148.85 506.395 164.25ZM544.895 189.625C544.195 186.942 543.845 184.258 543.845 181.575C543.845 176.908 544.953 170.433 547.17 162.15C549.153 155.383 550.145 150.133 550.145 146.4C550.145 144.067 549.853 141.908 549.27 139.925C549.387 141.092 549.445 142.317 549.445 143.6C549.445 147.333 548.453 152.642 546.47 159.525C544.253 167.808 543.145 174.342 543.145 179.125C543.145 182.508 543.728 186.008 544.895 189.625ZM549.97 193.825C549.27 190.792 548.92 187.7 548.92 184.55C548.92 179.3 549.912 172.008 551.895 162.675C553.645 155.558 554.52 149.958 554.52 145.875C554.52 142.375 553.995 139.225 552.945 136.425C553.295 138.525 553.47 140.742 553.47 143.075C553.47 147.158 552.595 153.167 550.845 161.1C548.745 170.2 547.695 177.142 547.695 181.925C547.695 186.242 548.453 190.208 549.97 193.825ZM606.79 233.2C604.107 233.2 601.949 232.442 600.315 230.925C598.682 229.408 597.865 227.542 597.865 225.325C597.865 223.808 598.274 222.408 599.09 221.125C600.024 219.958 600.84 219.142 601.54 218.675C602.357 218.325 603.524 218.15 605.04 218.15C607.374 218.15 609.065 218.675 610.115 219.725C611.282 220.892 611.982 223.342 612.215 227.075V227.95C612.215 228.533 612.04 229.233 611.69 230.05C610.64 232.15 609.007 233.2 606.79 233.2ZM609.765 228.825C610.115 227.542 610.29 226.375 610.29 225.325C610.29 221.825 608.599 219.667 605.215 218.85C608.249 220.6 609.765 223.925 609.765 228.825ZM639.173 205.725H637.423C634.04 205.725 630.482 204.733 626.748 202.75C621.965 200.3 617.823 196.392 614.323 191.025C612.107 187.758 610.998 185.542 610.998 184.375C610.998 183.208 610.882 182.508 610.648 182.275C610.415 182.042 610.24 181.633 610.123 181.05C610.007 180.35 609.715 179.067 609.248 177.2C608.782 175.217 608.548 172.767 608.548 169.85C608.548 167.983 608.607 165.942 608.723 163.725C608.723 161.392 609.482 158.067 610.998 153.75C611.348 152.7 611.523 151.942 611.523 151.475C611.873 148.908 612.34 147.275 612.923 146.575C613.04 146.225 613.215 145.875 613.448 145.525C613.565 145.058 613.74 144.592 613.973 144.125C614.09 143.658 614.323 143.133 614.673 142.55C614.907 141.85 615.257 141.267 615.723 140.8C616.073 140.217 616.598 139.225 617.298 137.825C617.298 137.475 617.415 137.125 617.648 136.775C618.582 135.375 619.048 134.5 619.048 134.15C619.048 133.683 620.857 131.058 624.473 126.275C625.99 124.758 626.748 123.825 626.748 123.475C626.748 123.008 628.848 120.967 633.048 117.35L636.898 114.725C638.182 113.908 639.465 113.267 640.748 112.8C644.248 111.517 647.223 110.875 649.673 110.875C655.39 110.875 659.882 112.625 663.148 116.125C665.948 118.925 667.348 123.242 667.348 129.075C667.348 133.625 666.765 135.9 665.598 135.9C663.498 135.667 662.448 135.025 662.448 133.975C662.682 133.392 662.798 131.117 662.798 127.15C662.798 125.75 662.448 124.408 661.748 123.125C659.648 119.158 658.073 117.175 657.023 117.175C654.923 117.175 652.473 119.333 649.673 123.65C648.04 126.1 647.223 127.442 647.223 127.675C647.223 127.908 646.99 128.2 646.523 128.55C646.173 128.783 645.998 129.075 645.998 129.425C645.998 129.658 645.707 130.183 645.123 131C644.54 131.7 644.19 132.458 644.073 133.275L643.548 134.5C640.398 139.517 637.715 144.767 635.498 150.25C633.865 153.4 633.048 155.383 633.048 156.2C633.048 157.017 632.523 159 631.473 162.15C631.24 162.85 631.123 163.375 631.123 163.725C631.123 164.075 630.89 164.658 630.423 165.475C629.957 166.292 629.665 167.4 629.548 168.8C629.432 170.2 629.198 171.425 628.848 172.475C627.682 175.742 627.098 180.117 627.098 185.6C627.098 189.1 627.507 191.783 628.323 193.65C630.307 198.317 632.873 200.65 636.023 200.65C641.857 200.65 649.148 195.633 657.898 185.6L664.023 178.6C667.873 173.933 672.657 167.517 678.373 159.35C678.607 158.883 680.998 155.442 685.548 149.025C688.465 144.592 690.332 142.375 691.148 142.375C692.432 142.725 693.073 143.308 693.073 144.125C693.073 144.708 689.69 150.075 682.923 160.225C676.507 170.375 671.49 177.783 667.873 182.45C660.64 192.133 655.215 198.317 651.598 201C647.515 204.15 643.373 205.725 639.173 205.725ZM613.798 175.45C614.498 167.283 615.782 160.4 617.648 154.8C619.515 149.083 621.79 144.067 624.473 139.75C627.157 135.433 630.015 131.233 633.048 127.15C634.565 125.05 636.14 122.833 637.773 120.5C633.223 124.467 629.14 129.25 625.523 134.85C621.907 140.45 619.048 146.692 616.948 153.575C614.848 160.342 613.798 167.633 613.798 175.45ZM619.398 186.825V182.45C619.398 176.15 619.865 170.375 620.798 165.125C621.848 159.758 623.365 154.8 625.348 150.25C627.448 145.7 629.665 141.208 631.998 136.775C633.398 134.442 634.74 131.992 636.023 129.425C632.057 133.858 628.673 139.05 625.873 145C621.207 154.683 618.873 165.242 618.873 176.675C618.873 180.058 619.048 183.442 619.398 186.825ZM705.859 194.35C706.559 194.35 707.376 194.117 708.309 193.65C710.409 192.717 713.618 189.042 717.934 182.625L720.909 178.075C725.459 171.542 728.784 164.017 730.884 155.5L728.784 154.975C723.068 153.342 718.634 150.367 715.484 146.05C715.018 145.117 714.551 144.65 714.084 144.65C713.618 144.65 713.326 145.117 713.209 146.05C713.209 146.983 712.918 147.742 712.334 148.325C711.868 149.258 711.576 150.192 711.459 151.125C711.459 151.942 710.993 153.342 710.059 155.325C709.709 156.025 709.476 156.725 709.359 157.425L706.384 166.175C705.801 168.042 705.393 169.733 705.159 171.25L704.109 174.75C703.059 178.833 702.534 182.742 702.534 186.475C702.534 187.058 702.534 188.05 702.534 189.45C702.534 190.85 703.001 192.133 703.934 193.3C704.401 194 705.043 194.35 705.859 194.35ZM731.584 151.125C731.701 149.142 731.876 147.1 732.109 145C732.343 142.9 732.459 140.975 732.459 139.225L732.109 136.425C731.176 126.625 728.434 121.55 723.884 121.2C721.668 121.2 720.559 122.6 720.559 125.4C720.559 126.333 720.384 127.208 720.034 128.025C719.568 128.492 719.159 129.425 718.809 130.825C718.693 131.408 718.518 131.992 718.284 132.575C718.051 133.158 717.876 133.625 717.759 133.975C717.643 134.325 717.468 134.733 717.234 135.2C717.118 135.55 717.059 135.842 717.059 136.075C717.059 138.408 718.576 141.617 721.609 145.7C723.359 147.8 724.934 149.2 726.334 149.9C727.034 150.133 727.734 150.425 728.434 150.775C729.251 151.008 730.301 151.125 731.584 151.125ZM705.159 199.6C703.526 199.6 701.018 198.725 697.634 196.975C693.784 195.108 690.984 192.833 689.234 190.15C687.834 188.167 686.668 185.192 685.734 181.225C684.218 175.392 683.459 170.958 683.459 167.925C683.459 166.058 684.393 159.992 686.259 149.725C686.726 146.925 687.193 145.292 687.659 144.825C688.126 144.358 688.476 143.367 688.709 141.85C688.943 140.217 689.293 139.167 689.759 138.7C690.226 138.117 690.459 137.65 690.459 137.3C690.459 136.833 690.634 136.367 690.984 135.9C692.384 133.567 693.143 132.05 693.259 131.35C693.493 130.533 693.843 129.892 694.309 129.425C694.893 128.842 695.301 128.083 695.534 127.15C695.884 126.683 696.234 126.158 696.584 125.575C697.051 124.875 697.518 124.292 697.984 123.825C699.034 123.008 699.559 122.367 699.559 121.9C699.559 121.317 699.909 120.675 700.609 119.975C703.759 116.825 705.976 115.017 707.259 114.55C708.543 113.967 710.234 113.675 712.334 113.675C715.134 113.675 717.526 114.55 719.509 116.3C720.209 117 721.376 117.467 723.009 117.7C724.643 117.933 726.393 118.633 728.259 119.8C733.626 123.3 736.309 130.533 736.309 141.5L736.134 147.625L735.959 150.075C735.959 150.425 735.959 150.892 735.959 151.475C736.076 152.058 736.834 152.35 738.234 152.35C738.818 152.35 739.576 152.233 740.509 152C748.793 151.067 756.259 148.092 762.909 143.075C763.726 142.492 764.484 142.2 765.184 142.2C766.001 142.2 766.409 142.433 766.409 142.9C766.409 143.367 766.176 143.95 765.709 144.65C762.326 147.8 757.951 150.425 752.584 152.525C747.918 154.392 743.076 155.383 738.059 155.5L734.909 155.85L732.984 162.325C730.184 173.058 725.576 182.508 719.159 190.675L717.234 192.95C715.368 195.167 713.151 196.858 710.584 198.025C708.368 199.075 706.559 199.6 705.159 199.6ZM690.809 175.8C691.276 161.45 694.076 149.142 699.209 138.875C700.493 136.542 704.459 129.775 711.109 118.575C706.909 122.892 703.176 128.025 699.909 133.975C693.726 145.408 690.634 157.658 690.634 170.725L690.809 175.8ZM696.584 187C696.118 182.683 695.884 178.658 695.884 174.925C695.884 165.825 697.284 157.425 700.084 149.725C701.018 147.275 704.109 139.983 709.359 127.85C705.743 132.75 702.709 138.35 700.259 144.65C696.759 153.283 695.009 162.325 695.009 171.775C695.009 176.792 695.534 181.867 696.584 187ZM855.442 200.65H854.042C850.659 200.65 847.159 198.9 843.542 195.4C840.509 192.717 838.992 190.558 838.992 188.925C838.059 187.292 837.359 185.017 836.892 182.1C836.542 179.183 836.25 177.492 836.017 177.025C836.017 168.275 836.134 163.842 836.367 163.725C836.717 163.608 836.892 162.908 836.892 161.625C836.892 160.925 837.009 160.283 837.242 159.7C837.592 159 837.884 157.892 838.117 156.375C839.05 152.058 839.984 148.617 840.917 146.05C842.317 140.217 843.309 136.717 843.892 135.55C844.475 134.267 844.825 132.633 844.942 130.65C844.942 130.417 844.767 130.3 844.417 130.3C838.35 131.933 832.05 138.058 825.517 148.675C822.6 152.758 821.142 156.375 821.142 159.525L820.442 162.325C819.859 165.125 819.159 167.167 818.342 168.45C818.109 169.5 817.817 170.2 817.467 170.55C817.35 171.717 816.65 173.408 815.367 175.625C812.567 180.292 810 182.625 807.667 182.625C802.184 182.042 799.325 179.825 799.092 175.975L798.917 171.95C798.917 170.317 799.034 169.208 799.267 168.625C799.617 167.575 799.85 165.767 799.967 163.2C800.084 162.617 800.259 162.267 800.492 162.15C801.192 160.167 801.6 158.417 801.717 156.9C801.717 156.433 801.834 155.908 802.067 155.325C802.417 154.742 802.592 154.333 802.592 154.1V153.925C802.592 153.692 803.059 152 803.992 148.85C805.275 146.167 806.034 144.067 806.267 142.55C806.5 140.917 806.792 139.808 807.142 139.225C807.609 138.642 807.959 137.825 808.192 136.775C808.425 135.725 808.775 134.733 809.242 133.8C809.709 132.867 810.059 131.467 810.292 129.6C810.642 127.617 811.575 124.758 813.092 121.025C813.675 119.392 814.142 116.883 814.492 113.5C811.925 115.25 809.884 116.825 808.367 118.225C800.317 125.575 792.85 135.667 785.967 148.5C782 156.083 780.017 159.992 780.017 160.225C780.017 160.342 779.784 160.808 779.317 161.625C778.85 162.442 778.325 163.608 777.742 165.125C777.625 165.242 777.567 165.358 777.567 165.475C777.567 165.592 777.159 166.817 776.342 169.15C775.642 170.667 775 172.533 774.417 174.75C774.067 175.8 773.775 176.442 773.542 176.675C772.959 177.492 772.434 178.658 771.967 180.175C771.5 181.575 771.034 182.508 770.567 182.975C770.217 183.442 769.342 185.192 767.942 188.225C767.242 189.625 766.075 190.325 764.442 190.325C762.809 190.325 761.234 189.917 759.717 189.1C758.084 188.4 756.975 187.525 756.392 186.475C755.692 184.608 755.342 182.158 755.342 179.125C755.342 177.958 755.4 176.792 755.517 175.625C755.634 174.342 755.692 173.292 755.692 172.475C756.275 165.125 757.15 159.933 758.317 156.9C758.784 156.083 759.017 155.208 759.017 154.275C759.017 152.642 759.484 151.183 760.417 149.9C760.534 149.783 760.767 149.2 761.117 148.15C761.117 147.1 761.292 146.283 761.642 145.7C761.875 145.117 762.809 142.667 764.442 138.35C764.909 137.767 765.142 137.183 765.142 136.6C765.142 136.017 765.725 134.5 766.892 132.05C767.125 131.583 767.242 131.175 767.242 130.825C767.242 130.475 767.65 129.775 768.467 128.725L769.692 125.925C769.692 124.642 770.8 123.3 773.017 121.9C774.067 121.2 775.409 120.85 777.042 120.85C782.992 120.85 785.967 123.65 785.967 129.25C785.267 136.017 784.8 139.458 784.567 139.575C784.334 139.575 784.217 139.925 784.217 140.625C784.45 140.625 785.209 139.575 786.492 137.475C793.609 126.742 799.092 119.392 802.942 115.425C808.075 110.292 812.217 107.725 815.367 107.725C818.634 108.308 820.734 108.95 821.667 109.65C825.284 112.45 827.092 116.708 827.092 122.425C827.092 123.008 827.034 124.058 826.917 125.575C826.8 126.975 826.684 128.9 826.567 131.35C826.45 133.683 826.275 135.55 826.042 136.95C826.042 137.417 826.1 137.65 826.217 137.65C826.45 137.65 827.092 137.067 828.142 135.9C834.442 128.667 840.1 125.05 845.117 125.05C848.5 125.05 851.767 126.333 854.917 128.9C858.067 131.467 859.642 135.258 859.642 140.275C859.409 147.392 859.059 152.467 858.592 155.5C858.242 155.85 857.892 157.075 857.542 159.175C857.309 161.275 857.134 162.383 857.017 162.5C855.5 168.217 854.567 172.65 854.217 175.8C853.867 177.9 853.634 179.008 853.517 179.125C853.4 179.242 853.109 181.05 852.642 184.55C852.525 185.367 852.35 186.125 852.117 186.825C852 187.525 851.942 188.225 851.942 188.925C851.942 191.375 852.292 193.358 852.992 194.875C853.342 195.575 853.75 195.925 854.217 195.925C859.467 195.925 865.359 190.5 871.892 179.65C874.925 174.75 879.417 165.825 885.367 152.875L890.267 142.2C890.734 141.267 891.609 140.8 892.892 140.8C894.059 140.8 894.642 141.325 894.642 142.375C893.009 148.792 888.167 159.292 880.117 173.875C870.2 191.725 861.975 200.65 855.442 200.65ZM760.417 182.8C763.217 165.067 768.292 146.342 775.642 126.625C771.442 135.025 767.942 144.3 765.142 154.45C762.342 164.6 760.767 174.05 760.417 182.8ZM764.442 177.55C767.709 156.2 772.025 140.625 777.392 130.825C775.292 135.375 772.959 142.258 770.392 151.475C767.825 160.575 765.842 169.267 764.442 177.55ZM807.667 176.325C817.117 156.492 821.842 139.75 821.842 126.1C821.842 122.717 821.492 119.45 820.792 116.3C820.909 118.05 820.967 119.858 820.967 121.725C820.967 136.658 816.534 154.858 807.667 176.325ZM806.967 173C808.6 166.7 810.234 160.808 811.867 155.325C816.3 141.208 818.517 130.767 818.517 124V122.95C817.817 130.65 814.609 144.3 808.892 163.9C808.075 166.933 807.434 169.967 806.967 173ZM844.242 185.95L850.017 163.2C852.584 152.7 853.867 144.883 853.867 139.75C853.867 138.817 853.809 137.3 853.692 135.2C853.692 133.1 852.875 131.583 851.242 130.65C852.409 132.167 852.992 134.792 852.992 138.525C852.992 139.108 852.934 140.742 852.817 143.425C852.7 146.108 851.825 151.242 850.192 158.825C848.675 166.408 846.692 175.45 844.242 185.95ZM842.142 179.65C847.275 161.45 849.842 149.317 849.842 143.25C849.842 141.15 849.55 139.633 848.967 138.7L849.142 140.975C849.142 147.275 846.809 160.167 842.142 179.65Z" fill="url(#paint0_linear_5_4)"/>
</g>
<defs>
<filter id="filter0_d_5_4" x="0.477539" y="0.574997" width="902.165" height="313.15" filterUnits="userSpaceOnUse" color-interpolation-filters="sRGB">
<feFlood flood-opacity="0" result="BackgroundImageFix"/>
<feColorMatrix in="SourceAlpha" type="matrix" values="0 0 0 0 0 0 0 0 0 0 0 0 0 0 0 0 0 0 127 0" result="hardAlpha"/>
<feOffset dy="2"/>
<feGaussianBlur stdDeviation="4"/>
<feComposite in2="hardAlpha" operator="out"/>
<feColorMatrix type="matrix" values="0 0 0 0 1 0 0 0 0 0.415686 0 0 0 0 0.533333 0 0 0 0.45 0"/>
<feBlend mode="normal" in2="BackgroundImageFix" result="effect1_dropShadow_5_4"/>
<feBlend mode="normal" in="SourceGraphic" in2="effect1_dropShadow_5_4" result="shape"/>
</filter>
<linearGradient id="paint0_linear_5_4" x1="942.432" y1="38.4589" x2="-23.2736" y2="248.483" gradientUnits="userSpaceOnUse">
<stop offset="0.0462852" stop-color="#FF99AC"/>
<stop offset="0.563406" stop-color="#FF6A88"/>
<stop offset="1" stop-color="#FF9A8B"/>
</linearGradient>
</defs>
</svg>
