<svg width="43" height="43" viewBox="0 0 43 43" fill="none" xmlns="http://www.w3.org/2000/svg">
<g clip-path="url(#clip0_102_2)">
<path d="M42.171 39.494H38.644C38.4961 39.4947 38.3527 39.5442 38.236 39.635C36.6498 40.8418 34.713 41.4977 32.72 41.503H19.171C18.9089 41.515 18.6517 41.4297 18.4487 41.2636C18.2457 41.0975 18.1111 40.8623 18.071 40.603C18.0547 40.4619 18.069 40.319 18.1128 40.1839C18.1567 40.0488 18.229 39.9247 18.325 39.82C18.4202 39.7161 18.5361 39.6332 18.6653 39.5767C18.7945 39.5202 18.934 39.4914 19.075 39.492C19.1867 39.492 19.2983 39.492 19.41 39.492H26.104C26.2816 39.492 26.4518 39.4215 26.5774 39.2959C26.703 39.1704 26.7735 39.0001 26.7735 38.8225C26.7735 38.645 26.703 38.4747 26.5774 38.3491C26.4518 38.2236 26.2816 38.153 26.104 38.153H19.412C19.3565 38.1461 19.3004 38.1461 19.245 38.153C19.1895 38.1461 19.1334 38.1461 19.078 38.153H17.163C16.9009 38.165 16.6437 38.0797 16.4407 37.9136C16.2377 37.7475 16.1031 37.5123 16.063 37.253C16.0467 37.1119 16.061 36.969 16.1048 36.8339C16.1487 36.6988 16.221 36.5747 16.317 36.47C16.4122 36.3661 16.5281 36.2832 16.6573 36.2267C16.7865 36.1702 16.926 36.1414 17.067 36.142H25.434C25.6115 36.142 25.7818 36.0715 25.9074 35.9459C26.033 35.8204 26.1035 35.6501 26.1035 35.4725C26.1035 35.295 26.033 35.1247 25.9074 34.9991C25.7818 34.8736 25.6115 34.803 25.434 34.803H15.155C14.8929 34.815 14.6357 34.7297 14.4327 34.5636C14.2297 34.3975 14.0951 34.1623 14.055 33.903C14.0387 33.7619 14.053 33.619 14.0968 33.4839C14.1407 33.3488 14.213 33.2247 14.309 33.12C14.4042 33.0161 14.5201 32.9332 14.6493 32.8767C14.7785 32.8202 14.918 32.7914 15.059 32.792H24.765C24.9426 32.792 25.1128 32.7215 25.2384 32.5959C25.364 32.4704 25.4345 32.3001 25.4345 32.1225C25.4345 31.945 25.364 31.7747 25.2384 31.6491C25.1128 31.5236 24.9426 31.453 24.765 31.453H17.065C16.9252 31.4527 16.787 31.4234 16.6591 31.3669C16.5312 31.3105 16.4164 31.2281 16.322 31.125C16.2248 31.0209 16.1511 30.8971 16.1061 30.762C16.0611 30.6269 16.0457 30.4836 16.061 30.342C16.1011 30.0828 16.2357 29.8476 16.4387 29.6814C16.6417 29.5153 16.8989 29.4301 17.161 29.442H30.961C31.0928 29.4402 31.2212 29.4004 31.331 29.3274C31.4407 29.2544 31.5272 29.1514 31.5799 29.0306C31.6326 28.9099 31.6495 28.7764 31.6284 28.6463C31.6073 28.5162 31.5492 28.395 31.461 28.297L28.168 25.024C27.7919 24.6475 27.5807 24.1372 27.5807 23.605C27.5807 23.0729 27.7919 22.5625 28.168 22.186C28.2303 22.1223 28.3047 22.0716 28.3869 22.037C28.4691 22.0024 28.5573 21.9846 28.6465 21.9846C28.7356 21.9846 28.8239 22.0024 28.9061 22.037C28.9882 22.0716 29.0627 22.1223 29.125 22.186L33.677 26.579C33.7473 26.648 33.832 26.7006 33.925 26.733L34.541 26.941C35.4342 27.2448 36.2337 27.7744 36.8617 28.4784C37.4897 29.1825 37.9249 30.037 38.125 30.959C38.1589 31.11 38.2442 31.2445 38.3661 31.3397C38.4881 31.4349 38.6393 31.4848 38.794 31.481H42.168C42.3456 31.481 42.5158 31.4105 42.6414 31.2849C42.767 31.1594 42.8375 30.9891 42.8375 30.8115C42.8375 30.634 42.767 30.4637 42.6414 30.3381C42.5158 30.2126 42.3456 30.142 42.168 30.142H39.293C38.9757 29.1117 38.4182 28.1714 37.6665 27.3986C36.9147 26.6258 35.9902 26.0426 34.969 25.697L34.494 25.536L30.063 21.265C29.6804 20.898 29.1707 20.6931 28.6405 20.6931C28.1103 20.6931 27.6006 20.898 27.218 21.265C26.5904 21.8927 26.2379 22.744 26.2379 23.6315C26.2379 24.5191 26.5904 25.3704 27.218 25.998L29.353 28.113H17.163C16.5692 28.1026 15.9923 28.3113 15.5426 28.6992C15.0929 29.0872 14.8018 29.6271 14.725 30.216C14.6843 30.6441 14.7632 31.0751 14.953 31.461C14.6327 31.4729 14.3182 31.5506 14.0293 31.6892C13.7403 31.8279 13.4829 32.0245 13.2732 32.2669C13.0634 32.5092 12.9058 32.7922 12.8101 33.0981C12.7144 33.404 12.6827 33.7263 12.717 34.045C12.7889 34.5998 13.0512 35.1124 13.459 35.4954C13.8667 35.8784 14.3948 36.108 14.953 36.145C14.7641 36.532 14.6853 36.9633 14.725 37.392C14.7969 37.9468 15.0592 38.4594 15.467 38.8424C15.8747 39.2254 16.4028 39.455 16.961 39.492C16.7726 39.8784 16.6937 40.309 16.733 40.737C16.8105 41.3252 17.1017 41.8643 17.5511 42.2516C18.0006 42.6389 18.5768 42.8473 19.17 42.837H32.72C34.9286 42.8314 37.0792 42.1287 38.865 40.829H42.172C42.3495 40.829 42.5198 40.7585 42.6454 40.6329C42.7709 40.5074 42.8415 40.3371 42.8415 40.1595C42.8415 39.982 42.7709 39.8117 42.6454 39.6861C42.5198 39.5606 42.3495 39.49 42.172 39.49L42.171 39.494Z" fill="#9A6C3E"/>
<path d="M16.226 14.057C16.7302 14.0976 17.2005 14.3269 17.5429 14.6992C17.8853 15.0714 18.0746 15.5592 18.073 16.065V16.734C18.073 16.9114 18.1435 17.0816 18.2689 17.2071C18.3944 17.3325 18.5646 17.403 18.742 17.403H23.428C23.6054 17.403 23.7756 17.3325 23.9011 17.2071C24.0265 17.0816 24.097 16.9114 24.097 16.734V15.57C24.0973 13.4516 23.2792 11.415 21.8133 9.88569C20.3475 8.35633 18.3475 7.4525 16.231 7.363C15.8121 6.84629 15.302 6.41075 14.726 6.078V3.347C14.726 3.16957 14.6555 2.99941 14.5301 2.87395C14.4046 2.74848 14.2344 2.678 14.057 2.678H12.718V1.339H16.734C16.9116 1.339 17.0819 1.26846 17.2074 1.14291C17.333 1.01735 17.4035 0.847062 17.4035 0.6695C17.4035 0.491938 17.333 0.321648 17.2074 0.196092C17.0819 0.0705364 16.9116 0 16.734 0H7.363C7.18544 0 7.01515 0.0705364 6.88959 0.196092C6.76404 0.321648 6.6935 0.491938 6.6935 0.6695C6.6935 0.847062 6.76404 1.01735 6.88959 1.14291C7.01515 1.26846 7.18544 1.339 7.363 1.339H11.38V2.678H10.041C9.95315 2.678 9.86615 2.6953 9.78498 2.72892C9.70382 2.76254 9.63007 2.81182 9.56795 2.87395C9.50582 2.93607 9.45655 3.00982 9.42292 3.09098C9.3893 3.17215 9.372 3.25915 9.372 3.347V6.078C9.06596 6.25339 8.77878 6.45981 8.515 6.694H5.355C5.355 6.60615 5.3377 6.51915 5.30408 6.43798C5.27045 6.35682 5.22118 6.28307 5.15905 6.22095C5.09693 6.15882 5.02318 6.10954 4.94202 6.07592C4.86085 6.0423 4.77385 6.025 4.686 6.025H0.669C0.49157 6.025 0.321407 6.09548 0.195946 6.22095C0.0704837 6.34641 0 6.51657 0 6.694L0 14.727C0 14.8149 0.0173042 14.9018 0.0509246 14.983C0.084545 15.0642 0.133823 15.1379 0.195946 15.2001C0.258068 15.2622 0.331818 15.3115 0.412985 15.3451C0.494152 15.3787 0.581146 15.396 0.669 15.396H4.686C4.77385 15.396 4.86085 15.3787 4.94202 15.3451C5.02318 15.3115 5.09693 15.2622 5.15905 15.2001C5.22118 15.1379 5.27045 15.0642 5.30408 14.983C5.3377 14.9018 5.355 14.8149 5.355 14.727H8.515C9.48785 15.5934 10.7463 16.0702 12.049 16.066C12.8512 16.0655 13.643 15.8848 14.366 15.5373C15.089 15.1897 15.7246 14.6842 16.226 14.058V14.057ZM10.71 4.016H13.388V5.529C12.9503 5.41721 12.5007 5.35878 12.049 5.355C11.5971 5.35547 11.147 5.41394 10.71 5.529V4.016ZM1.339 14.057V7.363H4.016V14.057H1.339ZM15.339 13.006C15.0055 13.4843 14.5718 13.8842 14.0682 14.1779C13.5645 14.4717 13.0029 14.6522 12.4224 14.707C11.8419 14.7618 11.2565 14.6896 10.7067 14.4953C10.157 14.301 9.65615 13.9894 9.239 13.582C9.11422 13.4582 8.94575 13.3886 8.77 13.388H5.355V8.033H8.776C8.95175 8.03245 9.12022 7.96276 9.245 7.839C9.66215 7.43163 10.163 7.11997 10.7127 6.92569C11.2625 6.73141 11.8479 6.65916 12.4284 6.71398C13.0089 6.76879 13.5705 6.94935 14.0742 7.24309C14.5778 7.53684 15.0115 7.93674 15.345 8.415C15.4065 8.50374 15.4885 8.57628 15.5841 8.62643C15.6797 8.67658 15.786 8.70285 15.894 8.703C17.7149 8.70485 19.4608 9.42904 20.7484 10.7166C22.036 12.0042 22.7601 13.7501 22.762 15.571V16.071H19.412C19.412 15.6315 19.3254 15.1962 19.1572 14.7902C18.989 14.3841 18.7425 14.0151 18.4317 13.7043C18.1209 13.3935 17.7519 13.147 17.3458 12.9788C16.9398 12.8106 16.5045 12.724 16.065 12.724H15.891C15.7836 12.7235 15.6776 12.7488 15.582 12.7979C15.4865 12.847 15.4041 12.9184 15.342 13.006H15.339Z" fill="#9A6C3E"/>
<path d="M20.242 18.307C19.974 18.622 17.625 21.42 17.625 23.662C17.625 24.4911 17.9543 25.2862 18.5406 25.8724C19.1268 26.4587 19.9219 26.788 20.751 26.788C21.5801 26.788 22.3752 26.4587 22.9614 25.8724C23.5477 25.2862 23.877 24.4911 23.877 23.662C23.877 21.433 21.527 18.635 21.26 18.307C21.1972 18.2336 21.1192 18.1746 21.0314 18.1341C20.9437 18.0937 20.8481 18.0728 20.7515 18.0728C20.6548 18.0728 20.5593 18.0937 20.4716 18.1341C20.3838 18.1746 20.3058 18.2336 20.243 18.307H20.242ZM20.751 25.436C20.2776 25.4342 19.8242 25.2453 19.4894 24.9106C19.1547 24.5759 18.9658 24.1224 18.964 23.649C18.964 22.491 20.002 20.831 20.751 19.82C21.501 20.831 22.538 22.498 22.538 23.649C22.5362 24.1224 22.3473 24.5759 22.0126 24.9106C21.6778 25.2453 21.2244 25.4342 20.751 25.436V25.436Z" fill="#9A6C3E"/>
</g>
<defs>
<clipPath id="clip0_102_2">
<rect width="42.841" height="42.841" fill="white"/>
</clipPath>
</defs>
</svg>
