<svg width="43" height="51" viewBox="0 0 43 51" fill="none" xmlns="http://www.w3.org/2000/svg">
<g clip-path="url(#clip0_102_6)">
<path d="M24.5029 31.613H18.1799C17.9703 31.613 17.7692 31.6963 17.6209 31.8446C17.4727 31.9928 17.3894 32.1939 17.3894 32.4035C17.3894 32.6132 17.4727 32.8143 17.6209 32.9625C17.7692 33.1108 17.9703 33.194 18.1799 33.194H24.5029C24.7126 33.194 24.9136 33.1108 25.0619 32.9625C25.2101 32.8143 25.2934 32.6132 25.2934 32.4035C25.2934 32.1939 25.2101 31.9928 25.0619 31.8446C24.9136 31.6963 24.7126 31.613 24.5029 31.613Z" fill="#9A6C3E"/>
<path d="M24.5029 34.7739H18.1799C17.9703 34.7739 17.7692 34.8572 17.6209 35.0055C17.4727 35.1537 17.3894 35.3548 17.3894 35.5644C17.3894 35.7741 17.4727 35.9751 17.6209 36.1234C17.7692 36.2716 17.9703 36.3549 18.1799 36.3549H24.5029C24.7126 36.3549 24.9136 36.2716 25.0619 36.1234C25.2101 35.9751 25.2934 35.7741 25.2934 35.5644C25.2934 35.3548 25.2101 35.1537 25.0619 35.0055C24.9136 34.8572 24.7126 34.7739 24.5029 34.7739V34.7739Z" fill="#9A6C3E"/>
<path d="M15.414 24.5011C16.0685 24.5011 16.599 23.7933 16.599 22.9201C16.599 22.0469 16.0685 21.3391 15.414 21.3391C14.7595 21.3391 14.229 22.0469 14.229 22.9201C14.229 23.7933 14.7595 24.5011 15.414 24.5011Z" fill="#9A6C3E"/>
<path d="M27.269 24.5011C27.9234 24.5011 28.454 23.7933 28.454 22.9201C28.454 22.0469 27.9234 21.3391 27.269 21.3391C26.6145 21.3391 26.084 22.0469 26.084 22.9201C26.084 23.7933 26.6145 24.5011 27.269 24.5011Z" fill="#9A6C3E"/>
<path d="M42.6329 49.514C41.8734 47.5106 40.5241 45.7846 38.7632 44.5641C37.0022 43.3436 34.9125 42.686 32.7699 42.678H26.8699V39.1C28.9762 38.1466 30.8008 36.6658 32.1673 34.8008C33.5337 32.9358 34.3957 30.7497 34.6699 28.454H35.5629C36.3922 28.4538 37.2004 28.1927 37.8731 27.7077C38.5458 27.2228 39.0489 26.5385 39.3111 25.7517C39.5734 24.965 39.5815 24.1157 39.3343 23.3241C39.0872 22.5325 38.5972 21.8387 37.9339 21.341V12.645C37.9411 11.5642 37.669 10.4998 37.1439 9.555C37.6778 8.28158 37.9466 6.91274 37.9339 5.532C37.9339 4.06517 37.3514 2.65839 36.3144 1.62099C35.2773 0.583598 33.8708 0.000530308 32.4039 0L18.1809 0C16.8979 0.00204832 15.631 0.286277 14.47 0.832543C13.309 1.37881 12.2824 2.17374 11.4629 3.161C9.64574 3.26207 7.93642 4.05586 6.68675 5.37901C5.43707 6.70216 4.74213 8.454 4.74494 10.274V21.339C4.08164 21.8367 3.59172 22.5305 3.34455 23.3221C3.09739 24.1137 3.1055 24.963 3.36774 25.7497C3.62998 26.5365 4.13307 27.2208 4.80576 27.7057C5.47845 28.1907 6.28665 28.4518 7.11594 28.452H8.00894C8.28316 30.7477 9.14518 32.9338 10.5116 34.7988C11.8781 36.6638 13.7027 38.1446 15.8089 39.098V42.678H9.90894C7.76639 42.686 5.67665 43.3436 3.9157 44.5641C2.15475 45.7846 0.80543 47.5106 0.0459378 49.514C-0.0217045 49.7097 -0.0100977 49.9242 0.0782769 50.1114C0.166651 50.2987 0.324782 50.444 0.518865 50.5162C0.712949 50.5885 0.927587 50.5819 1.1169 50.4979C1.30621 50.414 1.45517 50.2593 1.53194 50.067C2.17552 48.3642 3.3211 46.897 4.817 45.8597C6.3129 44.8223 8.08857 44.2638 9.90894 44.258H12.7039C13.1859 47.807 16.8769 50.581 21.3419 50.581C25.8069 50.581 29.4979 47.807 29.9799 44.258H32.7699C34.5903 44.2638 36.366 44.8223 37.8619 45.8597C39.3578 46.897 40.5034 48.3642 41.1469 50.067C41.1815 50.1669 41.2356 50.2589 41.3062 50.3376C41.3768 50.4163 41.4624 50.48 41.558 50.5251C41.6536 50.5703 41.7573 50.5958 41.8629 50.6003C41.9685 50.6047 42.0739 50.588 42.173 50.5512C42.2721 50.5143 42.3628 50.458 42.4398 50.3856C42.5168 50.3132 42.5785 50.2261 42.6214 50.1294C42.6642 50.0328 42.6873 49.9286 42.6893 49.8229C42.6913 49.7172 42.6721 49.6122 42.6329 49.514V49.514ZM21.3419 38.726C21.0515 38.734 20.7608 38.7183 20.4729 38.679C17.0979 38.379 13.4389 36.403 13.4389 33.984C13.4389 30.696 14.3949 27.661 21.3389 27.661C28.2829 27.661 29.2389 30.696 29.2389 33.984C29.2389 36.402 25.5799 38.378 22.2049 38.679C21.919 38.7179 21.6304 38.7337 21.3419 38.726V38.726ZM9.48694 20.926C10.4592 20.2763 11.2563 19.397 11.8076 18.3658C12.359 17.3346 12.6476 16.1833 12.6479 15.014V14.17C13.8404 15.2256 15.3784 15.8076 16.9709 15.806H27.6639C28.7377 15.805 29.8045 15.6342 30.8249 15.3V15.806C30.8255 16.7532 31.0389 17.6881 31.4492 18.5418C31.8596 19.3954 32.4566 20.146 33.1959 20.738V21.2C32.3029 23.848 30.2559 27.926 28.4539 27.926C26.8729 26.685 24.5019 26.077 21.3409 26.077C18.1799 26.077 15.8089 26.686 14.2759 27.926C12.4029 27.926 10.3759 23.848 9.53394 21.208L9.48694 20.926ZM30.8259 33.984C30.9029 32.3166 30.4772 30.6645 29.6039 29.242C31.0819 28.594 32.3039 26.871 33.1919 25.188V26.871C33.1979 29.4362 32.3673 31.9335 30.8259 33.984ZM35.5679 26.871H34.7779V22.129H35.5679C36.1968 22.129 36.7998 22.3788 37.2445 22.8235C37.6891 23.2681 37.9389 23.8712 37.9389 24.5C37.9389 25.1288 37.6891 25.7319 37.2445 26.1765C36.7998 26.6212 36.1968 26.871 35.5679 26.871V26.871ZM36.3579 12.645V20.485C35.252 20.2986 34.2479 19.7263 33.524 18.8697C32.8001 18.013 32.4032 16.9275 32.4039 15.806V14.636C33.9128 13.8497 35.2027 12.701 36.1579 11.293C36.2924 11.731 36.3598 12.1868 36.3579 12.645V12.645ZM6.32594 10.274C6.32594 8.80682 6.90877 7.39974 7.94622 6.36229C8.98368 5.32483 10.3908 4.742 11.8579 4.742C11.9806 4.742 12.1015 4.71345 12.2112 4.6586C12.3209 4.60375 12.4164 4.52412 12.4899 4.426C13.1546 3.54491 14.0141 2.82959 15.0012 2.33603C15.9883 1.84246 17.0763 1.58405 18.1799 1.581H32.4039C33.4521 1.581 34.4573 1.99737 35.1984 2.73851C35.9396 3.47966 36.3559 4.48486 36.3559 5.533C36.3559 6.67471 36.1311 7.80525 35.6941 8.86005C35.2572 9.91485 34.6168 10.8733 33.8095 11.6806C33.0022 12.4879 32.0438 13.1283 30.989 13.5652C29.9342 14.0021 28.8037 14.227 27.6619 14.227H16.9709C16.0546 14.2295 15.1558 13.9753 14.3764 13.4934C13.597 13.0114 12.9681 12.3209 12.5609 11.5C12.4805 11.342 12.3493 11.2157 12.1884 11.1413C12.0275 11.067 11.8462 11.0489 11.6738 11.09C11.5014 11.131 11.3478 11.2289 11.2377 11.3679C11.1276 11.5068 11.0675 11.6787 11.0669 11.856V15.017C11.0673 16.3476 10.5882 17.6338 9.7172 18.6397C8.84625 19.6457 7.6419 20.304 6.32494 20.494L6.32594 10.274ZM7.11594 26.874C6.48711 26.874 5.88404 26.6242 5.43939 26.1796C4.99474 25.7349 4.74494 25.1318 4.74494 24.503C4.74494 23.8742 4.99474 23.2711 5.43939 22.8265C5.88404 22.3818 6.48711 22.132 7.11594 22.132H7.90594V26.874H7.11594ZM9.48694 26.874V25.235C10.3639 26.871 11.5809 28.61 13.0669 29.242C12.2005 30.6669 11.7795 32.3182 11.8579 33.984C10.3148 31.9341 9.48237 29.4368 9.48694 26.871V26.874ZM20.2989 40.254C20.6469 40.254 20.9989 40.309 21.3419 40.309C21.6905 40.3182 22.0393 40.2999 22.3849 40.254C23.3709 40.1812 24.346 40.0012 25.2929 39.717V43.471C25.2929 44.759 23.4829 45.842 21.3409 45.842C19.1989 45.842 17.3889 44.759 17.3889 43.471V39.714C18.3359 39.9982 19.311 40.1782 20.2969 40.251L20.2989 40.254ZM21.3419 49C17.7699 49 14.8059 46.937 14.3079 44.258H15.8889C16.3889 46.084 18.5889 47.419 21.3109 47.419C24.0329 47.419 26.2349 46.083 26.7329 44.258H28.3139C27.8779 46.937 24.9139 49 21.3419 49Z" fill="#9A6C3E"/>
<path d="M13.8661 20.4541C14.068 20.2509 14.3081 20.0897 14.5726 19.9798C14.8371 19.8698 15.1207 19.8131 15.4071 19.8131C15.6935 19.8131 15.9771 19.8698 16.2416 19.9798C16.506 20.0897 16.7461 20.2509 16.9481 20.4541C17.0208 20.5313 17.1084 20.5932 17.2055 20.6359C17.3027 20.6786 17.4074 20.7014 17.5135 20.7028C17.6196 20.7042 17.7249 20.6842 17.8232 20.6441C17.9214 20.604 18.0106 20.5445 18.0853 20.4692C18.1601 20.3939 18.2189 20.3043 18.2584 20.2058C18.2978 20.1072 18.317 20.0018 18.3148 19.8957C18.3127 19.7896 18.2892 19.685 18.2458 19.5882C18.2023 19.4914 18.1399 19.4042 18.0621 19.3321C17.3556 18.6289 16.3994 18.2341 15.4026 18.2341C14.4058 18.2341 13.4496 18.6289 12.7431 19.3321C12.6645 19.4046 12.6015 19.4923 12.5576 19.5898C12.5138 19.6873 12.4901 19.7927 12.4879 19.8996C12.4858 20.0065 12.5053 20.1127 12.5453 20.2119C12.5852 20.3111 12.6447 20.4012 12.7204 20.4768C12.796 20.5524 12.8861 20.612 12.9852 20.6519C13.0844 20.6918 13.1907 20.7113 13.2976 20.7092C13.4045 20.7071 13.5098 20.6834 13.6074 20.6395C13.7049 20.5957 13.7925 20.5326 13.8651 20.4541H13.8661Z" fill="#9A6C3E"/>
<path d="M25.734 20.4541C25.9359 20.2509 26.176 20.0897 26.4405 19.9798C26.705 19.8698 26.9886 19.8131 27.275 19.8131C27.5614 19.8131 27.845 19.8698 28.1095 19.9798C28.3739 20.0897 28.614 20.2509 28.816 20.4541C28.8885 20.5326 28.9762 20.5957 29.0737 20.6395C29.1712 20.6834 29.2766 20.7071 29.3835 20.7092C29.4904 20.7113 29.5967 20.6918 29.6958 20.6519C29.795 20.612 29.8851 20.5524 29.9607 20.4768C30.0363 20.4012 30.0959 20.3111 30.1358 20.2119C30.1758 20.1127 30.1953 20.0065 30.1931 19.8996C30.191 19.7927 30.1673 19.6873 30.1235 19.5898C30.0796 19.4923 30.0165 19.4046 29.938 19.3321C29.2315 18.6289 28.2753 18.2341 27.2785 18.2341C26.2817 18.2341 25.3255 18.6289 24.619 19.3321C24.474 19.4807 24.3933 19.6804 24.3943 19.888C24.3953 20.0957 24.4779 20.2946 24.6242 20.4419C24.7706 20.5892 24.969 20.673 25.1766 20.6753C25.3842 20.6776 25.5844 20.5981 25.734 20.4541V20.4541Z" fill="#9A6C3E"/>
</g>
<defs>
<clipPath id="clip0_102_6">
<rect width="42.684" height="50.581" fill="white"/>
</clipPath>
</defs>
</svg>
