<svg width="43" height="43" viewBox="0 0 43 43" fill="none" xmlns="http://www.w3.org/2000/svg">
<g clip-path="url(#clip0_102_14)">
<path d="M21.202 17.221C22.9049 17.221 24.5695 16.716 25.9854 15.77C27.4013 14.824 28.5048 13.4793 29.1565 11.9061C29.8082 10.3329 29.9788 8.60177 29.6467 6.93162C29.3145 5.26147 28.4946 3.72731 27.2906 2.52314C26.0866 1.31897 24.5525 0.498873 22.8824 0.166541C21.2123 -0.165791 19.4811 0.00457346 17.9078 0.656091C16.3345 1.30761 14.9898 2.41102 14.0436 3.82679C13.0974 5.24257 12.5922 6.90713 12.592 8.60998C12.592 10.8935 13.4992 13.0835 15.1139 14.6982C16.7285 16.3129 18.9185 17.22 21.202 17.22V17.221ZM21.202 1.32098C22.643 1.32078 24.0516 1.74786 25.2499 2.5482C26.4481 3.34854 27.3822 4.48621 27.9339 5.81736C28.4856 7.14851 28.6302 8.61336 28.3494 10.0267C28.0686 11.44 27.3751 12.7384 26.3564 13.7575C25.3378 14.7767 24.0398 15.471 22.6267 15.7525C21.2135 16.0341 19.7486 15.8903 18.4171 15.3393C17.0857 14.7884 15.9475 13.855 15.1465 12.6572C14.3455 11.4593 13.9176 10.0509 13.917 8.60998C13.9173 6.67796 14.6849 4.82515 16.0511 3.459C17.4172 2.09286 19.27 1.32525 21.202 1.32498V1.32098Z" fill="#9A6C3E"/>
<path d="M16.5649 11.955H16.6509C16.7381 11.9555 16.8244 11.9388 16.9051 11.9059C16.9857 11.8729 17.0591 11.8244 17.1209 11.763L24.4069 4.51001C24.4668 4.43318 24.51 4.34469 24.5337 4.25022C24.5574 4.15575 24.5612 4.05736 24.5447 3.96136C24.5283 3.86535 24.4919 3.77384 24.4381 3.69268C24.3842 3.61152 24.314 3.54249 24.2319 3.49001C23.095 2.82383 21.7694 2.55314 20.4623 2.72026C19.1553 2.88738 17.9404 3.48288 17.0077 4.41367C16.0749 5.34447 15.4769 6.55809 15.3071 7.86481C15.1372 9.17153 15.4051 10.4977 16.0689 11.636C16.1213 11.7239 16.1934 11.7984 16.2795 11.8538C16.3655 11.9091 16.4632 11.9438 16.5649 11.955ZM21.2019 3.97401C21.7323 3.97499 22.2587 4.067 22.7579 4.24601L16.8319 10.167C16.5824 9.46717 16.5047 8.71761 16.6055 7.98147C16.7062 7.24534 16.9824 6.5442 17.4108 5.93713C17.8391 5.33005 18.4071 4.83483 19.0669 4.49319C19.7267 4.15154 20.4589 3.97348 21.2019 3.97401V3.97401Z" fill="#9A6C3E"/>
<path d="M17.893 13.247C17.9059 13.3465 17.9412 13.4417 17.9963 13.5256C18.0514 13.6094 18.1248 13.6797 18.211 13.731C19.3476 14.3813 20.6667 14.6392 21.9646 14.465C23.2624 14.2907 24.4668 13.6939 25.3916 12.7669C26.3164 11.8398 26.9102 10.634 27.0813 9.3357C27.2523 8.03743 26.9911 6.71896 26.338 5.58396C26.2868 5.49664 26.2162 5.42223 26.1316 5.36648C26.0471 5.31072 25.9509 5.2751 25.8505 5.26235C25.75 5.2496 25.648 5.26006 25.5522 5.29294C25.4564 5.32581 25.3695 5.38021 25.298 5.45196L18.043 12.737C17.9841 12.807 17.9404 12.8885 17.9146 12.9762C17.8888 13.064 17.8814 13.1562 17.893 13.247V13.247ZM25.603 7.04096C25.8966 7.86688 25.9501 8.75912 25.7571 9.61417C25.5642 10.4692 25.1328 11.2521 24.513 11.8719C23.8931 12.4917 23.1103 12.9231 22.2552 13.116C21.4002 13.309 20.508 13.2556 19.682 12.962L25.603 7.04096Z" fill="#9A6C3E"/>
<path d="M42.205 27.294C42.1434 27.2318 42.0701 27.1824 41.9894 27.1487C41.9086 27.115 41.822 27.0977 41.7345 27.0977C41.647 27.0977 41.5603 27.115 41.4796 27.1487C41.3988 27.1824 41.3255 27.2318 41.264 27.294L40.728 27.83C40.1356 28.4323 39.7154 29.1823 39.511 30.002C39.1669 31.2545 38.5028 32.3959 37.584 33.314L30.411 40.502C30.2836 40.6438 30.1085 40.7338 29.9191 40.7546C29.7296 40.7754 29.5391 40.7257 29.384 40.615C29.3028 40.5504 29.2365 40.4691 29.1895 40.3766C29.1426 40.2841 29.1162 40.1826 29.112 40.079C29.1062 39.9786 29.1222 39.8781 29.1588 39.7844C29.1953 39.6907 29.2517 39.606 29.324 39.536C29.3526 39.4979 29.3789 39.4581 29.403 39.417L29.522 39.338L32.668 36.185C32.7781 36.0585 32.8362 35.895 32.8304 35.7274C32.8247 35.5598 32.7555 35.4006 32.6369 35.282C32.5184 35.1634 32.3592 35.0943 32.1916 35.0885C32.024 35.0828 31.8604 35.1408 31.734 35.251L28.581 38.417C28.5524 38.4551 28.526 38.4948 28.502 38.536C28.4608 38.56 28.4211 38.5864 28.383 38.615V38.615L27.264 39.741C27.1342 39.8807 26.9588 39.9694 26.7694 39.9912C26.5801 40.013 26.3891 39.9665 26.231 39.86C26.1517 39.7942 26.0872 39.7125 26.0415 39.6202C25.9959 39.5278 25.9701 39.4269 25.966 39.324C25.9602 39.2225 25.9761 39.121 26.0127 39.0261C26.0492 38.9313 26.1056 38.8453 26.178 38.774L30.711 34.242C30.8211 34.1155 30.8792 33.952 30.8734 33.7844C30.8677 33.6168 30.7985 33.4576 30.6799 33.339C30.5614 33.2204 30.4022 33.1513 30.2346 33.1455C30.067 33.1398 29.9034 33.1978 29.777 33.308L25.055 38.03L24.121 38.957C23.9908 39.0942 23.8162 39.1808 23.6282 39.2015C23.4402 39.2222 23.2509 39.1756 23.094 39.07C23.0147 39.0042 22.9502 38.9225 22.9045 38.8302C22.8589 38.7378 22.8331 38.6369 22.829 38.534C22.8232 38.4325 22.8391 38.331 22.8757 38.2361C22.9122 38.1413 22.9686 38.0553 23.041 37.984L24.211 36.802L28.735 32.278C28.7979 32.2166 28.848 32.1432 28.8823 32.0622C28.9166 31.9813 28.9345 31.8943 28.9349 31.8063C28.9352 31.7184 28.9181 31.6312 28.8844 31.55C28.8508 31.4687 28.8013 31.395 28.7389 31.333C28.6765 31.271 28.6024 31.2221 28.5209 31.1891C28.4394 31.1561 28.3521 31.1396 28.2641 31.1406C28.1762 31.1416 28.0893 31.1601 28.0086 31.1951C27.9279 31.23 27.8549 31.2806 27.794 31.344L23.275 35.872C23.1995 35.9411 23.1103 35.9936 23.0132 36.026C22.9161 36.0584 22.8132 36.07 22.7113 36.06C22.6094 36.05 22.5108 36.0186 22.4218 35.968C22.3329 35.9173 22.2556 35.8485 22.195 35.766C22.0854 35.609 22.0367 35.4174 22.0581 35.2271C22.0794 35.0368 22.1693 34.8608 22.311 34.732L29.153 27.943C30.1605 28.7131 31.3917 29.1337 32.6598 29.1409C33.9279 29.1482 35.1638 28.7416 36.18 27.983C36.2496 27.9308 36.3082 27.8654 36.3525 27.7905C36.3969 27.7157 36.426 27.6328 36.4383 27.5467C36.4506 27.4606 36.4458 27.3729 36.4243 27.2886C36.4027 27.2043 36.3647 27.1251 36.3125 27.0555C36.2603 26.9859 36.1949 26.9273 36.12 26.8829C36.0452 26.8386 35.9623 26.8095 35.8762 26.7972C35.79 26.7848 35.7023 26.7896 35.6181 26.8112C35.5338 26.8328 35.4546 26.8708 35.385 26.923C34.5965 27.5127 33.6363 27.8276 32.6517 27.8193C31.6671 27.811 30.7124 27.48 29.934 26.877L29.497 26.539C29.4377 26.4926 29.3697 26.4586 29.297 26.439C29.271 26.4326 29.2439 26.4326 29.218 26.439C29.1871 26.4359 29.1559 26.4359 29.125 26.439L25.311 26.294C24.8975 26.2906 24.5019 26.1248 24.2095 25.8324C23.9171 25.5401 23.7514 25.1445 23.748 24.731C23.7496 24.612 23.7968 24.4981 23.88 24.413C23.923 24.3693 23.9747 24.335 24.0317 24.3123C24.0886 24.2896 24.1497 24.2789 24.211 24.281L29.463 24.181C29.5593 24.1795 29.6542 24.157 29.741 24.115L30.231 23.87C31.0493 23.4594 31.9757 23.3156 32.88 23.459C33.6924 23.5978 34.5261 23.5417 35.3126 23.2953C36.0991 23.049 36.8159 22.6194 37.404 22.042L42.204 17.22C42.2658 17.1582 42.3148 17.0849 42.3482 17.0041C42.3817 16.9234 42.3989 16.8369 42.3989 16.7495C42.3989 16.6621 42.3817 16.5756 42.3482 16.4949C42.3148 16.4141 42.2658 16.3408 42.204 16.279C42.1422 16.2172 42.0688 16.1682 41.9881 16.1348C41.9074 16.1013 41.8209 16.0841 41.7335 16.0841C41.6461 16.0841 41.5596 16.1013 41.4788 16.1348C41.3981 16.1682 41.3248 16.2172 41.263 16.279L36.435 21.107C35.9925 21.5346 35.4553 21.8517 34.867 22.0324C34.2788 22.2131 33.6562 22.2524 33.05 22.147C31.8849 21.9724 30.6943 22.1595 29.639 22.683L29.288 22.855L24.195 22.955C23.9608 22.9532 23.7286 22.9982 23.512 23.0872C23.2954 23.1763 23.0988 23.3076 22.9335 23.4735C22.7682 23.6394 22.6377 23.8366 22.5495 24.0535C22.4614 24.2705 22.4173 24.5028 22.42 24.737C22.4234 25.4978 22.7262 26.2267 23.263 26.7658C23.7997 27.305 24.5272 27.6112 25.288 27.618V27.618L27.5 27.678L21.368 33.812C21.3091 33.8773 21.2537 33.9458 21.202 34.017C21.1503 33.9458 21.0949 33.8773 21.036 33.812L14.903 27.679L17.095 27.619C17.8599 27.6158 18.5927 27.3106 19.1336 26.7696C19.6745 26.2287 19.9798 25.496 19.983 24.731C19.9818 24.2602 19.7962 23.8086 19.466 23.473C19.1351 23.1436 18.6878 22.9579 18.221 22.956V22.956L13.114 22.856L12.77 22.69C11.7136 22.1618 10.52 21.9722 9.35198 22.147C8.74546 22.2549 8.12195 22.2163 7.53335 22.0346C6.94474 21.8528 6.40806 21.5331 5.96798 21.102L1.13998 16.273C1.0778 16.2112 1.00405 16.1623 0.922962 16.129C0.841869 16.0957 0.755014 16.0787 0.667356 16.079C0.579697 16.0793 0.492952 16.0968 0.412073 16.1306C0.331193 16.1644 0.257764 16.2138 0.195977 16.276C0.13419 16.3382 0.0852558 16.4119 0.0519677 16.493C0.0186796 16.5741 0.00168981 16.661 0.00196838 16.7486C0.00224696 16.8363 0.0197884 16.923 0.0535913 17.0039C0.0873941 17.0848 0.136796 17.1582 0.198977 17.22L5.02698 22.048C5.61496 22.6256 6.33169 23.0553 7.11819 23.3019C7.90469 23.5484 8.73849 23.6046 9.55098 23.466C10.4559 23.3231 11.3828 23.469 12.2 23.883L12.684 24.121C12.7707 24.163 12.8656 24.1855 12.962 24.187L18.262 24.287C18.3196 24.2861 18.3768 24.2968 18.4302 24.3185C18.4837 24.3401 18.5322 24.3723 18.573 24.413C18.6587 24.497 18.7085 24.611 18.712 24.731C18.7085 25.1486 18.5403 25.5479 18.2438 25.8419C17.9473 26.136 17.5466 26.301 17.129 26.301L13.38 26.407C13.25 26.4099 13.1237 26.4511 13.017 26.5253C12.9103 26.5996 12.8277 26.7036 12.7797 26.8245C12.7318 26.9453 12.7204 27.0776 12.7471 27.2048C12.7738 27.3321 12.8374 27.4487 12.93 27.54L20.149 34.759C20.274 34.8937 20.3488 35.0674 20.3608 35.2508C20.3728 35.4342 20.3213 35.6161 20.215 35.766C20.1492 35.8453 20.0675 35.9098 19.9751 35.9555C19.8828 36.0011 19.7819 36.0268 19.679 36.031C19.5775 36.0363 19.4761 36.0202 19.3814 35.9837C19.2866 35.9471 19.2006 35.891 19.129 35.819L14.579 31.319C14.4544 31.1974 14.2871 31.1297 14.1131 31.1304C13.9391 31.1312 13.7723 31.2003 13.6488 31.3229C13.5253 31.4455 13.4549 31.6117 13.4529 31.7857C13.4509 31.9597 13.5174 32.1276 13.638 32.253L18.162 36.777L19.341 37.956C19.4131 38.028 19.4693 38.1142 19.5061 38.2093C19.5428 38.3043 19.5592 38.406 19.5542 38.5078C19.5492 38.6095 19.5229 38.7091 19.4771 38.8001C19.4312 38.8911 19.3668 38.9714 19.288 39.036C19.1331 39.1461 18.9435 39.1961 18.7545 39.1766C18.5655 39.1571 18.3901 39.0694 18.261 38.93L17.327 38.003L12.605 33.281C12.5454 33.2126 12.4723 33.1571 12.3903 33.1181C12.3084 33.0791 12.2193 33.0574 12.1286 33.0542C12.0379 33.0511 11.9475 33.0667 11.863 33.1C11.7786 33.1333 11.7019 33.1836 11.6377 33.2477C11.5736 33.3119 11.5233 33.3886 11.49 33.4731C11.4567 33.5575 11.4411 33.6479 11.4442 33.7386C11.4473 33.8293 11.4691 33.9184 11.5081 34.0004C11.5471 34.0823 11.6025 34.1554 11.671 34.215L16.195 38.745C16.2671 38.817 16.3233 38.9032 16.3601 38.9983C16.3968 39.0933 16.4132 39.195 16.4082 39.2968C16.4032 39.3985 16.3769 39.4981 16.3311 39.5891C16.2852 39.6801 16.2208 39.7604 16.142 39.825C15.9915 39.9319 15.8082 39.9825 15.6242 39.9681C15.4401 39.9536 15.267 39.875 15.135 39.746L14.011 38.62C13.9729 38.5914 13.9331 38.565 13.892 38.541C13.8679 38.4998 13.8416 38.4601 13.813 38.422L10.66 35.276C10.6004 35.2076 10.5273 35.1521 10.4453 35.1131C10.3634 35.0741 10.2743 35.0524 10.1836 35.0492C10.0929 35.0461 10.0025 35.0617 9.91804 35.095C9.8336 35.1283 9.75691 35.1786 9.69273 35.2427C9.62855 35.3069 9.57826 35.3836 9.54497 35.4681C9.51168 35.5525 9.49611 35.6429 9.49923 35.7336C9.50235 35.8243 9.52408 35.9134 9.56309 35.9954C9.6021 36.0773 9.65754 36.1504 9.72598 36.21L12.872 39.363L12.991 39.442C13.015 39.4831 13.0414 39.5229 13.07 39.561C13.1423 39.631 13.1986 39.7157 13.2352 39.8094C13.2718 39.9031 13.2877 40.0036 13.282 40.104C13.2783 40.2061 13.2527 40.3063 13.207 40.3977C13.1613 40.4892 13.0965 40.5697 13.017 40.634C12.8616 40.7458 12.6707 40.7967 12.4803 40.7772C12.29 40.7577 12.1134 40.669 11.984 40.528L4.81098 33.328C3.89212 32.4099 3.22801 31.2685 2.88398 30.016C2.68568 29.1868 2.2669 28.4267 1.67198 27.816L1.13598 27.28C1.00941 27.1555 0.838605 27.0863 0.661065 27.0876C0.483525 27.089 0.313772 27.1607 0.189093 27.2871C0.0644143 27.4135 -0.00499651 27.5842 -0.0038933 27.7618C-0.00279008 27.9393 0.0687369 28.1091 0.194977 28.234L0.730977 28.77C1.1563 29.2101 1.4599 29.7532 1.61198 30.346C2.00958 31.8279 2.78843 33.1797 3.87098 34.267L11.044 41.44C11.4491 41.8545 12.0014 42.0924 12.581 42.102C13.0461 42.1036 13.4975 41.9446 13.859 41.652C14.1077 41.4439 14.3049 41.181 14.435 40.884C14.8032 41.1648 15.2534 41.317 15.7165 41.317C16.1795 41.317 16.6298 41.1648 16.998 40.884C17.2536 40.6766 17.4556 40.4108 17.587 40.109C17.9537 40.3905 18.4032 40.543 18.8655 40.543C19.3278 40.543 19.7772 40.3905 20.144 40.109C20.3671 39.9286 20.5497 39.7032 20.6798 39.4475C20.8099 39.1918 20.8846 38.9115 20.899 38.625C20.9227 38.1292 20.77 37.6409 20.468 37.247C20.7498 37.1217 20.9991 36.9336 21.197 36.697C21.3948 36.9336 21.6442 37.1217 21.926 37.247C21.624 37.6409 21.4713 38.1292 21.495 38.625C21.5102 38.9122 21.5852 39.1931 21.7152 39.4497C21.8452 39.7063 22.0273 39.9329 22.25 40.115C22.6172 40.3955 23.0664 40.5475 23.5285 40.5475C23.9905 40.5475 24.4398 40.3955 24.807 40.115C24.9308 40.4044 25.1199 40.6611 25.3594 40.8653C25.599 41.0694 25.8825 41.2153 26.1879 41.2916C26.4932 41.3679 26.8121 41.3726 27.1195 41.3051C27.4269 41.2377 27.7146 41.1001 27.96 40.903C28.0901 41.2039 28.2899 41.4696 28.543 41.678C28.9037 41.9672 29.3527 42.1239 29.815 42.122C30.3945 42.1124 30.9469 41.8745 31.352 41.46L38.525 34.267C39.6075 33.1797 40.3864 31.8279 40.784 30.346C40.9361 29.7532 41.2397 29.2101 41.665 28.77L42.201 28.234C42.2632 28.1724 42.3125 28.0992 42.3462 28.0184C42.3799 27.9376 42.3973 27.851 42.3973 27.7635C42.3973 27.676 42.3799 27.5893 42.3462 27.5086C42.3125 27.4278 42.2632 27.3546 42.201 27.293L42.205 27.294Z" fill="#9A6C3E"/>
</g>
<defs>
<clipPath id="clip0_102_14">
<rect width="42.401" height="42.125" fill="white"/>
</clipPath>
</defs>
</svg>
