<svg width="44" height="44" viewBox="0 0 44 44" fill="none" xmlns="http://www.w3.org/2000/svg">
<g clip-path="url(#clip0_102_19)">
<path d="M21.5959 19.574C21.4169 19.574 21.2452 19.6451 21.1186 19.7717C20.992 19.8983 20.9209 20.07 20.9209 20.249V21.599C20.9209 21.778 20.992 21.9497 21.1186 22.0763C21.2452 22.2029 21.4169 22.274 21.5959 22.274C21.7749 22.274 21.9466 22.2029 22.0732 22.0763C22.1998 21.9497 22.2709 21.778 22.2709 21.599V20.249C22.2709 20.07 22.1998 19.8983 22.0732 19.7717C21.9466 19.6451 21.7749 19.574 21.5959 19.574Z" fill="#9A6C3E"/>
<path d="M21.5959 15.525C21.4169 15.525 21.2452 15.5961 21.1186 15.7227C20.992 15.8493 20.9209 16.021 20.9209 16.2V17.55C20.9209 17.729 20.992 17.9007 21.1186 18.0273C21.2452 18.1539 21.4169 18.225 21.5959 18.225C21.7749 18.225 21.9466 18.1539 22.0732 18.0273C22.1998 17.9007 22.2709 17.729 22.2709 17.55V16.2C22.2709 16.021 22.1998 15.8493 22.0732 15.7227C21.9466 15.5961 21.7749 15.525 21.5959 15.525V15.525Z" fill="#9A6C3E"/>
<path d="M21.5959 23.624C21.4169 23.624 21.2452 23.6951 21.1186 23.8217C20.992 23.9483 20.9209 24.12 20.9209 24.299V25.649C20.9209 25.828 20.992 25.9997 21.1186 26.1263C21.2452 26.2529 21.4169 26.324 21.5959 26.324C21.7749 26.324 21.9466 26.2529 22.0732 26.1263C22.1998 25.9997 22.2709 25.828 22.2709 25.649V24.299C22.2709 24.12 22.1998 23.9483 22.0732 23.8217C21.9466 23.6951 21.7749 23.624 21.5959 23.624Z" fill="#9A6C3E"/>
<path d="M21.5959 27.673C21.4169 27.673 21.2452 27.7441 21.1186 27.8707C20.992 27.9973 20.9209 28.169 20.9209 28.348V29.698C20.9209 29.877 20.992 30.0487 21.1186 30.1753C21.2452 30.3019 21.4169 30.373 21.5959 30.373C21.7749 30.373 21.9466 30.3019 22.0732 30.1753C22.1998 30.0487 22.2709 29.877 22.2709 29.698V28.348C22.2709 28.169 22.1998 27.9973 22.0732 27.8707C21.9466 27.7441 21.7749 27.673 21.5959 27.673Z" fill="#9A6C3E"/>
<path d="M21.5959 31.722C21.4169 31.722 21.2452 31.7932 21.1186 31.9198C20.992 32.0463 20.9209 32.218 20.9209 32.397V33.747C20.9209 33.9261 20.992 34.0978 21.1186 34.2243C21.2452 34.3509 21.4169 34.422 21.5959 34.422C21.7749 34.422 21.9466 34.3509 22.0732 34.2243C22.1998 34.0978 22.2709 33.9261 22.2709 33.747V32.397C22.2709 32.218 22.1998 32.0463 22.0732 31.9198C21.9466 31.7932 21.7749 31.722 21.5959 31.722Z" fill="#9A6C3E"/>
<path d="M21.5959 35.772C21.4169 35.772 21.2452 35.8431 21.1186 35.9697C20.992 36.0963 20.9209 36.268 20.9209 36.447V37.797C20.9209 37.976 20.992 38.1477 21.1186 38.2743C21.2452 38.4009 21.4169 38.472 21.5959 38.472C21.7749 38.472 21.9466 38.4009 22.0732 38.2743C22.1998 38.1477 22.2709 37.976 22.2709 37.797V36.447C22.2709 36.268 22.1998 36.0963 22.0732 35.9697C21.9466 35.8431 21.7749 35.772 21.5959 35.772Z" fill="#9A6C3E"/>
<path d="M21.5959 39.821C21.4169 39.821 21.2452 39.8922 21.1186 40.0187C20.992 40.1453 20.9209 40.317 20.9209 40.496V41.846C20.9209 42.0251 20.992 42.1968 21.1186 42.3233C21.2452 42.4499 21.4169 42.521 21.5959 42.521C21.7749 42.521 21.9466 42.4499 22.0732 42.3233C22.1998 42.1968 22.2709 42.0251 22.2709 41.846V40.496C22.2709 40.317 22.1998 40.1453 22.0732 40.0187C21.9466 39.8922 21.7749 39.821 21.5959 39.821V39.821Z" fill="#9A6C3E"/>
<path d="M29.02 11.475V9.45101C29.022 9.05939 28.9098 8.67567 28.6972 8.34674C28.4847 8.01782 28.1809 7.75793 27.823 7.59884C27.4652 7.43974 27.0687 7.38832 26.6821 7.45086C26.2955 7.51341 25.9355 7.6872 25.646 7.95102C25.3566 7.68688 24.9965 7.5128 24.6097 7.45007C24.223 7.38735 23.8263 7.43869 23.4682 7.59783C23.1102 7.75697 22.8062 8.017 22.5936 8.34612C22.381 8.67524 22.2689 9.05919 22.271 9.45101V11.476C22.271 11.655 22.3421 11.8267 22.4687 11.9533C22.5953 12.0799 22.767 12.151 22.946 12.151C23.125 12.151 23.2967 12.0799 23.4233 11.9533C23.5499 11.8267 23.621 11.655 23.621 11.476V9.45101C23.621 9.27199 23.6921 9.10031 23.8187 8.97372C23.9453 8.84713 24.117 8.77602 24.296 8.77602C24.475 8.77602 24.6467 8.84713 24.7733 8.97372C24.8999 9.10031 24.971 9.27199 24.971 9.45101V11.476C24.971 11.655 25.0421 11.8267 25.1687 11.9533C25.2953 12.0799 25.467 12.151 25.646 12.151C25.825 12.151 25.9967 12.0799 26.1233 11.9533C26.2499 11.8267 26.321 11.655 26.321 11.476V9.45101C26.321 9.27199 26.3921 9.10031 26.5187 8.97372C26.6453 8.84713 26.817 8.77602 26.996 8.77602C27.175 8.77602 27.3467 8.84713 27.4733 8.97372C27.5999 9.10031 27.671 9.27199 27.671 9.45101V11.476C27.671 11.655 27.7421 11.8267 27.8687 11.9533C27.9953 12.0799 28.167 12.151 28.346 12.151C28.525 12.151 28.6967 12.0799 28.8233 11.9533C28.9499 11.8267 29.021 11.655 29.021 11.476L29.02 11.475Z" fill="#9A6C3E"/>
<path d="M20.246 10.802H17.729C17.8876 10.5503 18.1249 10.358 18.404 10.255L19.511 9.81005C20.0042 9.60989 20.4122 9.24405 20.6647 8.77551C20.9173 8.30696 20.9985 7.76504 20.8946 7.24303C20.7906 6.72102 20.5079 6.25159 20.0951 5.91557C19.6823 5.57954 19.1653 5.39795 18.633 5.40205H18.221C17.6841 5.40231 17.1693 5.61577 16.7898 5.99551C16.4102 6.37524 16.197 6.89015 16.197 7.42705C16.197 7.60607 16.2681 7.77776 16.3947 7.90434C16.5213 8.03093 16.693 8.10205 16.872 8.10205C17.051 8.10205 17.2227 8.03093 17.3493 7.90434C17.4759 7.77776 17.547 7.60607 17.547 7.42705C17.547 7.24802 17.6181 7.07634 17.7447 6.94975C17.8713 6.82316 18.043 6.75205 18.222 6.75205H18.634C18.853 6.74796 19.0663 6.82118 19.2366 6.95884C19.4069 7.09649 19.5233 7.28977 19.5652 7.5047C19.6071 7.71962 19.5719 7.94244 19.4658 8.134C19.3597 8.32555 19.1895 8.47357 18.985 8.55205L17.877 9.00205C17.3806 9.19759 16.9548 9.53829 16.6551 9.97966C16.3553 10.421 16.1957 10.9425 16.197 11.476C16.197 11.6551 16.2681 11.8268 16.3947 11.9533C16.5213 12.0799 16.693 12.151 16.872 12.151H20.246C20.4251 12.151 20.5967 12.0799 20.7233 11.9533C20.8499 11.8268 20.921 11.6551 20.921 11.476C20.921 11.297 20.8499 11.1253 20.7233 10.9987C20.5967 10.8722 20.4251 10.801 20.246 10.801V10.802Z" fill="#9A6C3E"/>
<path d="M6.80308 2.95903C6.83525 3.042 6.88351 3.11778 6.94508 3.18203L8.96908 5.20403C9.03097 5.27132 9.10583 5.32539 9.18915 5.36301C9.27247 5.40062 9.36255 5.421 9.45395 5.42291C9.54535 5.42482 9.63619 5.40822 9.72101 5.37412C9.80583 5.34002 9.88288 5.28912 9.94753 5.22447C10.0122 5.15983 10.0631 5.08278 10.0972 4.99796C10.1313 4.91313 10.1479 4.82229 10.146 4.73089C10.1441 4.63949 10.1237 4.54942 10.0861 4.4661C10.0484 4.38277 9.99437 4.30792 9.92708 4.24603L9.04708 3.37703H34.1471L33.2701 4.24803C33.2028 4.30992 33.1487 4.38477 33.1111 4.4681C33.0735 4.55142 33.0531 4.64149 33.0512 4.73289C33.0493 4.82429 33.0659 4.91513 33.1 4.99996C33.1341 5.08478 33.185 5.16183 33.2496 5.22647C33.3143 5.29112 33.3913 5.34202 33.4762 5.37612C33.561 5.41022 33.6518 5.42682 33.7432 5.42491C33.8346 5.423 33.9247 5.40262 34.008 5.36501C34.0913 5.32739 34.1662 5.27332 34.2281 5.20603L36.2471 3.18103C36.3689 3.05126 36.4366 2.87998 36.4366 2.70203C36.4366 2.52407 36.3689 2.3528 36.2471 2.22303L34.2231 0.198029C34.0943 0.0796203 33.9248 0.015548 33.7499 0.0192018C33.5751 0.0228556 33.4084 0.0939528 33.2847 0.217635C33.161 0.341318 33.0899 0.508015 33.0863 0.682891C33.0826 0.857767 33.1467 1.02729 33.2651 1.15603L34.1421 2.02703H9.04708L9.92408 1.15603C9.99137 1.09414 10.0454 1.01929 10.0831 0.935961C10.1207 0.852638 10.1411 0.762567 10.143 0.671167C10.1449 0.579766 10.1283 0.488924 10.0942 0.404101C10.0601 0.319279 10.0092 0.242229 9.94453 0.177586C9.87988 0.112942 9.80283 0.0620386 9.71801 0.0279377C9.63319 -0.00616328 9.54235 -0.0227578 9.45095 -0.0208481C9.35954 -0.0189384 9.26947 0.00143607 9.18615 0.0390502C9.10283 0.0766644 9.02797 0.130741 8.96608 0.198029L6.94708 2.22303C6.85608 2.31963 6.79441 2.44011 6.76927 2.57042C6.74413 2.70073 6.75655 2.83551 6.80508 2.95903H6.80308Z" fill="#9A6C3E"/>
<path d="M10.42 16.874C11.0962 16.1372 11.4718 15.174 11.473 14.174V12.15C11.473 11.0758 11.0463 10.0457 10.2868 9.28619C9.52727 8.52667 8.49714 8.09998 7.42301 8.09998C6.34889 8.09998 5.31875 8.52667 4.55923 9.28619C3.79971 10.0457 3.37301 11.0758 3.37301 12.15V14.175C3.37418 15.175 3.74986 16.1382 4.42601 16.875C3.22514 16.9509 2.09849 17.4822 1.27598 18.3604C0.453475 19.2387 -0.00289192 20.3977 1.37908e-05 21.601V29.701C1.37908e-05 30.238 0.213361 30.7531 0.593123 31.1329C0.972884 31.5126 1.48795 31.726 2.02501 31.726C2.25574 31.7256 2.48447 31.6833 2.70001 31.601V40.091C2.28567 40.3464 1.9439 40.7041 1.70751 41.1296C1.47111 41.5551 1.34801 42.0342 1.35001 42.521C1.35001 42.7 1.42113 42.8717 1.54772 42.9983C1.6743 43.1249 1.84599 43.196 2.02501 43.196H6.74901C6.92804 43.196 7.09972 43.1249 7.22631 42.9983C7.3529 42.8717 7.42401 42.7 7.42401 42.521C7.42401 42.7 7.49513 42.8717 7.62172 42.9983C7.7483 43.1249 7.91999 43.196 8.09901 43.196H12.823C13.002 43.196 13.1737 43.1249 13.3003 42.9983C13.4269 42.8717 13.498 42.7 13.498 42.521C13.5026 42.0337 13.3807 41.5536 13.144 41.1276C12.9074 40.7017 12.5642 40.3445 12.148 40.091V31.601C12.3638 31.6819 12.5925 31.7229 12.823 31.722C13.3592 31.7217 13.8734 31.5088 14.2528 31.1299C14.6323 30.7511 14.846 30.2372 14.847 29.701V21.601C14.8502 20.3974 14.3938 19.238 13.571 18.3595C12.7483 17.481 11.6212 16.9496 10.42 16.874V16.874ZM4.72001 12.15C4.72001 11.7954 4.78985 11.4443 4.92554 11.1167C5.06123 10.7892 5.26011 10.4915 5.51083 10.2408C5.76154 9.99007 6.05919 9.79119 6.38677 9.6555C6.71435 9.51981 7.06544 9.44998 7.42001 9.44998C7.77458 9.44998 8.12568 9.51981 8.45326 9.6555C8.78084 9.79119 9.07848 9.99007 9.3292 10.2408C9.57992 10.4915 9.7788 10.7892 9.91449 11.1167C10.0502 11.4443 10.12 11.7954 10.12 12.15V14.175C10.12 14.8911 9.83555 15.5778 9.3292 16.0842C8.82285 16.5905 8.1361 16.875 7.42001 16.875C6.70393 16.875 6.01717 16.5905 5.51083 16.0842C5.00448 15.5778 4.72001 14.8911 4.72001 14.175V12.15ZM13.5 29.701C13.5012 29.8121 13.4746 29.9217 13.4227 30.02C13.3708 30.1182 13.2952 30.202 13.2027 30.2637C13.1103 30.3253 13.0039 30.3629 12.8933 30.3731C12.7826 30.3833 12.6712 30.3657 12.569 30.322H12.515C12.4019 30.2634 12.3077 30.1739 12.2433 30.064C12.1789 29.9542 12.1469 29.8283 12.151 29.701V20.924C12.151 20.745 12.0799 20.5733 11.9533 20.4467C11.8267 20.3201 11.655 20.249 11.476 20.249C11.297 20.249 11.1253 20.3201 10.9987 20.4467C10.8721 20.5733 10.801 20.745 10.801 20.924V40.495C10.8008 40.6187 10.8347 40.7402 10.8989 40.846C10.9631 40.9518 11.0552 41.0379 11.165 41.095L11.32 41.176C11.6125 41.3215 11.8495 41.5585 11.995 41.851H8.77301L8.10001 29.701C8.10001 29.6123 8.08255 29.5246 8.04863 29.4427C8.01471 29.3608 7.96499 29.2864 7.90231 29.2237C7.83963 29.161 7.76522 29.1113 7.68333 29.0774C7.60143 29.0434 7.51366 29.026 7.42501 29.026C7.33637 29.026 7.2486 29.0434 7.1667 29.0774C7.08481 29.1113 7.0104 29.161 6.94772 29.2237C6.88504 29.2864 6.83532 29.3608 6.80139 29.4427C6.76747 29.5246 6.75001 29.6123 6.75001 29.701L6.10801 41.845H2.85501C3.00157 41.5532 3.23828 41.3165 3.53001 41.17L3.67201 41.096C3.78448 41.0409 3.8794 40.9556 3.94615 40.8496C4.01291 40.7437 4.04887 40.6212 4.05001 40.496V20.924C4.05001 20.745 3.9789 20.5733 3.85231 20.4467C3.72572 20.3201 3.55403 20.249 3.37501 20.249C3.19599 20.249 3.0243 20.3201 2.89772 20.4467C2.77113 20.5733 2.70001 20.745 2.70001 20.924V29.701C2.69909 29.8237 2.6647 29.9439 2.60057 30.0486C2.53643 30.1532 2.44496 30.2384 2.33601 30.295H2.28101C2.20197 30.3388 2.11491 30.3664 2.02501 30.376C1.93637 30.376 1.8486 30.3585 1.7667 30.3246C1.68481 30.2907 1.6104 30.241 1.54772 30.1783C1.48504 30.1156 1.43532 30.0412 1.4014 29.9593C1.36747 29.8774 1.35001 29.7896 1.35001 29.701V21.601C1.35001 20.7061 1.70549 19.8479 2.33824 19.2152C2.97098 18.5824 3.82917 18.227 4.72401 18.227H10.124C10.5673 18.2267 11.0062 18.3138 11.4158 18.4832C11.8254 18.6527 12.1976 18.9012 12.5111 19.2145C12.8246 19.5278 13.0733 19.8999 13.243 20.3093C13.4127 20.7188 13.5 21.1577 13.5 21.601V29.701Z" fill="#9A6C3E"/>
<path d="M38.765 16.874C39.4411 16.1372 39.8168 15.174 39.818 14.174V12.15C39.818 11.0758 39.3913 10.0457 38.6318 9.28619C37.8722 8.52667 36.8421 8.09998 35.768 8.09998C34.6939 8.09998 33.6637 8.52667 32.9042 9.28619C32.1447 10.0457 31.718 11.0758 31.718 12.15V14.175C31.7192 15.175 32.0948 16.1382 32.771 16.875C31.5701 16.9509 30.4435 17.4822 29.621 18.3604C28.7984 19.2387 28.3421 20.3977 28.345 21.601V29.701C28.345 30.238 28.5583 30.7531 28.9381 31.1329C29.3179 31.5126 29.8329 31.726 30.37 31.726C30.6007 31.7256 30.8294 31.6833 31.045 31.601V40.091C30.6306 40.3464 30.2889 40.7041 30.0525 41.1296C29.8161 41.5551 29.693 42.0342 29.695 42.521C29.695 42.7 29.7661 42.8717 29.8927 42.9983C30.0193 43.1249 30.191 43.196 30.37 43.196H35.094C35.273 43.196 35.4447 43.1249 35.5713 42.9983C35.6979 42.8717 35.769 42.7 35.769 42.521V42.521C35.769 42.7 35.8401 42.8717 35.9667 42.9983C36.0933 43.1249 36.265 43.196 36.444 43.196H41.168C41.347 43.196 41.5187 43.1249 41.6453 42.9983C41.7719 42.8717 41.843 42.7 41.843 42.521C41.8476 42.0337 41.7256 41.5536 41.489 41.1276C41.2523 40.7017 40.9091 40.3445 40.493 40.091V31.601C40.7088 31.6819 40.9375 31.7229 41.168 31.722C41.7042 31.7217 42.2184 31.5088 42.5978 31.1299C42.9772 30.7511 43.1909 30.2372 43.192 29.701V21.601C43.1951 20.3974 42.7387 19.238 41.916 18.3595C41.0933 17.481 39.9662 16.9496 38.765 16.874V16.874ZM33.065 12.15C33.065 11.7954 33.1348 11.4443 33.2705 11.1167C33.4062 10.7892 33.6051 10.4915 33.8558 10.2408C34.1065 9.99007 34.4042 9.79119 34.7317 9.6555C35.0593 9.51981 35.4104 9.44998 35.765 9.44998C36.1196 9.44998 36.4707 9.51981 36.7982 9.6555C37.1258 9.79119 37.4235 9.99007 37.6742 10.2408C37.9249 10.4915 38.1238 10.7892 38.2595 11.1167C38.3951 11.4443 38.465 11.7954 38.465 12.15V14.175C38.465 14.5295 38.3951 14.8806 38.2595 15.2082C38.1238 15.5358 37.9249 15.8334 37.6742 16.0842C37.4235 16.3349 37.1258 16.5338 36.7982 16.6695C36.4707 16.8051 36.1196 16.875 35.765 16.875C35.4104 16.875 35.0593 16.8051 34.7317 16.6695C34.4042 16.5338 34.1065 16.3349 33.8558 16.0842C33.6051 15.8334 33.4062 15.5358 33.2705 15.2082C33.1348 14.8806 33.065 14.5295 33.065 14.175V12.15ZM41.845 29.701C41.8461 29.8121 41.8196 29.9217 41.7677 30.02C41.7157 30.1182 41.6401 30.202 41.5477 30.2637C41.4553 30.3253 41.3489 30.3629 41.2382 30.3731C41.1276 30.3833 41.0161 30.3657 40.914 30.322H40.86C40.7469 30.2634 40.6527 30.1739 40.5883 30.064C40.5239 29.9542 40.4919 29.8283 40.496 29.701V20.924C40.496 20.745 40.4249 20.5733 40.2983 20.4467C40.1717 20.3201 40 20.249 39.821 20.249C39.642 20.249 39.4703 20.3201 39.3437 20.4467C39.2171 20.5733 39.146 20.745 39.146 20.924V40.495C39.1458 40.6187 39.1797 40.7402 39.2439 40.846C39.3081 40.9518 39.4001 41.0379 39.51 41.095L39.665 41.176C39.9575 41.3215 40.1945 41.5585 40.34 41.851H37.118L36.445 29.701C36.445 29.522 36.3739 29.3503 36.2473 29.2237C36.1207 29.0971 35.949 29.026 35.77 29.026C35.591 29.026 35.4193 29.0971 35.2927 29.2237C35.1661 29.3503 35.095 29.522 35.095 29.701L34.42 41.849H31.2C31.3466 41.5573 31.5833 41.3206 31.875 41.174L32.017 41.1C32.1295 41.0449 32.2244 40.9596 32.2911 40.8536C32.3579 40.7477 32.3938 40.6252 32.395 40.5V20.924C32.395 20.745 32.3239 20.5733 32.1973 20.4467C32.0707 20.3201 31.899 20.249 31.72 20.249C31.541 20.249 31.3693 20.3201 31.2427 20.4467C31.1161 20.5733 31.045 20.745 31.045 20.924V29.701C31.0441 29.8237 31.0097 29.9439 30.9455 30.0486C30.8814 30.1532 30.7899 30.2384 30.681 30.295H30.627C30.5283 30.352 30.4159 30.3809 30.302 30.3784C30.1881 30.376 30.077 30.3422 29.9809 30.281C29.8849 30.2197 29.8075 30.1332 29.7572 30.0309C29.707 29.9286 29.6858 29.8145 29.696 29.701V21.601C29.696 20.7061 30.0515 19.8479 30.6842 19.2152C31.317 18.5824 32.1751 18.227 33.07 18.227H38.47C38.9131 18.2268 39.352 18.314 39.7615 18.4835C40.1709 18.653 40.543 18.9015 40.8564 19.2148C41.1698 19.5282 41.4184 19.9002 41.5881 20.3096C41.7577 20.719 41.845 21.1578 41.845 21.601V29.701Z" fill="#9A6C3E"/>
</g>
<defs>
<clipPath id="clip0_102_19">
<rect width="43.192" height="43.195" fill="white"/>
</clipPath>
</defs>
</svg>
